<svg width="519" height="295" viewBox="0 0 519 295" fill="none" xmlns="http://www.w3.org/2000/svg">
<g clip-path="url(#clip0_327_31397)">
<path d="M23.2001 193V131H0.330078V117H62.9001V131H39.9001V193H23.2001Z" fill="white"/>
<path d="M49.25 193V138.58H65.77V147.41H65.87C68.87 142.79 74.08 137.15 84.34 137.15H84.85V151.82C84.24 151.72 81.36 151.51 80.34 151.51C77.496 151.538 74.6979 152.23 72.1684 153.53C69.639 154.831 67.448 156.704 65.77 159V193H49.25Z" fill="white"/>
<path d="M90.0703 130.79V117.56H106.69V130.79H90.0703ZM90.1803 193V138.28H106.59V193H90.1803Z" fill="white"/>
<path d="M113.051 193V138.28H129.561V146.9C132.851 142.59 138.901 137.15 147.561 137.15C156.691 137.15 161.001 140.95 162.561 146.9C165.841 142.69 172.001 137.15 180.611 137.15C191.691 137.15 196.611 144.15 196.611 153.87V193H180.001V158.28C180.001 153.36 178.871 150.8 174.051 150.8C169.951 150.8 166.661 153.05 163.051 156.23V193H146.601V158.28C146.601 153.36 145.471 150.8 140.601 150.8C136.501 150.8 133.221 153.05 129.521 156.23V193H113.051Z" fill="white"/>
<path d="M219.321 186.5V193H202.801V117H219.321V146.65C222.911 141.65 228.041 137.11 236.141 137.11C248.561 137.11 257.141 146.65 257.141 165.53C257.141 184.41 248.421 193.74 235.901 193.74C228.551 193.78 223.421 191.11 219.321 186.5ZM240.661 165.67C240.661 156.54 237.481 150.8 230.091 150.8C225.881 150.8 222.091 153.36 219.321 156.13V176.34C222.911 179.73 225.881 181.34 230.321 181.34C237.171 181.37 240.661 175.62 240.661 165.67Z" fill="white"/>
<path d="M262.289 193V117H278.699V193H262.289Z" fill="white"/>
<path d="M283.82 165.67C283.82 144.43 300.03 137.15 311.31 137.15C322.59 137.15 336.45 142.79 336.45 167.62V170.08H300.23C301.06 179.08 306.08 182.6 312.96 182.6C318.98 182.414 324.733 180.072 329.17 176L335.53 185.85C329.17 191.29 321.27 194.06 311.73 194.06C297.46 194.09 283.82 186.81 283.82 165.67ZM321.68 160.34C320.86 152.64 317.37 148.95 311.21 148.95C306.08 148.95 301.67 152.33 300.44 160.34H321.68Z" fill="white"/>
<path d="M339.571 186.79C339.563 185.966 339.719 185.149 340.031 184.386C340.343 183.624 340.804 182.931 341.387 182.349C341.97 181.767 342.663 181.307 343.426 180.997C344.189 180.686 345.007 180.531 345.831 180.54C347.069 180.54 348.28 180.907 349.309 181.596C350.339 182.284 351.142 183.262 351.615 184.407C352.089 185.551 352.212 186.81 351.97 188.025C351.727 189.24 351.13 190.355 350.254 191.23C349.377 192.105 348.261 192.701 347.046 192.941C345.831 193.181 344.572 193.056 343.428 192.581C342.284 192.105 341.307 191.301 340.621 190.271C339.934 189.24 339.569 188.029 339.571 186.79ZM350.951 186.79C350.931 185.777 350.612 184.793 350.035 183.96C349.457 183.128 348.647 182.484 347.705 182.111C346.763 181.738 345.731 181.652 344.741 181.863C343.75 182.074 342.843 182.573 342.135 183.298C341.427 184.023 340.949 184.94 340.761 185.936C340.573 186.931 340.683 187.96 341.078 188.893C341.473 189.826 342.135 190.622 342.98 191.18C343.826 191.738 344.817 192.034 345.831 192.03C346.517 192.037 347.199 191.906 347.834 191.644C348.468 191.382 349.044 190.995 349.527 190.506C350.009 190.017 350.388 189.436 350.641 188.798C350.895 188.159 351.017 187.477 351.001 186.79H350.951ZM343.401 183.23H346.001C347.621 183.23 348.561 183.93 348.561 185.34C348.598 185.769 348.484 186.197 348.24 186.551C347.995 186.905 347.635 187.163 347.221 187.28L348.701 190.08H347.271L345.891 187.47H344.811V190.08H343.401V183.23ZM345.881 186.42C346.721 186.42 347.181 186.15 347.181 185.42C347.181 184.69 346.721 184.42 345.851 184.42H344.771V186.42H345.881Z" fill="white"/>
<path d="M6.18945 76.41V100L26.7095 88.16C18.8207 86.4551 11.6528 82.3507 6.18945 76.41Z" fill="white"/>
<path d="M26.5595 11.74L6.18945 0V23.45C11.6277 17.5623 18.7349 13.4766 26.5595 11.74Z" fill="white"/>
<path d="M92.8005 50L72.2905 38.16C74.7159 45.8838 74.695 54.1685 72.2305 61.88L92.8005 50Z" fill="white"/>
<path d="M19.6992 17.92C22.6392 17.27 28.7492 17.92 31.9792 18.81C35.0147 16.6519 38.6259 15.4505 42.3492 15.36C34.7088 14.0618 26.8571 14.9493 19.6992 17.92Z" fill="white"/>
<path d="M58.7891 60.84C58.2831 56.3444 57.2044 51.932 55.5791 47.71C48.5791 50.89 39.8591 48.84 34.0491 43.81C29.7813 48.2677 25.9535 53.1269 22.6191 58.32C32.4691 66.35 48.6691 68.46 58.7891 60.84Z" fill="white"/>
<path d="M17.2302 59.09C8.55017 50.19 5.52017 37.22 8.30017 27.25C2.60048 33.963 -0.359179 42.5779 0.0115175 51.3763C0.382214 60.1748 4.05602 68.5102 10.3002 74.72C11.8938 69.221 14.225 63.9632 17.2302 59.09Z" fill="white"/>
<path d="M54 43.94C52.1694 40.0441 49.8142 36.4172 47 33.16C43.4684 35.4841 40.1247 38.0821 37 40.93C42.26 45.3 49.14 46.16 54 43.94Z" fill="white"/>
<path d="M47.4692 27.72C49.8303 26.0093 52.3887 24.5891 55.0892 23.49C49.5292 17.87 40.5892 18.02 36.6992 20.49C40.6852 22.2501 44.3307 24.6974 47.4692 27.72Z" fill="white"/>
<path d="M20.3999 62C16.0799 69.47 14.4999 75 13.9199 77.87C20.1776 82.5755 27.8323 85.047 35.6601 84.8893C43.488 84.7316 51.0369 81.9538 57.0999 77C58.4913 73.3877 59.1705 69.5403 59.0999 65.67C47.1399 72.79 30.6599 70.07 20.3999 62Z" fill="white"/>
<path d="M57.3999 41.45C61.2299 37.45 60.4599 30.61 57.5499 26.67C54.9895 27.723 52.5894 29.1301 50.4199 30.85C53.1649 34.0894 55.5085 37.6485 57.3999 41.45Z" fill="white"/>
<path d="M64.0002 32.85C64.3096 35.1858 64.0288 37.5619 63.1833 39.7613C62.3378 41.9606 60.9546 43.913 59.1602 45.44C60.6857 49.2302 61.8021 53.1726 62.4902 57.2C67.7402 50.38 67.5802 40.64 64.0002 32.85Z" fill="white"/>
<path d="M34.1609 37.9C37.2399 35.0591 40.5293 32.455 44.0009 30.11C40.8511 27.2386 37.1775 25.0011 33.1809 23.52C29.9209 27.89 30.9209 33.53 34.1609 37.9Z" fill="white"/>
<path d="M63.1195 62.69C63.2432 65.6569 63.0993 68.6289 62.6895 71.57C68.0958 64.6005 70.7029 55.8625 69.9995 47.07C69.4683 52.887 67.0525 58.3715 63.1195 62.69Z" fill="white"/>
<path d="M29.1005 22.28C24.5312 21.159 19.755 21.1899 15.2005 22.37C8.31055 32.14 11.5106 46.45 19.5306 55.37C22.9547 50.1602 26.8547 45.2793 31.1805 40.79C27.1005 35.72 25.4805 27.89 29.1005 22.28Z" fill="white"/>
<path d="M2.40039 257.79C2.40039 236.73 14.0004 222 31.3504 222C45.4504 222 53.2504 230.36 56.5404 243.24L50.1504 244.84C47.0504 233.84 41.8804 228.1 31.2604 228.1C17.8204 228.1 9.07039 239.76 9.07039 257.62C9.07039 276.89 17.9104 288.17 31.4504 288.17C41.7804 288.17 48.2704 282.17 51.2804 270.5L57.6704 271.91C54.2904 285.63 45.2604 294.18 31.3504 294.18C13.7704 294.16 2.40039 280 2.40039 257.79Z" fill="white"/>
<path d="M64.7207 268.13C64.7207 251.58 74.9707 242.37 87.1907 242.37C99.4107 242.37 109.561 251.58 109.561 268.13C109.561 284.68 99.3107 293.88 87.1907 293.88C75.0707 293.88 64.7207 284.57 64.7207 268.13ZM103.071 268.03C103.071 257.22 97.6207 247.92 87.1907 247.92C77.1307 247.92 71.1907 256.38 71.1907 268.03C71.1907 279.03 76.5507 288.33 87.1907 288.33C97.1507 288.33 103.071 280 103.071 268V268.03Z" fill="white"/>
<path d="M118.6 243.31H125.09V251.11C129.88 246.41 136.18 242.37 143.98 242.37C153.76 242.37 158.74 247.82 158.74 257.03V292.85H152.25V258.26C152.25 251.26 149.15 247.92 142.38 247.92C135.99 247.92 130.63 251.21 125.09 256.57V292.85H118.6V243.31Z" fill="white"/>
<path d="M166.289 285L170.419 281.24C172.278 283.523 174.633 285.353 177.305 286.59C179.977 287.827 182.895 288.439 185.839 288.38C194.299 288.38 198.719 285.28 198.719 279.74C198.719 274.2 194.769 272.12 185.089 269.87C173.709 267.05 167.889 264.04 167.889 255.39C167.889 248.34 173.989 242.39 184.709 242.39C193.169 242.39 198.619 245.21 203.039 249.54L199.369 253.86C197.503 251.906 195.256 250.356 192.768 249.305C190.279 248.254 187.601 247.725 184.899 247.75C177.189 247.75 174.179 251.32 174.179 255.08C174.179 259.87 177.569 261.85 186.179 263.92C198.589 266.92 204.979 269.92 204.979 279.61C204.979 288.61 196.899 293.81 185.709 293.81C176.909 293.79 170.049 290 166.289 285Z" fill="white"/>
<path d="M218.13 281.28V248.86H209.48V243.31H218.13V225.55H224.61V243.31H237.49V248.86H224.61V280C224.61 285.26 226.31 288.08 232.42 288.08C234.167 288.121 235.909 287.902 237.59 287.43V292.97C235.476 293.329 233.335 293.516 231.19 293.53C221.7 293.5 218.13 289.84 218.13 281.28Z" fill="white"/>
<path d="M245.071 243.31H251.551V253.09H251.741C255.601 246.98 261.611 242.37 271.391 242.37H272.511L271.861 248.37L269.861 248.27C261.781 248.27 255.391 252.79 251.531 260.59V292.83H245.051L245.071 243.31Z" fill="white"/>
<path d="M279 279.12V243.31H285.49V278C285.49 285 288.49 288.34 295.36 288.34C301.65 288.34 307.01 284.96 312.56 279.7V243.31H319.14V292.85H312.56V285C307.76 289.7 301.47 293.84 293.76 293.84C283.87 293.88 279 288.33 279 279.12Z" fill="white"/>
<path d="M328.131 268.13C328.131 250.36 339.131 242.37 350.211 242.37C360.831 242.37 366.101 248.67 369.211 255.91L363.671 258.35C360.941 251.68 356.991 247.92 350.041 247.92C342.701 247.92 334.621 253.18 334.621 268.03C334.621 281.03 341.201 288.33 349.851 288.33C356.711 288.33 360.561 285.14 364.041 277.81L369.301 280.06C365.361 288.43 359.621 293.88 349.571 293.88C338.181 293.88 328.131 284.57 328.131 268.13Z" fill="white"/>
<path d="M381.24 281.28V248.86H372.6V243.31H381.24V225.55H387.73V243.31H400.61V248.86H387.73V280C387.73 285.26 389.42 288.08 395.53 288.08C397.276 288.121 399.018 287.902 400.7 287.43V292.97C398.588 293.329 396.451 293.516 394.31 293.53C384.82 293.5 381.24 289.84 381.24 281.28Z" fill="white"/>
<path d="M408.25 224.89H415.11V231.89H408.25V224.89ZM408.44 243.31H414.92V292.85H408.44V243.31Z" fill="white"/>
<path d="M424 268.13C424 251.58 434.25 242.37 446.47 242.37C458.69 242.37 468.84 251.58 468.84 268.13C468.84 284.68 458.59 293.88 446.47 293.88C434.35 293.88 424 284.57 424 268.13ZM462.35 268.03C462.35 257.22 456.9 247.92 446.47 247.92C436.41 247.92 430.47 256.38 430.47 268.03C430.47 279.03 435.83 288.33 446.47 288.33C456.44 288.33 462.36 280 462.36 268L462.35 268.03Z" fill="white"/>
<path d="M477.891 243.31H484.381V251.11C489.171 246.41 495.471 242.37 503.271 242.37C513.051 242.37 518.031 247.82 518.031 257.03V292.85H511.541V258.26C511.541 251.26 508.441 247.92 501.671 247.92C495.281 247.92 489.921 251.21 484.381 256.57V292.85H477.891V243.31Z" fill="white"/>
</g>
<defs>
<clipPath id="clip0_327_31397">
<rect width="518.03" height="294.16" fill="none"/>
</clipPath>
</defs>
</svg>
