<svg width="402" height="468" viewBox="0 0 402 468" fill="none" xmlns="http://www.w3.org/2000/svg">
<path d="M281.167 411.764L288.14 407.117L276.521 400.145V397.822H274.195L227.721 369.937L329.968 311.844L209.135 235.161L155.688 265.369C130.127 256.074 99.9168 256.074 72.0321 267.693C41.8237 281.635 30.205 307.196 48.7948 325.786L0 353.671L120.833 430.354L213.782 379.232L260.256 407.117L216.102 432.678L281.167 467.534H309.051L281.167 411.764Z" fill="#CCCCCC"/>
<path d="M246.312 416.413V435.002L304.405 467.535V451.269L246.312 416.413Z" fill="#8C8C8C"/>
<path d="M302.084 383.88L246.312 416.412L304.405 451.268L360.177 418.736L302.084 383.88Z" fill="#E6E6E5"/>
<path d="M360.177 418.736V437.326L304.405 467.534V451.268L360.177 418.736Z" fill="#C0BFBF"/>
<path d="M288.14 86.4434V421.06L304.405 430.355V93.4146L288.14 86.4434Z" fill="#8C8C8C"/>
<path d="M302.084 77.1479L288.14 86.4429L304.405 93.414L318.349 86.4429L302.084 77.1479Z" fill="#F3F3F3"/>
<path d="M318.349 86.4434V421.06L304.405 430.355V93.4146L318.349 86.4434Z" fill="#C0BFBF"/>
<path d="M190.544 112.004L209.135 123.623L399.68 9.76021L383.415 0.465271L190.544 112.004Z" fill="#ECA15B"/>
<path d="M311.377 0.465271H306.731C302.083 0.465271 295.111 0.465324 288.14 2.78905C262.579 14.4077 239.34 49.2635 234.693 86.4431L253.284 98.0618L278.847 77.1482L334.614 16.7314L336.94 14.4077L311.377 0.465271Z" fill="url(#paint0_linear_1_11457)"/>
<path d="M309.051 14.4082C283.49 26.0268 257.931 60.8827 253.284 98.0623L209.135 123.623V288.608L402 177.069V12.0844L353.205 39.9692C346.234 14.4082 329.965 5.11332 309.051 14.4082Z" fill="#BC6D2B"/>
<path d="M220.754 267.694L385.735 170.098V32.998L220.754 130.594V267.694Z" fill="white"/>
<path d="M374.116 39.9691V165.45L220.754 253.752V267.694L385.735 170.098V32.998L374.116 39.9691Z" fill="#ECA15B"/>
<path d="M190.544 276.988L209.135 288.607V123.622L190.544 112.004V276.988Z" fill="#5B2D0F"/>
<path d="M374.116 165.45L385.735 170.098V32.998L374.116 39.9691V165.45Z" fill="#5B2D0F"/>
<path d="M227.721 235.162L267.228 114.328L309.051 186.364L227.721 235.162Z" fill="#333333"/>
<path d="M232.373 225.868L267.228 123.624L304.405 186.365L232.373 225.868Z" fill="#FEDE12"/>
<path d="M274.195 193.335C274.195 197.983 271.872 202.63 269.549 202.63C267.225 204.954 264.902 202.63 264.902 197.983C264.902 193.335 267.225 188.688 269.549 188.688C271.872 188.688 274.195 191.012 274.195 193.335Z" fill="#333333"/>
<path d="M271.875 144.537C271.875 149.184 269.552 184.04 267.228 186.364C264.905 188.687 262.576 153.831 262.576 151.508C262.576 149.184 264.905 144.537 267.228 142.213C271.876 139.889 271.875 142.213 271.875 144.537Z" fill="#333333"/>
<path d="M362.498 105.033V102.709C362.498 100.385 364.824 100.385 364.824 98.0615C364.824 95.7378 362.498 93.414 362.498 93.414C362.498 81.7954 355.53 77.1479 348.559 77.1479C346.235 77.1479 343.91 77.148 341.587 79.4717L334.614 84.1192C325.319 88.7666 318.349 102.709 318.349 114.328C316.026 116.651 316.023 118.975 316.023 121.299C316.023 123.622 316.026 123.623 318.349 125.946C318.349 128.27 318.349 130.594 318.349 130.594C316.026 132.917 316.023 135.241 316.023 137.565C316.023 144.536 318.346 151.507 320.67 156.155C320.67 158.478 322.996 158.478 322.996 158.478V160.802C325.319 163.126 325.318 165.45 327.642 167.773L329.968 170.097C332.292 172.421 334.616 172.421 336.94 172.421C341.588 172.421 348.555 167.773 350.879 160.802C350.879 160.802 350.881 158.478 353.205 158.478C355.529 156.155 355.528 151.507 357.851 146.86V144.536C357.851 142.212 357.854 142.212 360.177 139.889C360.177 139.889 362.498 137.565 362.498 135.241C364.822 128.27 367.144 118.975 367.144 112.004C364.82 107.356 364.822 105.033 362.498 105.033Z" fill="#333333"/>
<path d="M360.177 109.68C357.854 109.68 360.177 109.68 360.177 109.68C357.854 109.68 357.854 112.004 360.177 109.68C357.854 95.7381 350.879 88.7669 339.261 93.4143C339.261 93.4143 339.264 93.4143 336.94 93.4143C327.645 100.385 318.349 116.652 318.349 130.594V132.918V135.241C318.349 142.213 320.672 146.86 322.996 151.507C322.996 151.507 322.998 153.831 325.322 153.831C327.645 153.831 327.642 156.155 327.642 158.479C329.966 160.802 329.964 163.126 332.288 165.45C332.288 165.45 332.29 165.45 334.614 167.774C339.262 170.097 343.911 167.774 348.559 160.802C348.559 160.802 348.555 158.479 350.879 158.479C353.203 153.831 353.202 151.507 355.525 146.86C355.525 144.536 357.851 139.889 357.851 137.565L360.177 135.241C357.854 125.946 360.177 116.652 360.177 109.68Z" fill="white"/>
<path d="M357.851 95.7377L355.525 93.4139C355.525 81.7953 348.558 77.1478 341.587 81.7953L334.614 86.4427C327.643 91.0902 320.67 102.709 320.67 114.327V118.975H318.349L316.023 121.299C316.023 121.299 316.026 123.622 318.349 121.299L355.525 100.385C357.849 98.0613 357.851 98.0614 357.851 95.7377Z" fill="#FEDE12"/>
<defs>
<linearGradient id="paint0_linear_1_11457" x1="319.235" y1="1.2228" x2="236.441" y2="82.8929" gradientUnits="userSpaceOnUse">
<stop offset="0.1232" stop-color="#F5AD65"/>
<stop offset="0.4877" stop-color="#AC5E27"/>
<stop offset="0.9261" stop-color="#5B2D0F"/>
</linearGradient>
</defs>
</svg>
