<svg width="23" height="22" viewBox="0 0 23 22" fill="none" xmlns="http://www.w3.org/2000/svg">
<path d="M20.9092 4.76207V7.88332H2.58044V4.76207C2.58044 3.8729 3.30003 3.15332 4.18461 3.15332H5.97211V4.16624C5.97211 4.89957 6.56336 5.49082 7.29211 5.49082H7.31961C8.04836 5.49082 8.64419 4.89957 8.64419 4.16624V3.15332H14.5017V4.16624C14.5017 4.89957 15.0975 5.49082 15.8263 5.49082H15.8538C16.5825 5.49082 17.1738 4.89957 17.1738 4.16624V3.15332H19.305C20.1896 3.15332 20.9092 3.8729 20.9092 4.76207Z" fill="#4DA2D3"/>
<path d="M8.18588 2.69501V4.16626C8.18588 4.64292 7.79629 5.03251 7.29213 5.03251C6.81546 5.03251 6.43046 4.64292 6.43046 4.16626V2.69501H5.51379V4.16626C5.51379 5.14709 6.31129 5.94917 7.31963 5.94917C8.30046 5.94917 9.10254 5.14709 9.10254 4.16626V2.69501H8.18588Z" fill="#363545"/>
<path d="M21.3676 7.42507V4.76206C21.3676 3.62077 20.4418 2.69498 19.3051 2.69498H17.6322V2.23665C17.6322 1.25581 16.8347 0.458313 15.8264 0.458313C14.8409 0.458313 14.0434 1.25581 14.0434 2.23665V2.69498H9.10261V2.23665C9.10261 1.25581 8.30053 0.458313 7.29219 0.458313C6.31136 0.458313 5.51386 1.25581 5.51386 2.23665V2.69498H4.18469C3.04803 2.69498 2.12219 3.62081 2.12219 4.76206V8.34165H2.12224V19.7956C2.12224 20.9329 3.04743 21.8581 4.18474 21.8581H19.3052C20.4426 21.8581 21.3677 20.9329 21.3677 19.7956V7.42507H21.3676ZM14.9601 2.69498V2.23665C14.9601 1.75998 15.3497 1.37498 15.8539 1.37498C16.3305 1.37498 16.7155 1.75998 16.7155 2.23665V2.69498V4.16623C16.7155 4.6429 16.3305 5.03248 15.8264 5.03248C15.3497 5.03248 14.9601 4.6429 14.9601 4.16623V2.69498ZM6.43053 2.69498V2.23665C6.43053 1.75998 6.81553 1.37498 7.31969 1.37498C7.79636 1.37498 8.18594 1.75998 8.18594 2.23665V2.69498V4.16623C8.18594 4.6429 7.79636 5.03248 7.29219 5.03248C6.81553 5.03248 6.43053 4.6429 6.43053 4.16623V2.69498ZM3.03886 4.76206C3.03886 4.12956 3.55219 3.61165 4.18469 3.61165H5.51386V4.16623C5.51386 5.14706 6.31136 5.94915 7.31969 5.94915C8.30053 5.94915 9.10261 5.14706 9.10261 4.16623V3.61165H14.0434V4.16623C14.0434 5.14706 14.8409 5.94915 15.8539 5.94915C16.8347 5.94915 17.6322 5.14706 17.6322 4.16623V3.61165H19.3051C19.9376 3.61165 20.4509 4.12956 20.4509 4.76206V7.42498H3.03886V4.76206ZM20.4511 19.7956C20.4511 20.4276 19.9372 20.9414 19.3052 20.9414H4.18474C3.55297 20.9414 3.0389 20.4276 3.0389 19.7956V8.34174H20.4511V19.7956Z" fill="#363545"/>
<path d="M9.90061 12.353C10.4566 12.353 10.9073 11.9023 10.9073 11.3463C10.9073 10.7904 10.4566 10.3397 9.90061 10.3397C9.34463 10.3397 8.89392 10.7904 8.89392 11.3463C8.89392 11.9023 9.34463 12.353 9.90061 12.353Z" fill="#363545"/>
<path d="M13.5888 12.353C14.1448 12.353 14.5955 11.9023 14.5955 11.3463C14.5955 10.7904 14.1448 10.3397 13.5888 10.3397C13.0329 10.3397 12.5822 10.7904 12.5822 11.3463C12.5822 11.9023 13.0329 12.353 13.5888 12.353Z" fill="#363545"/>
<path d="M17.2771 12.353C17.833 12.353 18.2838 11.9023 18.2838 11.3463C18.2838 10.7904 17.833 10.3397 17.2771 10.3397C16.7211 10.3397 16.2704 10.7904 16.2704 11.3463C16.2704 11.9023 16.7211 12.353 17.2771 12.353Z" fill="#363545"/>
<path d="M6.21249 15.5987C6.76847 15.5987 7.21917 15.148 7.21917 14.592C7.21917 14.036 6.76847 13.5853 6.21249 13.5853C5.65652 13.5853 5.20581 14.036 5.20581 14.592C5.20581 15.148 5.65652 15.5987 6.21249 15.5987Z" fill="#363545"/>
<path d="M9.90061 15.5987C10.4566 15.5987 10.9073 15.148 10.9073 14.592C10.9073 14.036 10.4566 13.5853 9.90061 13.5853C9.34463 13.5853 8.89392 14.036 8.89392 14.592C8.89392 15.148 9.34463 15.5987 9.90061 15.5987Z" fill="#363545"/>
<path d="M13.5888 15.5987C14.1448 15.5987 14.5955 15.148 14.5955 14.592C14.5955 14.036 14.1448 13.5853 13.5888 13.5853C13.0329 13.5853 12.5822 14.036 12.5822 14.592C12.5822 15.148 13.0329 15.5987 13.5888 15.5987Z" fill="#363545"/>
<path d="M17.2771 15.5987C17.833 15.5987 18.2838 15.148 18.2838 14.592C18.2838 14.036 17.833 13.5853 17.2771 13.5853C16.7211 13.5853 16.2704 14.036 16.2704 14.592C16.2704 15.148 16.7211 15.5987 17.2771 15.5987Z" fill="#363545"/>
<path d="M6.21249 18.8443C6.76847 18.8443 7.21917 18.3936 7.21917 17.8376C7.21917 17.2816 6.76847 16.8309 6.21249 16.8309C5.65652 16.8309 5.20581 17.2816 5.20581 17.8376C5.20581 18.3936 5.65652 18.8443 6.21249 18.8443Z" fill="#363545"/>
<path d="M9.90061 18.8443C10.4566 18.8443 10.9073 18.3936 10.9073 17.8376C10.9073 17.2816 10.4566 16.8309 9.90061 16.8309C9.34463 16.8309 8.89392 17.2816 8.89392 17.8376C8.89392 18.3936 9.34463 18.8443 9.90061 18.8443Z" fill="#363545"/>
<path d="M13.5888 18.8443C14.1448 18.8443 14.5955 18.3936 14.5955 17.8376C14.5955 17.2816 14.1448 16.8309 13.5888 16.8309C13.0329 16.8309 12.5822 17.2816 12.5822 17.8376C12.5822 18.3936 13.0329 18.8443 13.5888 18.8443Z" fill="#363545"/>
<path d="M17.2771 18.8443C17.833 18.8443 18.2838 18.3936 18.2838 17.8376C18.2838 17.2816 17.833 16.8309 17.2771 16.8309C16.7211 16.8309 16.2704 17.2816 16.2704 17.8376C16.2704 18.3936 16.7211 18.8443 17.2771 18.8443Z" fill="#363545"/>
</svg>
