<svg xmlns="http://www.w3.org/2000/svg" viewBox="0 0 16 20"><g id="Layer_2" data-name="Layer 2"><g id="Layer_1-2" data-name="Layer 1"><path fill="#0063A3" d="M9.33,19.82a.76.76,0,0,0,.08-1.06L8.71,18A8,8,0,0,0,16,10.14a7.91,7.91,0,0,0-2.81-6.21,1,1,0,0,0-1.4.11,1,1,0,0,0,.11,1.41,6,6,0,0,1-3,10.47l.6-.65a.75.75,0,0,0-1.1-1l-2,2.21a.7.7,0,0,0-.2.51.74.74,0,0,0,.18.48l2,2.29A.76.76,0,0,0,9.33,19.82Z"/><path fill="#0063A3" d="M4.1,14.56a6,6,0,0,1,3-10.48l-.6.65a.73.73,0,0,0-.2.51.75.75,0,0,0,1.3.51l2-2.21a.74.74,0,0,0,0-1L7.73.26A.76.76,0,0,0,6.67.18a.75.75,0,0,0-.08,1.06l.69.81A8,8,0,0,0,0,9.86V10a8,8,0,0,0,2.8,6.07A1,1,0,0,0,4.21,16,1,1,0,0,0,4.1,14.56Z"/></g></g></svg>

 