<?xml version="1.0" encoding="utf-8"?>
<!-- Generator: Adobe Illustrator 24.0.3, SVG Export Plug-In . SVG Version: 6.00 Build 0)  -->
<svg version="1.1" id="_x31__Electrical" xmlns="http://www.w3.org/2000/svg" xmlns:xlink="http://www.w3.org/1999/xlink" x="0px"
	 y="0px" viewBox="0 0 1800 3600" style="enable-background:new 0 0 1800 3600;" xml:space="preserve">
<style type="text/css">
	.st0{fill:#19426B;}
	.st1{fill:#7C92AA;}
</style>
<g id="Fills_1_">
	<path class="st0" d="M936.2,1252.4c7.6,0,13.7-3.5,13.7-7.7s-6.1-7.7-13.7-7.7c-7.6,0-13.7,3.5-13.7,7.7S928.6,1252.4,936.2,1252.4
		z"/>
	<path class="st0" d="M949.9,1262.8v-15.1c-2.1,3.3-7.5,5.6-13.7,5.6c-6.2,0-11.6-2.3-13.7-5.6v15.2c0,0,0,0.1,0,0.1
		c0.2,4.1,6.3,7.5,13.7,7.5C943.7,1270.6,949.9,1267.1,949.9,1262.8z"/>
	<path class="st0" d="M319.4,368.1c6.5,0,11.8-3,11.8-6.7v-12.9c-1.9,2.8-6.5,4.7-11.9,4.7s-9.9-1.9-11.9-4.7v13c0,0,0,0,0,0.1
		c0.2,3.6,5.4,6.5,11.8,6.5C319.3,368.1,319.3,368.1,319.4,368.1C319.3,368.1,319.3,368.1,319.4,368.1z"/>
	<path class="st0" d="M319.3,352.3c6.5,0,11.9-3,11.9-6.7s-5.3-6.7-11.9-6.7s-11.9,3-11.9,6.7S312.8,352.3,319.3,352.3z"/>
	<path class="st0" d="M434.3,2142c5.6,0,10.2-2.6,10.2-5.7c0-3.2-4.6-5.7-10.2-5.7c-5.6,0-10.2,2.6-10.2,5.7
		C424.1,2139.5,428.7,2142,434.3,2142z"/>
	<path class="st0" d="M444.6,2139.1c-1.8,2.3-5.7,4-10.2,4c-4.6,0-8.5-1.6-10.2-4v11.1c0,0,0,0,0,0.1c0.1,3.1,4.7,5.6,10.2,5.6
		c5.6,0,10.2-2.6,10.2-5.7V2139.1z"/>
	<path class="st0" d="M509.8,2102.1c-1.8,2.3-5.7,4-10.2,4c-4.6,0-8.5-1.6-10.2-4v11.1c0,0,0,0,0,0.1c0.1,3.1,4.7,5.6,10.2,5.6
		c5.6,0,10.2-2.6,10.2-5.7V2102.1z"/>
	<path class="st0" d="M499.5,2105.1c5.6,0,10.2-2.6,10.2-5.7c0-3.2-4.6-5.7-10.2-5.7c-5.6,0-10.2,2.6-10.2,5.7
		C489.3,2102.5,493.9,2105.1,499.5,2105.1z"/>
	<path class="st0" d="M493.6,872.4c5.6,0,10.2-2.6,10.2-5.7c0-3.2-4.6-5.7-10.2-5.7c-5.6,0-10.2,2.6-10.2,5.7
		C483.4,869.9,488,872.4,493.6,872.4z"/>
	<path class="st0" d="M503.9,880.5v-11c-1.8,2.3-5.7,4-10.2,4c-4.6,0-8.5-1.6-10.2-4v11.1c0,0,0,0,0,0.1c0.1,3.1,4.7,5.6,10.2,5.6
		C499.3,886.2,503.9,883.6,503.9,880.5z"/>
	<path class="st0" d="M558.8,835.5c5.6,0,10.2-2.6,10.2-5.7c0-3.2-4.6-5.7-10.2-5.7s-10.2,2.6-10.2,5.7
		C548.6,832.9,553.2,835.5,558.8,835.5z"/>
	<path class="st0" d="M569,843.5v-11c-1.8,2.3-5.7,4-10.2,4s-8.5-1.6-10.2-4v11.1c0,0,0,0,0,0.1c0.1,3.1,4.7,5.6,10.2,5.6
		C564.4,849.3,569,846.7,569,843.5z"/>
	<path class="st0" d="M1107.3,2078.2c-2.3,3.6-8.1,6.2-15,6.2c-6.9,0-12.7-2.6-15-6.2v16.7c0,0,0,0.1,0,0.1c0.2,4.6,6.9,8.3,15,8.3
		c8.2,0,15-3.8,15-8.5V2078.2z"/>
	<path class="st0" d="M1092.4,2083.4c8.2,0,15-3.8,15-8.5s-6.7-8.5-15-8.5c-8.3,0-15,3.8-15,8.5S1084.1,2083.4,1092.4,2083.4z"/>
	<path class="st0" d="M275.4,3038.8c-2.3,3.6-8.1,6.2-15,6.2c-6.9,0-12.7-2.6-15-6.2v16.7c0,0,0,0.1,0,0.1c0.2,4.6,6.9,8.3,15,8.3
		c8.2,0,15-3.8,15-8.5V3038.8z"/>
	<path class="st0" d="M260.4,3044c8.2,0,15-3.8,15-8.5s-6.7-8.5-15-8.5c-8.3,0-15,3.8-15,8.5S252.2,3044,260.4,3044z"/>
	<path class="st0" d="M201,587.6l51.2-29.5c2.4-1.4,5.2-1.8,7.9-1.1c2.7,0.7,5,2.4,6.4,4.8c2.9,5,1.3,11.4-3.7,14.3l-51.6,29.8
		l107.7,62.2V532L201,463.9L201,587.6z"/>
	<path class="st0" d="M265.6,562.3c-1.3-2.2-3.3-3.7-5.8-4.4c-2.4-0.6-5-0.3-7.2,1L-13.1,712.1c-4.5,2.6-6,8.5-3.4,13
		c1.2,2,3,3.5,5.2,4.2c0.1,0,0.2,0.1,0.3,0.3l409.7,236.2l3.3-1.9l0-1c0-0.2,0.1-0.4,0.2-0.4l14.3-8.3l-70.2-40.5l0,3.3
		c0,2.2-1.2,4.8-4.6,5c-0.1,0-0.1,0-0.2,0c-2.9,0-3.8-2.6-3.9-4l0-9.3L293.1,883v3.8c0,2.2-1.2,4.8-4.6,5c-0.1,0-0.1,0-0.2,0
		c-2.9,0-3.8-3.1-3.9-4.7v-9L11.6,720.7c-0.2-0.1-0.3-0.3-0.3-0.4s0.1-0.3,0.3-0.4l250.7-144.5C266.8,572.6,268.3,566.8,265.6,562.3
		z"/>
	<path class="st0" d="M299.8,798.7l-4.2,2.2C296.9,800.6,298.7,800,299.8,798.7z"/>
	<path class="st0" d="M644.7,930.8l-67.1-39c-5.2,2.2-11.5,3.5-18.4,3.6v16c17.5,0.2,31.6,8.5,31.6,18.7c0,10.3-14.4,18.7-32.1,18.7
		s-32.1-8.4-32.1-18.7c0-10.2,14.1-18.6,31.6-18.7v-16c-10.2-0.1-19.2-3-25-7.4L514,899.1c7.2,3.4,11.8,8.7,11.8,14.5
		c0,10.2-14.1,18.6-31.6,18.7v16c17.5,0.2,31.6,8.5,31.6,18.7c0,10.3-14.4,18.7-32.1,18.7c-17.7,0-32.1-8.4-32.1-18.7
		c0-10.2,14.1-18.6,31.6-18.7v-16c-9.9-0.1-18.8-2.8-24.5-7c0,0,0,0,0,0l-50.7,29.3c0,0,0,0,0,0l-14.3,8.3l92.8,53.6L644.7,930.8z"
		/>
	<path class="st0" d="M288.5,890.8c3.4-0.1,3.6-3.3,3.6-4v-83.5c0,0,0,0-0.1,0c-1.9,0.3-4.2-0.7-6.6-2.9l0,86.6
		C285.5,887.2,285.7,890.9,288.5,890.8z"/>
	<polygon class="st0" points="319.8,668.1 437.7,600 437.4,464.1 319.8,532 	"/>
	<path class="st0" d="M372.9,2337.8c5-2.9,11.4-1.1,14.3,3.9c2.9,5,1.1,11.4-3.9,14.3l-56,32.3l110.3,64.1l0-136.3l-117.6-67.9
		l0.6,119.8L372.9,2337.8z"/>
	<polygon class="st0" points="403.1,964.2 403.1,964.2 403.1,975.7 495.7,1029.1 495.8,1017.4 403.1,963.8 403.1,964.2 	"/>
	<path class="st0" d="M402.1,976l0-10.9l-22.4,12.7l117.7,67.9l177.4-102.2L582,889.6c-1,0.6-2.1,1.2-3.3,1.8l67.2,39.1c0,0,0,0,0,0
		c0.1,0,0.1,0.1,0.2,0.2c0,0,0,0,0,0c0,0,0,0,0,0c0,0.1,0.1,0.1,0.1,0.2c0,0,0,0,0,0l0.2,12.7c0,0.2-0.1,0.3-0.2,0.4l-149.7,86.4
		c0,0,0,0,0,0c-0.1,0-0.1,0.1-0.2,0.1h0c-0.1,0-0.2,0-0.2-0.1c0,0,0,0,0,0l-93.6-54C402.2,976.3,402.1,976.2,402.1,976z"/>
	<path class="st0" d="M300.7,796.6l-3.7-2.1c0,1.2-0.1,3.2-0.7,5l3.4-1.8C299.7,797.6,300.2,797.3,300.7,796.6z"/>
	<polygon class="st0" points="645.4,943.2 645.2,931.7 496.8,1017.4 496.7,1029.1 	"/>
	<path class="st0" d="M337.6,830.5C337.6,830.5,337.7,830.6,337.6,830.5C337.7,830.6,337.6,830.5,337.6,830.5z"/>
	<path class="st0" d="M341.9,921.1c3.4-0.1,3.6-3.3,3.6-4l0.1-84.5c-0.6,0.2-1.2,0.4-1.9,0.5c-0.1,0-2.3-0.1-4.9-1.7l0.1,86.7
		C338.8,918.1,339.1,921.2,341.9,921.1z"/>
	<path class="st0" d="M437.1,2286.1l148.4-85.7l-67.1-39c-5.2,2.2-11.5,3.5-18.4,3.6v16c17.5,0.2,31.6,8.5,31.6,18.7
		c0,10.3-14.4,18.7-32.1,18.7c-17.7,0-32.1-8.4-32.1-18.7c0-10.2,14.1-18.6,31.6-18.7v-16c-10.2-0.1-19.2-3-25-7.4l-19.3,11.2
		c7.2,3.4,11.8,8.7,11.8,14.5c0,10.2-14.1,18.6-31.6,18.7v16c17.5,0.2,31.6,8.5,31.6,18.7c0,10.3-14.4,18.7-32.1,18.7
		c-17.7,0-32.1-8.4-32.1-18.7c0-10.2,14.1-18.6,31.6-18.7v-16c-9.9-0.1-18.8-2.8-24.5-7c0,0,0,0,0,0l-65,37.6L437.1,2286.1z"/>
	<path class="st0" d="M462.5,967.1c0,9.8,14,17.7,31.1,17.7s31.1-8,31.1-17.7c0-9.7-13.7-17.6-30.6-17.7v17.7c0,0.3-0.2,0.5-0.5,0.5
		s-0.5-0.2-0.5-0.5v-17.7C476.2,949.5,462.5,957.4,462.5,967.1z"/>
	<path class="st0" d="M403.2,2236.7c0,9.8,14,17.7,31.1,17.7s31.1-8,31.1-17.7c0-9.7-13.7-17.6-30.6-17.7v17.7
		c0,0.3-0.2,0.5-0.5,0.5s-0.5-0.2-0.5-0.5v-17.7C416.9,2219.1,403.2,2227,403.2,2236.7z"/>
	<path class="st0" d="M499.6,2146.2L499.6,2146.2c-0.3,0-0.5-0.2-0.5-0.5l0-17.2c-16.9,0.1-30.6,8-30.6,17.7
		c0,9.7,14,17.7,31.1,17.7c0.1,0,0.2,0,0.2,0c6.9,0,13.2-1.3,18.4-3.5c0.1,0,0.1-0.1,0.2-0.1c7.4-3.2,12.2-8.4,12.3-14.1
		c0-3-1.3-6-3.9-8.6c-5.4-5.5-15.6-9-26.7-9.1l0,17.2C500.1,2146,499.8,2146.2,499.6,2146.2z"/>
	<path class="st0" d="M434.4,2183.2L434.4,2183.2c-0.3,0-0.5-0.2-0.5-0.5l0-17.2c-16.9,0.1-30.6,8-30.6,17.7
		c0,9.8,14,17.7,31.1,17.7s31.1-8,31.1-17.7c0-9.7-13.7-17.6-30.6-17.7l0,17.2C434.9,2182.9,434.7,2183.2,434.4,2183.2z"/>
	<path class="st0" d="M289,412C289,412,289,412,289,412c6.5,5.6,17.7,9.3,30.4,9.3c12.8,0,24-3.8,30.5-9.5c0,0,0,0,0,0
		c3.7-3.3,5.9-7.1,5.9-11.3c0-11.4-16.1-20.7-35.9-20.8v20.1c0,0.3-0.2,0.5-0.5,0.5s-0.5-0.2-0.5-0.5v-20.1
		c-19.9,0.2-35.9,9.4-35.9,20.8c0,4.2,2.1,8,5.8,11.3C288.8,411.8,288.9,411.9,289,412z"/>
	<path class="st0" d="M468.4,2199.7c0,9.8,14,17.7,31.1,17.7s31.1-8,31.1-17.7c0-9.7-13.7-17.6-30.6-17.7v17.7
		c0,0.3-0.2,0.5-0.5,0.5s-0.5-0.2-0.5-0.5V2182C482.1,2182.1,468.4,2190,468.4,2199.7z"/>
	<path class="st0" d="M727.9,1861.5c5-2.9,11.4-1.2,14.3,3.8c2.9,5,1.2,11.4-3.8,14.3l-51.9,30l107.7,62.2l0-136.1l-117.4-67.9
		l0.1,123.1L727.9,1861.5z"/>
	<path class="st0" d="M615.3,2213l-92.5-53.8c-1,0.6-2.1,1.2-3.3,1.8l67.2,39.1c0,0,0,0,0,0c0.1,0,0.1,0.1,0.2,0.2c0,0,0,0,0,0
		c0,0,0,0,0,0c0,0.1,0.1,0.1,0.1,0.2c0,0,0,0,0,0l0.2,12.7c0,0.2-0.1,0.3-0.2,0.4L437.2,2300c0,0,0,0,0,0c-0.1,0-0.1,0.1-0.2,0.1h0
		c-0.1,0-0.2,0-0.2-0.1c0,0,0,0,0,0l-93.6-54c-0.2-0.1-0.2-0.3-0.2-0.4l0-11.4l-22.5,13l117.8,68L615.3,2213z"/>
	<polygon class="st0" points="616,2349.7 615.5,2214 438.7,2316.1 438.6,2452.2 	"/>
	<path class="st0" d="M343.8,2233.6c0,0.1,0.1,0.1,0.1,0.2l0,11.5l92.6,53.4l0.1-11.7l-92.8-53.6
		C343.8,2233.5,343.8,2233.5,343.8,2233.6z"/>
	<polygon class="st0" points="586.1,2212.8 586,2201.3 437.6,2287 437.4,2298.7 	"/>
	<path class="st0" d="M249.7,2161.8c-0.2-0.1-0.2-0.3-0.2-0.4s0.1-0.3,0.2-0.4l488.2-282.1c4.5-2.6,6.1-8.4,3.5-12.9
		c-2.6-4.5-8.4-6.1-12.9-3.5l-503,290.5c-2.9,1.7-4.7,4.8-4.7,8.2c0,3.4,1.8,6.5,4.8,8.2l113.7,65.8l3.6-2.1l0-0.5
		c0-0.2,0.1-0.4,0.2-0.4l14.3-8.3L249.7,2161.8z"/>
	<path class="st0" d="M258,1171.5l-691.4-399.1c-0.2-0.1-0.2-0.3-0.2-0.4s0.1-0.3,0.2-0.4L139.5,441c0.2-0.1,0.3-0.1,0.5,0l60,34.3
		l0-12.3c0-0.1,0-0.2,0.1-0.2c0,0,0,0,0-0.1c0,0,0.1-0.1,0.1-0.1c0,0,0,0,0,0l7.8-4.5l-63.6-36.4c-2.9-1.7-6.6-1.7-9.5,0
		l-592.1,341.8c-2.9,1.7-4.7,4.9-4.7,8.2c0,3.6,2,6.6,5.4,8.1l695.9,402.3L258,1171.5z"/>
	<path class="st0" d="M75.3,1281.9c1.4-2.4,3.7-4.2,6.4-4.9s5.5-0.4,8,1l11.8,6.8l339.3-195.6c2.2-1.3,3.8-3.3,4.4-5.8
		s0.3-5-0.9-7.2c-2.6-4.5-8.4-6.1-12.9-3.5l-171.9,99.1c0,0,0,0,0,0l-19.6,11.3c0,0,0,0,0,0l-698.3,402.4c-2.9,1.7-4.7,4.8-4.7,8.2
		c0,3.4,1.8,6.5,4.7,8.2l412.2,238.1l19-10.9l-406.7-235c-0.2-0.1-0.2-0.3-0.2-0.4s0.1-0.3,0.3-0.4l514.5-296.5l-1.3-0.7
		C74.1,1293.3,72.4,1286.9,75.3,1281.9z"/>
	<polygon class="st0" points="795.2,1971.9 830.7,1951.3 830.7,1815.2 795.1,1835.8 	"/>
	<path class="st0" d="M282.9,462.8c0,11.5,16.3,20.8,36.4,20.8s36.4-9.3,36.4-20.8c0-11.4-16.1-20.7-35.9-20.8v21.3
		c0,0.3-0.2,0.5-0.5,0.5s-0.5-0.2-0.5-0.5V442C299,442.1,282.9,451.4,282.9,462.8z"/>
	<path class="st0" d="M319.3,531.1l117.8-68l-87-50.2c-6.7,5.7-17.8,9.4-30.4,9.5V441c20.4,0.2,36.9,9.9,36.9,21.8
		c0,12-16.8,21.8-37.4,21.8c-20.6,0-37.4-9.8-37.4-21.8c0-11.9,16.5-21.7,36.9-21.8v-18.7c-12.6-0.1-23.7-3.8-30.3-9.5L201.5,463
		L319.3,531.1z"/>
	<path class="st0" d="M370.7,1441.7v7.2c0,0.1-0.1,2-1.3,3c-0.5,0.5-1.2,0.7-2,0.7c-0.1,0-0.2,0-0.2,0c-2.6-0.2-3.3-2.3-3.4-3.4
		l0-11.5l-46.5-26.9c0,4.8,0,8.2,0,8.2c0,0,0,1.2-0.9,2c-0.6,0.5-1.3,0.8-2.3,0.8c-0.1,0-0.2,0-0.3,0c-1.2-0.1-2.1-0.4-2.6-1.1
		c-0.7-0.8-0.6-1.7-0.6-1.7l0-12.1L89.1,1278.9c-2.2-1.3-4.7-1.6-7.2-0.9c-2.4,0.7-4.5,2.2-5.8,4.4c-2.6,4.5-1.1,10.3,3.5,12.9
		l517.1,299l18.9-10.9L370.7,1441.7z"/>
	<path class="st0" d="M550.6,1625.8c1.4-2.4,3.7-4.2,6.4-4.9c2.7-0.7,5.5-0.4,8,1l11.9,7l312-180.4c2.2-1.3,3.7-3.3,4.4-5.8
		c0.6-2.4,0.3-5-1-7.2c-1.3-2.2-3.3-3.7-5.8-4.4c-2.4-0.6-5-0.3-7.2,1l-145.5,84.1l0,11.7c0,0,0.1,0.9-0.6,1.7
		c-0.6,0.7-1.4,1-2.6,1.1c-0.1,0-0.2,0-0.3,0c-1,0-1.7-0.3-2.3-0.8c-0.9-0.8-0.9-2-0.9-2c0,0,0-3.2,0-7.7l-46.5,26.9l0,11
		c-0.1,1.1-0.8,3.3-3.4,3.4c-0.1,0-0.2,0-0.2,0c-0.8,0-1.4-0.2-2-0.7c-1.2-1.1-1.3-2.9-1.3-3l0-6.7L251,1795.4l9.2,5.3c0,0,0,0,0,0
		c0.1,0,0.1,0.1,0.2,0.2c0,0.1,0.1,0.1,0.1,0.2c0,0,0,0,0,0l0,10.7L556,1641l-1.5-0.9C549.4,1637.2,547.7,1630.8,550.6,1625.8z"/>
	<polygon class="st0" points="830.2,1814.4 711.5,1746.8 676.9,1766.8 794.7,1834.9 	"/>
	<path class="st0" d="M1000,1716.3l-118.3-67.8l-136.7,78.9c0,0.1,0,0.1-0.1,0.2c-0.1,0.2-0.4,0.3-0.6,0.2l-19.2,11.1
		c0,0,0,0.1,0,0.1c-0.1,0.2-0.3,0.2-0.4,0.2c0,0-0.1,0-0.1,0l-12.2,7.1l118.7,67.6L1000,1716.3z"/>
	<path class="st0" d="M743.4,1727.3l-179-104.5c-2.2-1.3-4.7-1.6-7.2-0.9c-2.4,0.7-4.5,2.2-5.7,4.4c-2.6,4.5-1,10.3,3.5,12.9
		l169.7,98.8L743.4,1727.3z"/>
	<path class="st0" d="M379.9,1101.2l50.8-29.3c5-2.9,11.4-1.2,14.3,3.8c1.4,2.4,1.8,5.2,1,7.9s-2.5,5-4.9,6.4l-52.3,30.1l108.2,62.5
		l0-136.1l-117.7-67.9v24.2L379.9,1101.2z"/>
	<polygon class="st0" points="177.7,1953 211.2,1933.7 211.2,1883.9 177.7,1903.3 	"/>
	<polygon class="st0" points="71.8,2014.1 160.6,1962.9 160.6,1913.2 71.8,1964.4 	"/>
	<path class="st0" d="M228.6,1819.8l-169.2,97.7v136.1l169.2-97.7V1819.8z M161.6,1963.2c0,0.2-0.1,0.3-0.2,0.4l-89.8,51.8
		c-0.1,0-0.2,0.1-0.2,0.1s-0.2,0-0.2-0.1c-0.2-0.1-0.2-0.3-0.2-0.4v-50.9c0-0.2,0.1-0.3,0.2-0.4l89.8-51.8c0.2-0.1,0.3-0.1,0.5,0
		c0.2,0.1,0.2,0.3,0.2,0.4V1963.2z M212.2,1933.9c0,0.2-0.1,0.3-0.2,0.4l-34.5,19.9c-0.1,0-0.2,0.1-0.2,0.1s-0.2,0-0.2-0.1
		c-0.2-0.1-0.2-0.3-0.2-0.4V1903c0-0.2,0.1-0.3,0.2-0.4l34.5-19.9c0.2-0.1,0.3-0.1,0.5,0c0.2,0.1,0.2,0.3,0.2,0.4V1933.9z"/>
	<path class="st0" d="M524.7,913.6c0-9.7-13.7-17.6-30.6-17.7l0,17.2c0,0.3-0.2,0.5-0.5,0.5h0c-0.3,0-0.5-0.2-0.5-0.5l0-17.2
		c-16.9,0.1-30.6,8-30.6,17.7c0,9.8,14,17.7,31.1,17.7S524.7,923.4,524.7,913.6z"/>
	<path class="st0" d="M259.4,1813c-0.1-0.1-0.1-0.3,0-0.4l0-10.6l-29.8,17.2v136.1l29.7-17.2L259.4,1813z"/>
	<path class="st0" d="M1263.7,1632.6l3.3-1.7c0,0,1.4-0.9,1.8-3c-1.2,0-2.7-0.2-4.5-0.8C1264.5,1628.3,1264.6,1630.6,1263.7,1632.6z
		"/>
	<path class="st0" d="M1207.1,1605.1c1.1-0.2,2-0.8,2.6-1.5c0-0.2,0.1-0.4,0.3-0.5l0.1-0.1c1.6-2.6,1.2-6.6,1.2-6.7
		c0-0.2,0.1-0.4,0.2-0.5c0.1-0.1,0.2-0.1,0.3-0.1c0.1,0,0.2,0,0.3,0.1l34.8,20.4c0.1,0.1,0.2,0.2,0.2,0.4c0.4,9.4,3.6,13.9,6.6,16.1
		c0.1,0,0.2,0.1,0.2,0.2c2.5,1.8,4.8,1.9,5,1.9c1.6-0.2,2.8-0.8,3.6-1.9c1.8-2.5,0.8-6.5,0.8-6.6c0-0.2,0-0.4,0.2-0.5
		c0.1-0.1,0.3-0.2,0.5-0.1c4.6,1.9,7.3,0.6,7.4,0.6c4.2-2.3,3.7-8.6,3.7-8.7l-0.2-35.2c-2.7-12.4-10.7-17.4-10.8-17.5l-69.2-40
		c0,0-3.5-2.1-7.3-1c-3.7,1.1-4,6.3-4,6.5c0,0.4-0.7,24-0.2,35.8c0.5,11.6,11.2,19.5,11.3,19.6c0.2,0.1,0.2,0.3,0.2,0.5
		c-1.1,5.3,2,11.6,5.5,15.3C1202.7,1604.1,1205.2,1605.4,1207.1,1605.1z"/>
	<path class="st0" d="M1264.6,1564.1c0.4,0.2,8.4,5.3,11.2,18.2c0,0,0,0.1,0,0.1l0.2,35.3c0,0.2,0.3,3.8-1.4,6.7l3.5-2
		c0.1-0.1,3.1-2.6,2.8-8l-0.1-35c0-0.1-0.4-10.9-12.5-18.9l-68.2-39.3c0,0-2.3-1.3-5-1c0,0,0,0,0,0c0,0-2.3,0.7-5.2,2.4
		c3.1,0,5.4,1.4,5.5,1.5L1264.6,1564.1z"/>
	<path class="st0" d="M971,1319.5C971,1319.5,971,1319.5,971,1319.5c3.7-3.5,5.9-7.7,5.9-12.1c0-12.9-18.2-23.4-40.7-23.5v25.3
		c0,0.3-0.2,0.5-0.5,0.5s-0.5-0.2-0.5-0.5v-25.3c-22.2,0.2-40.2,10.7-40.2,23.5c0,13,18.4,23.5,41,23.5
		C950.8,1330.9,963.9,1326.3,971,1319.5z"/>
	<polygon class="st0" points="58.4,1918.1 22.7,1938.7 22.7,2074.8 58.4,2054.2 	"/>
	<path class="st0" d="M1365,1780.1l170.3-98.4l-118.9-67.4c0,0,0,0,0,0l-135.7,78.4c0,0,0,0,0,0l-33.5,19.4L1365,1780.1z"/>
	<polygon class="st0" points="1062,1441.6 1062,1441.5 1043.5,1452.3 	"/>
	<path class="st0" d="M354.7,825c0.6-0.1,1.1-0.2,1.3-0.3C355.7,824.8,355.2,824.9,354.7,825C354.7,825,354.7,825,354.7,825z"/>
	<polygon class="st0" points="229.1,1818.4 258.9,1801.2 249.7,1795.9 249.7,1795.9 141.1,1733.1 110.6,1750.7 	"/>
	<path class="st0" d="M1260.7,1686l0.1-50.6c-0.6,0.2-1.2,0.4-1.9,0.5c-0.1,0-2.3-0.1-4.9-1.7l0.1,52.8c0,0.1,0.3,3.1,3,3
		C1260.5,1689.8,1260.7,1686.6,1260.7,1686z"/>
	<path class="st0" d="M-95.4,1993.8l52.4-30.2c2.4-1.4,5.2-1.8,7.9-1.1c2.7,0.7,5,2.4,6.4,4.8c1.4,2.4,1.8,5.2,1.1,7.9
		c-0.7,2.7-2.4,5-4.8,6.4l-53.6,30.9l107.7,62.2v-136.1l-117.6-67.9v32.9L-95.4,1993.8z"/>
	<path class="st0" d="M936.2,1371.6c0,0.3-0.2,0.5-0.5,0.5s-0.5-0.2-0.5-0.5v-23.7c-22.5,0.1-40.7,10.6-40.7,23.5
		c0,13,18.4,23.5,41,23.5s41-10.5,41-23.5c0-12.8-18-23.3-40.2-23.5V1371.6z"/>
	<path class="st0" d="M971.4,1320.5c-7.4,6.8-20.4,11.3-35.2,11.4v15c22.8,0.2,41.2,11.1,41.2,24.5c0,13.5-18.8,24.5-42,24.5
		s-42-11-42-24.5c0-13.5,18.7-24.4,41.7-24.5v-15c-11.2-0.1-21.3-2.8-28.7-7.1l-82.3,46.8l118.3,68.4l118.5-67.6l-13.4-7.8
		L971.4,1320.5z"/>
	<path class="st0" d="M279.8,717.5c0,0-0.1,0-0.4,0.1c-0.8,0.3-2.6,1-4.7,2.3c3.1,0,5.4,1.4,5.5,1.5l69.2,40
		c0.4,0.2,8.4,5.3,11.2,18.2c0,0,0,0.1,0,0.1l0.2,35.3c0,0.2,0.3,3.8-1.4,6.7l3.5-2c0.1-0.1,3.1-2.6,2.8-8l-0.1-35
		c0-0.1-0.4-10.9-12.5-18.9l-68.2-39.3C284.3,718.1,282.2,717.2,279.8,717.5z"/>
	<polygon class="st0" points="-59.7,1849 58.9,1916.7 228.1,1819 109.6,1751.3 -25.9,1829.6 -25.9,1829.5 -26.2,1829.7 
		-26.2,1829.7 -45.9,1841.1 -45.9,1841.1 	"/>
	<path class="st0" d="M272.5,721.2c-0.1,0-0.1,0-0.2,0c-3.6,1.2-3.9,6.3-3.9,6.4c0,0.4-0.7,24-0.2,35.8
		c0.5,11.6,11.2,19.5,11.3,19.6c0.2,0.1,0.2,0.3,0.2,0.5c-1.1,5.3,2,11.6,5.5,15.3c2.4,2.5,4.9,3.8,6.7,3.5c1.1-0.2,2-0.8,2.6-1.5
		c0-0.2,0.1-0.4,0.3-0.5l0.1-0.1c1.6-2.6,1.2-6.6,1.2-6.7c0-0.2,0.1-0.4,0.2-0.5c0.1-0.1,0.2-0.1,0.3-0.1c0.1,0,0.2,0,0.3,0.1
		l34.8,20.4c0.1,0.1,0.2,0.2,0.2,0.4c0.4,9.4,3.6,13.9,6.6,16.1c0.1,0,0.2,0.1,0.2,0.2c2.5,1.8,4.8,1.9,5,1.9
		c1.6-0.2,2.8-0.8,3.6-1.9c1.8-2.5,0.8-6.5,0.8-6.6c0-0.2,0-0.4,0.2-0.5c0.1-0.1,0.3-0.2,0.5-0.1c4.6,1.9,7.3,0.6,7.4,0.6
		c4.2-2.3,3.7-8.6,3.7-8.7l-0.2-35.2c-2.7-12.4-10.7-17.4-10.8-17.5l-69.2-40C279.6,722.1,276.3,720.1,272.5,721.2
		C272.5,721.2,272.5,721.2,272.5,721.2L272.5,721.2z"/>
	<path class="st0" d="M353.6,825.1c-1.2,0-2.7-0.2-4.5-0.8c0.2,1.2,0.3,3.6-0.6,5.5l3.3-1.7C351.9,828,353.2,827.1,353.6,825.1z"/>
	<path class="st0" d="M679.5,1558l0-40.2c0-0.1-0.2-2.5,0.9-3.7c0.8-0.8,3.7-5.5,5.1-7.8c0,0,1.9-3.3,1.5-7.6
		c-0.4-3.9-5.8-4.6-6.3-4.6c-0.2,0-0.6,0-0.9-0.3c-0.4-0.3-0.6-0.9-0.6-1.6v-11.2c-0.8,0.1-1.5,0.2-2.2,0.2c-0.9,0-1.8-0.1-2.6-0.3
		v14.8c0,0.1-0.1,1.5,0.6,2.3c0.3,0.3,0.7,0.5,1.2,0.6c2.5,0.2,3.3,0.3,3.3,0.3c1,0,2.9,0.2,3,1.7c0.1,1.4-1.6,4.5-1.8,4.9l-4.2,6.4
		c0,0,0,0.1-0.1,0.1c0,0-1.6,1.6-1.6,4.2l0,41.8c0,0,0.1,1.5,0.9,2.3c0.4,0.3,0.9,0.5,1.5,0.5C679.3,1560.4,679.5,1558.1,679.5,1558
		z"/>
	<path class="st0" d="M324,1300.6l35.9,20.2c5.3,3.3,10.4,9.1,14.1,15.9c5.2,9.4,7,19.7,4.8,26.9c-0.5,1.5-1.1,2.9-1.9,4l6.9-4
		c6.8-4.8,6.5-19.1-0.6-32.2c-3.6-6.6-8.6-12.3-13.7-15.5l-35.9-20.2c-5.7-3.2-10.4-4.3-13.7-3.1c-0.5,0.2-0.9,0.4-1.3,0.6
		c-0.2,0.1-0.5,0.3-0.7,0.5c-0.1,0-0.1,0.1-0.2,0.1l-5.4,3.2C315.4,1296.8,319.3,1298,324,1300.6z"/>
	<path class="st0" d="M370,1372c-0.9,0.2-1.7,0.3-2.6,0.3c-0.7,0-1.5-0.1-2.2-0.2v11.2c0,0.7-0.2,1.3-0.6,1.6
		c-0.4,0.3-0.8,0.3-0.9,0.3c-0.5,0.1-6,0.7-6.3,4.6c-0.4,4.3,1.5,7.6,1.5,7.6c1.4,2.3,4.4,7,5.1,7.8c1.1,1.2,0.9,3.7,0.9,3.8l0,40.2
		c0,0.1,0.2,2.3,2.5,2.4c0.6,0,1.1-0.1,1.5-0.5c0.9-0.8,0.9-2.3,0.9-2.3v-41.8c0-2.5-1.6-4.2-1.6-4.2c0,0,0-0.1-0.1-0.1l-4.2-6.4
		c-0.2-0.4-1.9-3.5-1.8-4.9c0.1-1.4,2-1.7,3.1-1.7c0,0,0.8-0.1,3.2-0.3c0.5,0,0.9-0.2,1.2-0.6c0.7-0.8,0.6-2.3,0.6-2.3L370,1372z"/>
	<path class="st0" d="M728.3,1452.9v10.3c0,0.1,0,0.8-0.5,1.5c0,0.1-0.1,0.2-0.3,0.3c-4.6,5.1-6.4,9.5-7.2,12.3
		c-0.4,1.7-0.3,3.2,0.5,4.5c1.7,2.9,5.8,3.9,5.8,3.9c0.1,0,1.3,0.6,1.3,2c0,1.1,0.1,40.2,0.1,40.2c0,0,0,0.8,0.6,1.3
		c0.4,0.4,1,0.6,1.9,0.5c0.9-0.1,1.6-0.3,1.9-0.7c0.4-0.5,0.3-1,0.3-1l0-44.4c0-0.2-0.1-1.6-1.5-1.8c-2-0.3-4.9-1.5-5-1.6
		c-0.1-0.1-0.9-0.5-1.1-1.4c-0.3-0.9,0-1.9,0.6-3c1.6-2.8,6.6-9,6.8-9.2c0,0,0.6-0.8,0.6-2.6c0-1.7-0.1-12.4-0.1-16.3
		C731.5,1449.6,729.9,1451.4,728.3,1452.9z"/>
	<path class="st0" d="M670.3,1445.5c3.7-6.8,8.8-12.5,14.1-15.9l35.9-20.2c4.7-2.6,8.6-3.9,11.9-3.7l-5.4-3.2c-0.1,0-0.1,0-0.2-0.1
		c-0.2-0.2-0.5-0.3-0.7-0.5c-0.4-0.2-0.9-0.5-1.3-0.6c-3.4-1.2-8-0.1-13.7,3.1l-35.9,20.2c-5.1,3.2-10.1,8.9-13.7,15.5
		c-7.2,13.1-7.4,27.4-0.6,32.2l6.9,4c-0.8-1.1-1.5-2.5-1.9-4C663.3,1465.2,665.2,1454.9,670.3,1445.5z"/>
	<path class="st0" d="M686.3,1477.3c2.3-1.4,35.6-20.8,35.9-21c5.4-3.2,10.5-8.8,14.2-15.6c7.6-13.8,7.3-28.2-0.5-32.9
		c-1.2-0.7-2.6-1.1-4.3-1.1c-3,0-6.6,1.2-10.8,3.5l-35.9,20.2c-5.1,3.2-10.1,8.9-13.7,15.5c-5,9.2-6.8,19.2-4.7,26.1
		c1,3.2,2.8,5.5,5.2,6.8C675.7,1480.9,680.8,1480.3,686.3,1477.3z"/>
	<path class="st0" d="M527.7,930.1c0,9.8,14,17.7,31.1,17.7s31.1-8,31.1-17.7c0-9.7-13.7-17.6-30.6-17.7v17.7c0,0.3-0.2,0.5-0.5,0.5
		s-0.5-0.2-0.5-0.5v-17.7C541.4,912.5,527.7,920.4,527.7,930.1z"/>
	<path class="st0" d="M577.4,890.9c0.1-0.1,0.1-0.1,0.2-0.1c1.5-0.7,2.9-1.4,4.1-2.2c0,0,0,0,0,0c5-3.2,8.1-7.3,8.1-11.9
		c0-3-1.3-6-3.9-8.6c-5.4-5.5-15.6-9-26.7-9.1l0,17.2c0,0.3-0.2,0.5-0.5,0.5h0c-0.3,0-0.5-0.2-0.5-0.5l0-17.2
		c-16.9,0.1-30.6,8-30.6,17.7c0,9.7,14,17.7,31.1,17.7C565.7,894.5,572.2,893.2,577.4,890.9z"/>
	<path class="st0" d="M1214.9,1600.4c0,0,0.5-0.3,1-1.1l-3.7-2.1c0,1.2-0.1,3.2-0.7,5L1214.9,1600.4z"/>
	<polygon class="st0" points="498.1,1182.7 675.3,1080.4 675.3,944.3 498.1,1046.5 	"/>
	<path class="st0" d="M322.2,1347.5c0.2,0.1,19.1,11.2,29.2,17.1l6.7,3.9c5.4,3,10.6,3.5,14.6,1.5c2.4-1.2,4.2-3.6,5.2-6.8
		c2.1-6.9,0.3-16.9-4.7-26.1c-3.6-6.6-8.6-12.3-13.8-15.5l-35.9-20.2c-4.2-2.4-7.8-3.5-10.8-3.5c-1.6,0-3.1,0.4-4.3,1.1
		c-7.8,4.7-8.1,19.1-0.5,32.9C311.7,1338.7,316.7,1344.3,322.2,1347.5z"/>
	<path class="st0" d="M311.9,1420.2c0.4,0.4,1,0.7,1.9,0.7c0.8,0,1.4-0.1,1.9-0.5c0.6-0.5,0.6-1.3,0.6-1.3c0,0,0.1-39.1,0.1-40.2
		c0-1.4,1.2-2,1.2-2c0.1,0,4.2-1.1,5.9-3.9c0.8-1.3,0.9-2.8,0.5-4.5c-0.7-2.8-2.6-7.2-7.2-12.3c-0.1-0.1-0.2-0.2-0.3-0.3
		c-0.5-0.7-0.5-1.4-0.5-1.5l0-10.3c-1.7-1.6-3.3-3.3-4.8-5.3c0,4-0.1,14.7-0.1,16.3c0,1.8,0.6,2.6,0.6,2.6c0.2,0.3,5.2,6.4,6.8,9.2
		c0.7,1.1,0.9,2.2,0.6,3c-0.3,1-1,1.4-1.1,1.4c-0.2,0.1-3.1,1.2-5,1.6c-1.5,0.3-1.5,1.7-1.5,1.8l0,44.3
		C311.6,1419.2,311.5,1419.7,311.9,1420.2z"/>
	<path class="st0" d="M1001.9,1852.5l30-17.3v-125.9c0-0.1,0-0.2,0-0.2v-9.9l-30.3,17.5L1001.9,1852.5z"/>
	<path class="st0" d="M878.8,1431.3c2.4-1.4,5.2-1.8,7.9-1.1c2.7,0.7,5,2.4,6.4,4.8c1.4,2.4,1.8,5.2,1.1,7.9c-0.7,2.7-2.4,5-4.8,6.4
		l-24.9,14.4l78.3,44.9l-0.7-67.8l-118.3-68.4l0,67.5l19.7,11.7L878.8,1431.3z"/>
	<path class="st0" d="M1207.3,1655.3v-49.2c0,0,0,0-0.1,0c-1.9,0.3-4.2-0.7-6.6-2.9l0,52.3c0,0.1,0.3,3.9,3,3.7
		C1207.1,1659.1,1207.3,1655.9,1207.3,1655.3z"/>
	<path class="st0" d="M1032.6,1697.8c0.1,0,0.1,0.1,0.2,0.2c0,0.1,0.1,0.1,0.1,0.2c0,0,0,0,0,0v10l116.6-70.5c0.2-0.1,0.4-0.1,0.5,0
		l110.7,65.5l18.8-10.9l-17.8-10.5l0,4.2c0,2.2-1.2,4.8-4.6,5c-0.1,0-0.1,0-0.2,0c-2.9,0-3.8-2.6-3.9-4l0-10.3l-44.7-26.4v5.1
		c0,2.2-1.2,4.8-4.6,5c-0.1,0-0.1,0-0.2,0c-2.9,0-3.8-3.1-3.9-4.7v-10.5l-44.5-26.3c-2.9-1.7-6.5-1.7-9.5,0l-122.9,73.4
		L1032.6,1697.8C1032.6,1697.8,1032.6,1697.8,1032.6,1697.8z"/>
	<polygon class="st0" points="983.5,1781.2 950,1800.6 950,1850.3 983.5,1830.9 	"/>
	<polygon class="st0" points="1031.4,1698.2 913.5,1630.2 882.8,1647.9 1001,1715.7 	"/>
	<path class="st0" d="M1061.5,1440.7l0.1-67.5L943,1440.9l0.7,67.8L1061.5,1440.7z M964.2,1440.5c0-0.2,0.1-0.3,0.2-0.4l74.3-42.9
		c0.2-0.1,0.3-0.1,0.5,0c0.2,0.1,0.2,0.3,0.2,0.4v40.8c0,0.2-0.1,0.3-0.2,0.4l-74.3,42.9c-0.1,0-0.2,0.1-0.2,0.1s-0.2,0-0.2-0.1
		c-0.2-0.1-0.2-0.3-0.2-0.4V1440.5z"/>
	<polygon class="st0" points="932.8,1810.5 844.1,1861.7 844.1,1911.4 932.8,1860.2 	"/>
	<polygon class="st0" points="1038.5,1398.4 965.2,1440.7 965.2,1480.4 1038.5,1438.1 	"/>
	<path class="st0" d="M831.7,1950.8l169.2-97.7l-0.3-135.9l-168.9,97.5V1950.8z M949,1800.3c0-0.2,0.1-0.3,0.2-0.4l34.5-19.9
		c0.2-0.1,0.3-0.1,0.5,0c0.2,0.1,0.2,0.3,0.2,0.4v50.9c0,0.2-0.1,0.3-0.2,0.4l-34.5,19.9c-0.1,0-0.2,0.1-0.2,0.1s-0.2,0-0.2-0.1
		c-0.2-0.1-0.2-0.3-0.2-0.4V1800.3z M843.1,1861.4c0-0.2,0.1-0.3,0.2-0.4l89.8-51.8c0.2-0.1,0.3-0.1,0.5,0c0.2,0.1,0.2,0.3,0.2,0.4
		v50.9c0,0.2-0.1,0.3-0.2,0.4l-89.8,51.8c-0.1,0-0.2,0.1-0.2,0.1s-0.2,0-0.2-0.1c-0.2-0.1-0.2-0.3-0.2-0.4V1861.4z"/>
	<polygon class="st0" points="22.2,1937.8 57.9,1917.2 -60.7,1849.6 -95.6,1869.8 	"/>
	<polygon class="st0" points="356.7,3200.4 283.4,3242.7 283.4,3282.4 356.7,3239.6 	"/>
	<path class="st0" d="M209.8,3133.3L-377,2794.6c-0.2-0.1-0.2-0.3-0.2-0.4s0.1-0.3,0.2-0.4l399.1-230.4c2.2-1.3,3.8-3.3,4.5-5.7
		s0.3-5-0.9-7.2c-2.6-4.5-8.4-6.1-12.9-3.5l-414.2,239c-2.9,1.7-4.8,4.8-4.8,8.2c0,3.4,1.8,6.5,4.7,8.2l592.3,341.9L209.8,3133.3z"
		/>
	<polygon class="st0" points="141.6,3174.4 141.5,3241.9 259.4,3309.9 259.4,3242.5 	"/>
	<path class="st0" d="M232.2,2813.9l169.2,97.6l0.4-135.8l-169.3-97.8L232.2,2813.9z M299.3,2770.3c0-0.2,0.1-0.3,0.2-0.4
		c0.2-0.1,0.3-0.1,0.5,0l89.8,51.8c0.2,0.1,0.2,0.3,0.2,0.4v50.9c0,0.2-0.1,0.3-0.2,0.4c-0.1,0-0.2,0.1-0.2,0.1s-0.2,0-0.2-0.1
		l-89.8-51.8c-0.2-0.1-0.2-0.3-0.2-0.4V2770.3z M248.6,2741c0-0.2,0.1-0.3,0.2-0.4c0.2-0.1,0.3-0.1,0.5,0l34.5,19.9
		c0.2,0.1,0.2,0.3,0.2,0.4v50.9c0,0.2-0.1,0.3-0.2,0.4c-0.1,0-0.2,0.1-0.2,0.1s-0.2,0-0.2-0.1l-34.5-19.9c-0.2-0.1-0.2-0.3-0.2-0.4
		V2741z"/>
	<polygon class="st0" points="319.3,2590.9 211.3,2653.3 211.3,2653.3 201.5,2658.9 231.9,2676.5 350.2,2608.7 	"/>
	<path class="st0" d="M438.7,2932.5l108.1-62.4l-52.1-29.3c-5-2.9-6.8-9.3-3.9-14.3c1.4-2.4,3.6-4.2,6.3-4.9c2.7-0.7,5.5-0.4,8,1
		l51.1,28.8l0.3-122.9l-117.8,68V2932.5z"/>
	<path class="st0" d="M497.4,2822.5c-2.4,0.7-4.5,2.2-5.7,4.4c-2.6,4.5-1,10.3,3.5,12.9l165.4,93.1c0.2,0.1,0.3,0.3,0.3,0.4
		c0,0.2-0.1,0.3-0.2,0.4l-223.2,128.9c0,0,0,0-0.1,0l0,7.7c0,0,0.1,0.8-0.5,1.5c-0.5,0.6-1.3,0.9-2.3,1c-0.1,0-0.2,0-0.3,0
		c-0.8,0-1.5-0.2-2-0.7c-0.8-0.7-0.8-1.7-0.8-1.8c0,0,0-1.6,0-4.3l-52,30l0,7.6c0,1-0.7,2.8-2.9,2.9c-0.1,0-0.1,0-0.2,0
		c-0.7,0-1.2-0.2-1.7-0.6c-1-0.9-1.1-2.5-1.1-2.5l0-4l-61.2,35.3l19,10.9l353.6-204.1c2.9-1.7,4.7-4.8,4.7-8.2
		c0-3.4-1.8-6.5-4.8-8.2l-180.4-101.7C502.4,2822.1,499.9,2821.8,497.4,2822.5z"/>
	<polygon class="st0" points="283.1,2761.2 249.6,2741.9 249.6,2791.6 283.1,2811 	"/>
	<path class="st0" d="M260.4,3130.7v16.5c24.8,0.2,44.9,12.1,44.9,26.7c0,14.7-20.5,26.7-45.6,26.7c-25.2,0-45.6-12-45.6-26.7
		c0-14.7,20.3-26.6,45.4-26.7v-16.5c-11.8-0.1-22.5-2.8-30.5-7.3l-86.9,50.2l117.8,68l117.8-68l-86.6-50
		C283.1,3127.9,272.3,3130.6,260.4,3130.7z"/>
	<polygon class="st0" points="438.2,2795.6 556,2727.5 521.5,2707.6 403.2,2775.4 	"/>
	<path class="st0" d="M260.4,3309.9l117.8-68v-67.5l-117.8,68L260.4,3309.9z M282.4,3242.4c0-0.2,0.1-0.3,0.2-0.4l74.3-42.9
		c0.2-0.1,0.3-0.1,0.5,0c0.2,0.1,0.2,0.3,0.2,0.4v40.4c0,0.2-0.1,0.3-0.2,0.4l-74.3,43.4c-0.1,0-0.2,0.1-0.3,0.1
		c-0.1,0-0.2,0-0.2-0.1c-0.2-0.1-0.3-0.3-0.3-0.4V3242.4z"/>
	<path class="st0" d="M435.1,3024.9c-1.7-0.3-4.1-1.3-4.2-1.3c-0.1-0.1-0.8-0.4-1-1.2c-0.2-0.8,0-1.6,0.5-2.6
		c1.4-2.4,5.6-7.6,5.8-7.8c0,0,0.5-0.6,0.5-2.1c0-1.3,0-6.6,0-9c-1.3,1.3-2.6,2.5-3.9,3.5v4.9c0,0.1,0,0.7-0.5,1.3
		c0,0-0.1,0.1-0.2,0.3c-3.9,4.3-5.4,8-6,10.3c-0.4,1.4-0.2,2.6,0.4,3.7c1.4,2.4,4.8,3.3,4.8,3.3c0.5,0.2,1.2,0.8,1.2,1.8
		c0,1,0.1,40.6,0.1,40.6c0,0,0,0.6,0.5,1c0.3,0.3,0.8,0.4,1.5,0.4c0.7,0,1.3-0.2,1.6-0.6c0.3-0.4,0.3-0.8,0.3-0.8l0-44
		C436.3,3026.3,436.2,3025.1,435.1,3024.9z"/>
	<path class="st0" d="M383.4,3054.3c0,0,1.6-2.7,1.2-6.2c-0.3-3.1-4.6-3.7-5.1-3.7c-0.2,0-0.6-0.1-0.8-0.3c-0.3-0.3-0.5-0.8-0.5-1.4
		v-8.9c-0.3,0-0.5,0-0.8,0c-1,0-2.1-0.1-3-0.3v12c0,0.1-0.1,1.2,0.5,1.9c0.2,0.3,0.5,0.4,0.9,0.4c2,0.2,2.7,0.2,2.7,0.2
		c0.9,0,2.5,0.2,2.5,1.5c0.1,1.2-1.3,3.8-1.5,4l-3.5,5.3c0,0,0,0.1-0.1,0.1c0,0-1.3,1.3-1.3,3.4l0,41c0,0,0.1,1.2,0.7,1.8
		c0.3,0.3,0.7,0.4,1.1,0.4c1.8-0.1,1.9-1.7,1.9-1.9l0-39.7c0-0.2-0.2-2.1,0.8-3.1C379.9,3060,382.5,3055.9,383.4,3054.3z"/>
	<polygon class="st0" points="389,2822.4 300.3,2771.1 300.3,2820.9 389,2872.1 	"/>
	<path class="st0" d="M371.5,3031.5c4.5,2.3,10.3,1.7,16.4-1.7l9.1-5.3c11.6-6.8,30.9-18.1,31.1-18.2c6.1-3.6,11.8-9.9,16-17.5
		c8.5-15.5,8.2-31.7-0.6-37c-1.4-0.8-3-1.2-4.8-1.2c-3.4,0-7.5,1.3-12.1,4l-40.2,22.6c-5.7,3.6-11.4,10-15.4,17.4
		c-5.7,10.3-7.7,21.6-5.3,29.3C366.7,3027.5,368.8,3030.1,371.5,3031.5z"/>
	<path class="st0" d="M26.5,2549.9c2.9,5,1.1,11.4-3.9,14.3l-1.1,0.6L200,2668.9v-10c0,0,0,0,0,0c0-0.1,0-0.2,0.1-0.2
		c0-0.1,0.1-0.1,0.2-0.2c0,0,0,0,0,0l9.8-5.7l-29.9-17.4l0,4.4c0,2.2-1.2,4.8-4.6,5c-0.1,0-0.1,0-0.2,0c-2.9,0-3.8-2.6-3.9-4l0-10.4
		l-44.7-26.1v4.8c0,2.2-1.2,4.8-4.6,5c-0.1,0-0.1,0-0.2,0c-2.9,0-3.8-3.1-3.9-4.7v-10.1l-77.5-45.4c0,0-0.1,0-0.1,0
		c-0.2,0-0.3-0.1-0.4-0.2c0,0,0-0.1,0-0.1l-528.3-309.3c-0.2-0.1-0.2-0.3-0.2-0.4s0.1-0.3,0.3-0.4l455.4-262.4
		c2.2-1.3,3.7-3.3,4.4-5.8c0.6-2.4,0.3-5-1-7.2s-3.3-3.7-5.8-4.4c-2.4-0.6-5-0.3-7.2,1l-233.1,134.4l0,11.1c0,0,0.1,0.8-0.5,1.5
		c-0.5,0.6-1.3,0.9-2.3,1c-0.1,0-0.2,0-0.3,0c-0.8,0-1.5-0.2-2-0.7c-0.8-0.7-0.8-1.7-0.8-1.8c0,0,0-3.1,0-7.6l-52,30l0,11
		c0,1-0.7,2.8-2.9,2.9c-0.1,0-0.1,0-0.2,0c-0.7,0-1.2-0.2-1.7-0.6c-1-0.9-1.1-2.5-1.1-2.5l0-7.4l-173.4,100
		c-2.9,1.7-4.7,4.8-4.7,8.2c0,3.4,1.8,6.5,4.7,8.2L0.7,2552.6l11.5-6.7C17.3,2543.1,23.7,2544.9,26.5,2549.9z"/>
	<polygon class="st0" points="402.7,2776.3 402.4,2912.1 437.7,2932.5 437.7,2796.4 	"/>
	<path class="st0" d="M304.8,3104c0-14.1-19.9-25.6-44.4-25.7v27.7c0,0.3-0.2,0.5-0.5,0.5s-0.5-0.2-0.5-0.5v-27.7
		c-24.3,0.2-43.9,11.7-43.9,25.7c0,14.2,20,25.7,44.6,25.7S304.8,3118.1,304.8,3104z"/>
	<path class="st0" d="M370,2994c4.2-7.6,9.9-14.1,15.8-17.8l40.3-22.7c5.3-3,9.9-4.4,13.6-4.1l-6.3-3.7c-0.1,0-0.2,0-0.2-0.1
		c-0.3-0.2-0.5-0.4-0.8-0.5c-0.5-0.3-1-0.5-1.5-0.7c-3.8-1.3-9-0.2-15.5,3.5l-40.3,22.7c-5.7,3.6-11.3,10-15.4,17.4
		c-8.1,14.7-8.3,30.8-0.7,36.2l7.9,4.7c-1-1.3-1.8-2.9-2.3-4.7C362.2,3016.1,364.3,3004.6,370,2994z"/>
	<polygon class="st0" points="201,2659.8 201,2795.9 231.2,2813.3 231.4,2677.4 	"/>
	<path class="st0" d="M215,3173.8c0,14.2,20,25.7,44.6,25.7s44.6-11.5,44.6-25.7c0-14-19.6-25.4-43.9-25.7v25.9
		c0,0.3-0.2,0.5-0.5,0.5s-0.5-0.2-0.5-0.5v-25.9C234.9,3148.2,215,3159.7,215,3173.8z"/>
	<polygon class="st0" points="478.6,2682.9 458.7,2671.3 458.7,2671.3 351.2,2609.3 232.9,2677.1 402.2,2774.8 520.5,2707 
		478.6,2682.9 	"/>
	<polygon class="st0" points="1246.2,1712.7 1211.8,1732.5 1329.5,1800.6 1364,1780.7 	"/>
	<polygon class="st0" points="1330,1801.5 1330,1937.5 1365.6,1916.9 1365.6,1781.6 1365,1781.2 	"/>
	<path class="st0" d="M1273,1834.5c-1.3-2.2-3.4-3.7-5.8-4.4c-2.5-0.6-5-0.3-7.2,1l-172.2,99.3c-2.9,1.7-4.6,4.8-4.6,8.2
		s1.8,6.5,4.7,8.2l223.9,128.7c0.2,0.1,0.3,0.3,0.3,0.4s-0.1,0.3-0.2,0.4l-168.1,97.3l18.9,10.9l173.5-100.4
		c2.9-1.7,4.7-4.8,4.7-8.2c0-3.4-1.8-6.5-4.7-8.2L1111.9,1939c-0.2-0.1-0.3-0.3-0.3-0.4s0.1-0.3,0.3-0.4l157.7-90.6
		C1274.1,1844.9,1275.6,1839,1273,1834.5z"/>
	<path class="st0" d="M1211.3,1733.4l-0.1,95.1l0.1,29.5l48.1-27.7c2.4-1.4,5.2-1.8,7.9-1.1c2.7,0.7,5,2.4,6.4,4.8
		c2.9,5,1.3,11.4-3.7,14.4l-47.9,27.5l106.7,61.6l0-136.1L1211.3,1733.4z"/>
	<polygon class="st0" points="1518.4,1747.2 1484.9,1766.5 1484.9,1816.3 1518.4,1796.9 	"/>
	<path class="st0" d="M1366.4,1780.9C1366.4,1780.9,1366.4,1780.9,1366.4,1780.9c0.1,0.1,0.1,0.1,0.1,0.1c0,0,0,0.1,0.1,0.1
		c0,0,0,0.1,0,0.1c0,0,0,0.1,0,0.1c0,0,0,0,0,0.1v135.1l169.2-97.7v-136.1l-169.8,98.1L1366.4,1780.9z M1483.9,1766.3
		c0-0.2,0.1-0.3,0.2-0.4l34.5-19.9c0.2-0.1,0.3-0.1,0.5,0c0.2,0.1,0.2,0.3,0.2,0.4v50.9c0,0.2-0.1,0.3-0.2,0.4l-34.5,19.9
		c-0.1,0-0.2,0.1-0.2,0.1s-0.2,0-0.2-0.1c-0.2-0.1-0.2-0.3-0.2-0.4V1766.3z M1378,1827.4c0-0.2,0.1-0.3,0.2-0.4l89.8-51.8
		c0.2-0.1,0.3-0.1,0.5,0c0.2,0.1,0.2,0.3,0.2,0.4v50.9c0,0.2-0.1,0.3-0.2,0.4l-89.8,51.8c-0.1,0-0.2,0.1-0.2,0.1s-0.2,0-0.2-0.1
		c-0.2-0.1-0.2-0.3-0.2-0.4V1827.4z"/>
	<polygon class="st0" points="1536.8,1682 1536.8,1818.1 1566.7,1800.9 1566.6,1664.8 	"/>
	<polygon class="st0" points="1448.3,1595.9 1417.4,1613.7 1536.3,1681.1 1566.1,1663.9 	"/>
	<polygon class="st0" points="1467.8,1776.4 1379,1827.7 1379,1877.4 1467.8,1826.2 	"/>
	<path class="st0" d="M1047,2213.3c0,14.2,20,25.7,44.6,25.7s44.6-11.5,44.6-25.7c0-14-19.6-25.4-43.9-25.7v25.9
		c0,0.3-0.2,0.5-0.5,0.5s-0.5-0.2-0.5-0.5v-25.9C1066.9,2187.7,1047,2199.2,1047,2213.3z"/>
	<path class="st0" d="M532.5,2560.9c2,1,4.3,1.5,6.8,1.3c0.1-0.2,0.2-0.3,0.4-0.3c0.2,0,0.3,0.1,0.4,0.2c2.8-0.3,5.8-1.3,8.8-3
		l8.8-5.2c11.7-6.8,31.2-18.3,31.4-18.4c6.1-3.6,11.8-9.9,16-17.5c8.5-15.5,8.2-31.7-0.6-37c-1.4-0.8-3-1.2-4.8-1.2
		c-3.4,0-7.5,1.3-12.1,4l-40.2,22.6c-5.7,3.6-11.4,10-15.4,17.4c-5.7,10.3-7.7,21.6-5.3,29.3
		C527.7,2556.8,529.7,2559.5,532.5,2560.9z"/>
	<path class="st0" d="M531,2523.4c4.2-7.6,9.9-14.1,15.8-17.8l40.3-22.7c5.3-3,9.9-4.4,13.6-4.1l-6.3-3.7c-0.1,0-0.2,0-0.2-0.1
		c-0.3-0.2-0.5-0.4-0.8-0.5c-0.5-0.3-1-0.5-1.5-0.7c-3.8-1.3-9-0.2-15.5,3.5l-40.3,22.7c-5.7,3.6-11.3,10-15.4,17.4
		c-8.1,14.7-8.3,30.8-0.7,36.2l7.9,4.7c-1-1.3-1.8-2.9-2.3-4.7C523.2,2545.5,525.3,2534,531,2523.4z"/>
	<path class="st0" d="M597.1,2541.3c0,0,0.5-0.6,0.5-2.1c0-1.3,0-6.6,0-9c-1.3,1.3-2.6,2.5-3.9,3.5v4.9c0,0.1,0,0.7-0.5,1.3
		c0,0-0.1,0.1-0.2,0.3c-3.9,4.3-5.4,8-6,10.3c-0.4,1.4-0.2,2.6,0.4,3.7c1.4,2.4,4.8,3.3,4.8,3.3c0.5,0.2,1.2,0.8,1.2,1.8
		c0,1,0.1,40.6,0.1,40.6c0,0,0,0.6,0.5,1c0.3,0.3,0.9,0.5,1.5,0.4c0.7,0,1.3-0.2,1.6-0.6c0.3-0.4,0.3-0.8,0.3-0.8l0-44
		c0-0.1-0.1-1.3-1.2-1.5c-1.7-0.3-4.1-1.3-4.2-1.3c-0.1-0.1-0.8-0.4-1-1.2c-0.2-0.8,0-1.6,0.5-2.6
		C592.7,2546.8,596.9,2541.5,597.1,2541.3z"/>
	<path class="st0" d="M-337.5,2144.8c0.3,0.3,0.7,0.4,1.1,0.4c1.8-0.1,1.9-1.9,1.9-1.9l0-39.7c0-0.2-0.2-2.1,0.8-3.1
		c0.6-0.7,3.3-4.9,4.2-6.4c0,0,1.6-2.7,1.2-6.2c-0.3-3.1-4.6-3.7-5.1-3.7c-0.2,0-0.6-0.1-0.8-0.3c-0.3-0.3-0.5-0.8-0.5-1.4v-8.9
		c-0.3,0-0.5,0-0.8,0c-1,0-2.1-0.1-3-0.3v12c0,0.1-0.1,1.2,0.5,1.9c0.2,0.3,0.5,0.4,0.9,0.4c2,0.2,2.7,0.2,2.7,0.2
		c0.9,0,2.5,0.2,2.5,1.5c0.1,1.2-1.3,3.8-1.5,4l-3.5,5.3c0,0,0,0.1-0.1,0.1c0,0-1.3,1.3-1.3,3.4l0,41
		C-338.2,2143-338.2,2144.1-337.5,2144.8z"/>
	<path class="st0" d="M1047.5,2143.4c0,14.2,20,25.7,44.6,25.7s44.6-11.5,44.6-25.7c0-14.1-19.9-25.6-44.4-25.7v27.7
		c0,0.3-0.2,0.5-0.5,0.5s-0.5-0.2-0.5-0.5v-27.7C1067.1,2118,1047.5,2129.4,1047.5,2143.4z"/>
	<path class="st0" d="M1038,2276.8c-2.6-4.5-8.4-6.1-12.9-3.5l-324.7,188c-2.9,1.7-4.7,4.8-4.7,8.2s1.8,6.5,4.7,8.2l46.6,26.8
		c0.2,0.1,0.3,0.3,0.3,0.4s-0.1,0.3-0.3,0.4l-148.7,85.7l0,8.6c0,0,0.1,0.8-0.5,1.5c-0.5,0.6-1.3,0.9-2.3,1c-0.1,0-0.2,0-0.3,0
		c-0.8,0-1.5-0.2-2-0.7c-0.8-0.7-0.8-1.7-0.8-1.8c0,0,0-2,0-5.2l-52,30l0,8.5c0,1-0.7,2.8-2.9,2.9c-0.1,0-0.1,0-0.2,0
		c-0.7,0-1.2-0.2-1.7-0.6c-1-0.9-1.1-2.5-1.1-2.5l0-5l-74.7,43.1l19,10.9l292.5-168.6c2.9-1.7,4.7-4.8,4.7-8.2
		c0-3.4-1.8-6.5-4.7-8.2l-46.6-27.3c-0.2-0.1-0.2-0.3-0.2-0.4s0.1-0.3,0.2-0.4l309.7-178.9C1039.1,2287.1,1040.6,2281.3,1038,2276.8
		z"/>
	<path class="st0" d="M537,2588.3C537,2588.3,537,2588.3,537,2588.3c-0.1,0.1-1.4,1.4-1.4,3.4v41c0,0,0.1,1.2,0.7,1.8
		c0.3,0.3,0.7,0.4,1.1,0.4c1.8-0.1,1.9-1.7,1.9-1.9l0-39.7c0-0.2-0.2-2.1,0.8-3.1c0.6-0.7,3.3-4.9,4.2-6.4c0,0,1.6-2.7,1.2-6.2
		c-0.3-3.1-4.6-3.7-5.1-3.7c-0.2,0-0.6-0.1-0.8-0.3c-0.3-0.3-0.5-0.8-0.5-1.4v-8.9c-0.3,0-0.5,0-0.8,0c-1,0-2.1-0.1-3-0.3v12
		c0,0.1-0.1,1.2,0.5,1.9c0.2,0.3,0.5,0.4,0.9,0.4c2,0.2,2.7,0.2,2.7,0.2c0.9-0.1,2.5,0.2,2.5,1.5c0.1,1.2-1.3,3.8-1.5,4L537,2588.3z
		"/>
	<path class="st0" d="M1092.3,2349.3l117.8-68v-67.5l-117.8,68V2349.3z M1114.3,2281.9c0-0.2,0.1-0.3,0.2-0.4l74.3-42.9
		c0.2-0.1,0.3-0.1,0.5,0c0.2,0.1,0.2,0.3,0.2,0.4v40.4c0,0.2-0.1,0.3-0.2,0.4l-74.3,43.4c-0.1,0-0.2,0.1-0.3,0.1
		c-0.1,0-0.2,0-0.2-0.1c-0.2-0.1-0.3-0.3-0.3-0.4V2281.9z"/>
	<path class="st0" d="M1092.4,2170.1v16.5c24.8,0.2,44.9,12.1,44.9,26.7c0,14.7-20.5,26.7-45.6,26.7c-25.2,0-45.6-12-45.6-26.7
		c0-14.7,20.3-26.6,45.4-26.7v-16.5c-11.9-0.1-22.6-2.9-30.6-7.3l-86.8,50.1l117.8,68l117.8-68l-86.5-49.9
		C1115.1,2167.4,1104.3,2170.1,1092.4,2170.1z"/>
	<path class="st0" d="M973.4,2281.2l18,10.4l33.1-19.2c5-2.9,11.4-1.2,14.3,3.8c2.9,5,1.2,11.4-3.8,14.3l-22.7,13.1l78.9,45.6v-67.5
		l-117.8-68V2281.2z"/>
	<polygon class="st0" points="1188.6,2239.8 1115.3,2282.1 1115.3,2321.9 1188.6,2279.1 	"/>
	<path class="st0" d="M183,2517.9c0.4,0.2,8.4,5.3,11.2,18.2c0,0,0,0.1,0,0.1l0.2,35.3c0,0.2,0.3,3.8-1.4,6.7l3.5-2
		c0.1-0.1,3.1-2.6,2.8-8l-0.1-35c0-0.1-0.4-10.9-12.5-18.9l-38.9-22.4l0,0c-0.1,0-0.2,0.1-0.2,0.1c-0.2,0-0.3-0.1-0.4-0.2
		c0-0.1-0.1-0.2-0.1-0.3l-28.5-16.4c0,0-2.3-1.3-5-1c0,0-2.3,0.7-5.2,2.4c3.1,0,5.4,1.4,5.5,1.5L183,2517.9z"/>
	<path class="st0" d="M-334.2,2072.1c0.2,0,0.3,0.1,0.4,0.2c2.8-0.3,5.8-1.3,8.8-3l6.8-4c11.6-6.8,33.2-19.4,33.4-19.6
		c6.1-3.6,11.8-9.9,16-17.5c8.5-15.5,8.2-31.7-0.6-37c-1.4-0.8-3-1.2-4.8-1.2c-3.4,0-7.5,1.3-12.1,4l-40.2,22.6
		c-5.7,3.6-11.4,10-15.4,17.4c-5.7,10.3-7.7,21.6-5.3,29.3c1.1,3.6,3.1,6.2,5.9,7.6c2,1,4.3,1.5,6.8,1.3
		C-334.5,2072.3-334.4,2072.1-334.2,2072.1z"/>
	<path class="st0" d="M-342.8,2033.6c4.2-7.6,9.9-14.1,15.8-17.8l40.3-22.7c5.3-3,9.9-4.4,13.6-4.1l-6.3-3.7c-0.1,0-0.2,0-0.2-0.1
		c-0.3-0.2-0.5-0.4-0.8-0.5c-0.5-0.3-1-0.5-1.5-0.7c-3.8-1.3-9-0.2-15.5,3.5l-40.3,22.7c-5.7,3.6-11.3,10-15.4,17.4
		c-8.1,14.7-8.3,30.8-0.7,36.2l7.9,4.7c-1-1.3-1.8-2.9-2.3-4.7C-350.7,2055.7-348.6,2044.2-342.8,2033.6z"/>
	<path class="st0" d="M125.7,2609.1v-49.2c0,0,0,0-0.1,0c-1.9,0.3-4.2-0.7-6.6-2.9l0,52.3c0,0.1,0.3,3.8,3,3.7
		C125.6,2612.9,125.7,2609.7,125.7,2609.1z"/>
	<path class="st0" d="M113.2,2539.6c0.2,0.1,0.2,0.3,0.2,0.5c-1.1,5.3,2,11.6,5.5,15.3c2.4,2.5,4.9,3.8,6.7,3.5
		c1.1-0.2,2-0.8,2.6-1.5c0-0.2,0.1-0.4,0.3-0.5l0.1-0.1c1.6-2.6,1.2-6.6,1.2-6.7c0-0.2,0.1-0.4,0.2-0.5c0.1-0.1,0.2-0.1,0.3-0.1
		c0.1,0,0.2,0,0.3,0.1l34.8,20.4c0.1,0.1,0.2,0.2,0.2,0.4c0.4,9.4,3.6,13.9,6.6,16.1c0.1,0,0.2,0.1,0.2,0.2c2.5,1.8,4.8,1.9,5,1.9
		c1.6-0.2,2.8-0.8,3.6-1.9c1.8-2.5,0.8-6.5,0.8-6.6c0-0.2,0-0.4,0.2-0.5c0.1-0.1,0.3-0.2,0.5-0.1c4.6,1.9,7.3,0.6,7.4,0.6
		c4.2-2.3,3.7-8.6,3.7-8.7l-0.2-35.2c-2.7-12.4-10.7-17.4-10.8-17.5l-69.2-40c0,0-3.5-2.1-7.3-1c-3.7,1.1-4,6.4-4,6.5
		c0,0.4-0.7,24-0.2,35.8C102.4,2531.6,113.1,2539.5,113.2,2539.6z"/>
	<path class="st0" d="M185.5,2584.6c0,0,1.4-0.9,1.8-3c-1.2,0-2.7-0.2-4.5-0.8c0.2,1.2,0.3,3.6-0.6,5.5L185.5,2584.6z"/>
	<path class="st0" d="M100.8,2517.9c-0.2-6.3-0.1-14.9,0-21.9l-79,45.6l18.8,11L100.8,2517.9z"/>
	<path class="st0" d="M179.1,2639.7l0.1-50.6c-0.6,0.2-1.2,0.4-1.9,0.5c-0.1,0-2.3-0.1-4.9-1.7l0.1,52.8c0,0.1,0.3,3.1,3,3
		C178.9,2643.6,179.1,2640.4,179.1,2639.7z"/>
	<path class="st0" d="M-280.2,2043.9v4.9c0,0.1,0,0.7-0.5,1.3c0,0-0.1,0.1-0.2,0.3c-3.9,4.3-5.4,8-6,10.3c-0.4,1.4-0.2,2.6,0.4,3.7
		c1.4,2.4,4.8,3.3,4.8,3.3c0.5,0.2,1.2,0.8,1.2,1.8c0,1,0.1,40.6,0.1,40.6c0,0,0,0.6,0.5,1c0.3,0.3,0.8,0.4,1.5,0.4
		c0.7,0,1.3-0.2,1.6-0.6c0.3-0.4,0.3-0.8,0.3-0.8l0-44c0-0.1-0.1-1.3-1.2-1.5c-1.7-0.3-4.1-1.3-4.2-1.3c-0.1-0.1-0.8-0.4-1-1.2
		c-0.2-0.8,0-1.6,0.5-2.6c1.4-2.4,5.6-7.6,5.8-7.8c0,0,0.5-0.6,0.5-2.1c0-1.3,0-6.6,0-9C-277.6,2041.6-278.9,2042.8-280.2,2043.9z"
		/>
	<path class="st0" d="M133.4,2554.2c0,0,0.5-0.3,1-1.1l-3.7-2.1c0,1.2-0.1,3.2-0.7,5L133.4,2554.2z"/>
	<path class="st0" d="M382.8,2355.1c4.5-2.6,6.1-8.4,3.5-12.9c-2.6-4.5-8.4-6.1-12.9-3.5l-244.5,141.2l19,10.9L382.8,2355.1z"/>
</g>
<g id="Edge_1_">
	<path class="st1" d="M282.6,3283.7c0.1,0,0.2,0.1,0.2,0.1c0.1,0,0.2,0,0.3-0.1l74.3-43.4c0.2-0.1,0.2-0.3,0.2-0.4v-40.4
		c0-0.2-0.1-0.3-0.2-0.4c-0.2-0.1-0.3-0.1-0.5,0l-74.3,42.9c-0.2,0.1-0.2,0.3-0.2,0.4v40.9C282.4,3283.5,282.5,3283.6,282.6,3283.7z
		 M283.4,3242.7l73.3-42.3v39.2l-73.3,42.8V3242.7z"/>
	<path class="st1" d="M1114.6,2323.2c0.1,0,0.2,0.1,0.2,0.1c0.1,0,0.2,0,0.3-0.1l74.3-43.4c0.2-0.1,0.2-0.3,0.2-0.4V2239
		c0-0.2-0.1-0.3-0.2-0.4c-0.2-0.1-0.3-0.1-0.5,0l-74.3,42.9c-0.2,0.1-0.2,0.3-0.2,0.4v40.9
		C1114.3,2322.9,1114.4,2323.1,1114.6,2323.2z M1115.3,2282.1l73.3-42.3v39.2l-73.3,42.8V2282.1z"/>
	<path class="st1" d="M964.7,1481.8c0.1,0,0.2,0,0.2-0.1l74.3-42.9c0.2-0.1,0.2-0.3,0.2-0.4v-40.8c0-0.2-0.1-0.3-0.2-0.4
		c-0.2-0.1-0.3-0.1-0.5,0l-74.3,42.9c-0.2,0.1-0.2,0.3-0.2,0.4v40.8c0,0.2,0.1,0.3,0.2,0.4C964.5,1481.8,964.6,1481.8,964.7,1481.8z
		 M965.2,1440.7l73.3-42.3v39.7l-73.3,42.3V1440.7z"/>
	<path class="st1" d="M249.3,2740.6c-0.2-0.1-0.3-0.1-0.5,0c-0.2,0.1-0.2,0.3-0.2,0.4v50.9c0,0.2,0.1,0.3,0.2,0.4l34.5,19.9
		c0.1,0,0.2,0.1,0.2,0.1s0.2,0,0.2-0.1c0.2-0.1,0.2-0.3,0.2-0.4V2761c0-0.2-0.1-0.3-0.2-0.4L249.3,2740.6z M283.1,2811l-33.5-19.3
		v-49.7l33.5,19.3V2811z"/>
	<path class="st1" d="M300,2769.8c-0.2-0.1-0.3-0.1-0.5,0c-0.2,0.1-0.2,0.3-0.2,0.4v50.9c0,0.2,0.1,0.3,0.2,0.4l89.8,51.8
		c0.1,0,0.2,0.1,0.2,0.1s0.2,0,0.2-0.1c0.2-0.1,0.2-0.3,0.2-0.4v-50.9c0-0.2-0.1-0.3-0.2-0.4L300,2769.8z M389,2872.1l-88.8-51.2
		v-49.7l88.8,51.2V2872.1z"/>
	<path class="st1" d="M983.8,1779.9l-34.5,19.9c-0.2,0.1-0.2,0.3-0.2,0.4v50.9c0,0.2,0.1,0.3,0.2,0.4c0.1,0,0.2,0.1,0.2,0.1
		s0.2,0,0.2-0.1l34.5-19.9c0.2-0.1,0.2-0.3,0.2-0.4v-50.9c0-0.2-0.1-0.3-0.2-0.4C984.1,1779.8,983.9,1779.8,983.8,1779.9z
		 M983.5,1830.9l-33.5,19.3v-49.7l33.5-19.3V1830.9z"/>
	<path class="st1" d="M933.1,1809.2l-89.8,51.8c-0.2,0.1-0.2,0.3-0.2,0.4v50.9c0,0.2,0.1,0.3,0.2,0.4c0.1,0,0.2,0.1,0.2,0.1
		s0.2,0,0.2-0.1l89.8-51.8c0.2-0.1,0.2-0.3,0.2-0.4v-50.9c0-0.2-0.1-0.3-0.2-0.4C933.4,1809.1,933.2,1809.1,933.1,1809.2z
		 M932.8,1860.2l-88.8,51.2v-49.7l88.8-51.2V1860.2z"/>
	<path class="st1" d="M211.5,1882.6l-34.5,19.9c-0.2,0.1-0.2,0.3-0.2,0.4v50.9c0,0.2,0.1,0.3,0.2,0.4c0.1,0,0.2,0.1,0.2,0.1
		s0.2,0,0.2-0.1l34.5-19.9c0.2-0.1,0.2-0.3,0.2-0.4v-50.9c0-0.2-0.1-0.3-0.2-0.4C211.8,1882.6,211.6,1882.6,211.5,1882.6z
		 M211.2,1933.7l-33.5,19.3v-49.7l33.5-19.3V1933.7z"/>
	<path class="st1" d="M160.8,1911.9l-89.8,51.8c-0.2,0.1-0.2,0.3-0.2,0.4v50.9c0,0.2,0.1,0.3,0.2,0.4c0.1,0,0.2,0.1,0.2,0.1
		s0.2,0,0.2-0.1l89.8-51.8c0.2-0.1,0.2-0.3,0.2-0.4v-50.9c0-0.2-0.1-0.3-0.2-0.4C161.2,1911.8,161,1911.8,160.8,1911.9z
		 M160.6,1962.9l-88.8,51.2v-49.7l88.8-51.2V1962.9z"/>
	<path class="st1" d="M1567.6,1663.9C1567.6,1663.9,1567.6,1663.9,1567.6,1663.9c0-0.1,0-0.2-0.1-0.2l0,0c0,0,0,0,0,0
		c0-0.1-0.1-0.1-0.2-0.2c0,0,0,0,0,0l-118.8-68.6c-0.2-0.1-0.3-0.1-0.5,0l-167.6,96.8l-18.8-11.1l0.1-45.7c0.3-0.2,0.5-0.3,0.7-0.5
		c0,0,0,0,0.1,0l5-2.7c0.1,0,1.9-1.2,2.3-3.9c1.1-0.1,1.8-0.5,1.8-0.5c0.4-0.2,0.8-0.5,1.2-0.8c0,0,0.1,0,0.1,0l5.6-3.2
		c0.1-0.1,3.6-3,3.2-8.8l-0.1-34.9c0-0.5-0.4-11.4-12.9-19.8l-68.2-39.3c-0.1-0.1-2.6-1.5-5.7-1.1c-0.1,0-3.5,1-7.4,3.8
		c-0.1,0-0.1,0-0.2,0c-4.4,1.3-4.7,7.2-4.7,7.4c0,0,0,0,0,0c0,0.2-0.7,24-0.2,35.9c0.5,11,9.7,18.8,11.4,20.1
		c-1,5.6,2.1,12,5.8,15.8v41.7l-44-26c-3.2-1.9-7.2-1.9-10.5,0l-123.3,73.7l-108.1-62.4c-0.2-0.1-0.3-0.1-0.5,0l-168.9,97.5
		l-166.6-97.2l285.6-165.2L943,1510c0,0,0,0,0,0c0.1,0,0.1,0.1,0.2,0.1h0c0.1,0,0.2,0,0.2-0.1c0,0,0,0,0,0l100-57.7l18.6-10.7
		l0.2-0.1c0.2-0.1,0.2-0.3,0.2-0.4l0.1-68.7c0,0,0,0,0,0c0-0.1,0-0.2-0.1-0.2c0,0,0,0,0,0c0,0,0,0,0,0c0-0.1-0.1-0.1-0.2-0.2
		c0,0,0,0,0,0l-90.2-52.1c3.7-3.6,5.8-7.9,5.8-12.4c0-13.5-18.7-24.4-41.7-24.5v-11.3c8.1,0,14.7-3.9,14.7-8.7V1245c0,0,0-0.1,0-0.1
		c0-0.1,0-0.2,0-0.3c0-4.8-6.6-8.7-14.7-8.7c-8.1,0-14.7,3.9-14.7,8.7c0,0.1,0,0.2,0,0.3c0,0,0,0.1,0,0.1c0,0,0,0.1,0,0.2
		c0,0,0,0,0,0v17.8c0,0,0,0.1,0,0.1c0.3,4.5,6.2,8.1,13.7,8.3v11.4c-22.8,0.2-41.2,11.1-41.2,24.5c0,6.5,4.4,12.4,11.5,16.8
		l-82.5,46.9c0,0,0,0,0,0c-0.1,0-0.1,0.1-0.2,0.2c0,0,0,0,0,0c0,0,0,0,0,0c0,0.1-0.1,0.1-0.1,0.2c0,0,0,0,0,0l0,68.6
		c0,0.2,0.1,0.3,0.2,0.4l19.4,11.6l-108.7,62.9l0-31.5c0-0.8-0.5-2.5-2.3-2.8c-1.8-0.3-4.8-1.5-4.8-1.5c0,0,0,0,0,0
		c0,0-0.4-0.2-0.6-0.8c-0.2-0.6,0-1.4,0.5-2.2c1.6-2.7,6.7-9,6.7-9.1c0.1-0.1,0.8-1,0.8-3.2c0-1.9-0.1-16-0.1-17.7
		c1.2-1.6,2.2-3.3,3.2-5.1c7.8-14.3,7.4-29.3-0.9-34.2c-0.3-0.2-0.7-0.4-1-0.5c0,0,0,0,0,0l-9-5.3c0,0,0,0,0,0
		c-0.5-0.3-1-0.5-1.5-0.7c-3.7-1.3-8.6-0.2-14.6,3.2l-35.9,20.2c-5.2,3.3-10.4,9.1-14.1,15.9c-7.5,13.7-7.6,28.3-0.4,33.5
		c0,0,0,0,0,0l0,0c0.1,0.1,0.2,0.2,0.3,0.2c0,0,0.1,0,0.1,0l10.3,6.1c0,0,0,0,0.1,0c0.1,0.1,0.2,0.1,0.3,0.2
		c0.7,0.3,1.4,0.6,2.1,0.8l0,15c0,0.1-0.2,1.9,0.8,3c0.5,0.5,1.1,0.9,1.8,0.9c2.4,0.2,3.2,0.3,3.3,0.3c0.4,0,2,0.1,2,0.8
		c0.1,0.9-1,3.1-1.6,4.3l-4.2,6.3c-0.3,0.3-1.9,2.1-1.9,4.8l0,33.9c0,0,0,0-0.1,0l-56.9,32.9l-245.9-142.3l0-33.4
		c0-2.8-1.6-4.6-1.9-4.8l-4.2-6.3c-0.7-1.2-1.7-3.5-1.6-4.3c0-0.7,1.6-0.8,2.1-0.8c0,0,0.8-0.1,3.2-0.3c0.8-0.1,1.4-0.4,1.8-0.9
		c1-1.1,0.8-2.9,0.8-3v-15c0.7-0.2,1.4-0.5,2.1-0.8c0.1-0.1,0.2-0.1,0.3-0.2c0,0,0,0,0.1,0l10.3-6.1c0,0,0.1,0,0.1,0
		c0.1-0.1,0.2-0.2,0.3-0.2l0,0c0,0,0,0,0,0c7.3-5.2,7.2-19.8-0.4-33.5c-3.7-6.8-8.8-12.5-14.1-15.9l-35.9-20.2
		c-6-3.4-10.9-4.5-14.6-3.2c-0.5,0.2-1,0.4-1.5,0.7c0,0,0,0,0,0l-9,5.3c0,0,0,0,0,0c-0.4,0.1-0.7,0.3-1,0.5
		c-8.3,4.9-8.7,20-0.9,34.2c1,1.8,2.1,3.5,3.2,5.2c0,1.6-0.1,15.7-0.1,17.7c0,2.2,0.7,3.1,0.8,3.2c0.1,0.1,5.2,6.4,6.7,9.1
		c0.5,0.9,0.7,1.7,0.5,2.2c-0.2,0.5-0.6,0.8-0.6,0.8c0,0,0,0,0,0c0,0-3,1.2-4.8,1.5c-1.8,0.3-2.3,2-2.3,2.8l0,31l-208.3-120.4
		l285.6-164.6l109.4,63.2c0,0,0,0,0,0c0.1,0,0.1,0.1,0.2,0.1c0.1,0,0.2,0,0.2-0.1c0,0,0,0,0,0l178.2-102.9c0.2-0.1,0.2-0.3,0.2-0.4
		V943.4c0,0,0,0,0,0s0,0,0,0c0,0,0-0.1,0-0.1c0,0,0-0.1,0-0.1c0-0.1-0.1-0.1-0.2-0.2c0,0,0,0,0,0L583,889c4.9-3.3,7.9-7.6,7.9-12.3
		c0-3.3-1.4-6.5-4.2-9.4c-5.6-5.7-16.1-9.3-27.4-9.4l0-7.7c6-0.2,10.7-3.1,10.7-6.7V830c0,0,0-0.1,0-0.1c0-0.1,0-0.1,0-0.2
		c0-3.7-5-6.7-11.2-6.7s-11.2,3-11.2,6.7c0,0.1,0,0.1,0,0.2c0,0,0,0.1,0,0.1l0,0.1c0,0,0,0,0,0v13.5c0,0,0,0.1,0,0.1
		c0.2,3.5,4.9,6.3,10.7,6.4l0,7.7c-17.5,0.2-31.6,8.5-31.6,18.7c0,3.9,2.1,7.6,5.8,10.6l-19.6,11.3c-5.2-2.3-11.7-3.7-18.7-3.7
		l0-7.7c6-0.2,10.7-3.1,10.7-6.7V867c0,0,0-0.1,0-0.1c0-0.1,0-0.1,0-0.2c0-3.7-5-6.7-11.2-6.7s-11.2,3-11.2,6.7c0,0.1,0,0.1,0,0.2
		c0,0,0,0.1,0,0.1l0,0.1c0,0,0,0,0,0v13.5c0,0,0,0.1,0,0.1c0.2,3.5,4.9,6.3,10.7,6.4l0,7.7c-17.5,0.2-31.6,8.5-31.6,18.7
		c0,4.1,2.3,8,6.2,11.1l-50.1,29l-71.2-41c0,0,0,0,0,0l0.1-80.5c0.3-0.2,0.5-0.3,0.7-0.5c0,0,0,0,0.1,0l5-2.7c0.1,0,1.9-1.2,2.3-3.9
		c0,0,0,0,0,0c0.6-0.1,1-0.2,1.3-0.3c0.3-0.1,0.5-0.2,0.5-0.2c0.4-0.2,0.8-0.5,1.2-0.8c0,0,0.1,0,0.1,0l5.6-3.2
		c0.1-0.1,3.6-3,3.2-8.8l-0.1-34.9c0-0.5-0.4-11.4-12.9-19.8l-68.2-39.3c-0.1-0.1-2.6-1.5-5.7-1.1c-0.1,0-3.5,1-7.4,3.8
		c-0.1,0-0.1,0-0.2,0c-4.4,1.3-4.7,7.2-4.7,7.4c0,0,0,0,0,0c0,0.2-0.7,24-0.2,35.9c0.5,11,9.7,18.8,11.4,20.1
		c-1,5.6,2.1,12,5.8,15.8l0,77.4L12.8,720.2l197.3-113.8l108.9,62.9c0,0,0.1,0,0.1,0.1c0,0,0,0,0,0c0,0,0,0,0,0c0,0,0,0,0,0
		c0,0,0,0,0,0c0,0,0,0,0,0c0,0,0,0,0,0c0,0,0,0,0,0l0,0c0,0,0,0,0,0c0,0,0,0,0,0c0,0,0,0,0,0c0,0,0,0,0,0c0,0,0.1,0,0.1,0
		c0.1,0,0.2,0,0.2-0.1c0,0,0,0,0,0l118.8-68.6c0.2-0.1,0.3-0.3,0.2-0.4l-0.3-137c0,0,0.1,0,0.1-0.1c0.1-0.2,0.1-0.5-0.2-0.7
		L351,412.1c3.6-3.4,5.8-7.4,5.8-11.6c0-11.9-16.5-21.7-36.9-21.8v-9.6c6.9-0.2,12.4-3.5,12.4-7.7v-15.5c0,0,0-0.1,0-0.1
		c0-0.1,0-0.1,0-0.2c0-4.2-5.8-7.7-12.9-7.7s-12.9,3.4-12.9,7.7c0,0.1,0,0.2,0,0.4c0,0,0,0.1,0,0.2v15.5c0,0,0,0.1,0,0.1
		c0.3,4,5.6,7.2,12.3,7.3v9.6c-20.4,0.2-36.9,9.9-36.9,21.8c0,4.3,2.1,8.3,5.8,11.6l-78.6,45.4L145,420.9c-3.3-1.9-7.3-1.9-10.5,0
		l-592.1,341.8c-3.2,1.9-5.2,5.4-5.2,9.1c0,4,2.2,7.3,5.9,8.9l695.4,402l-697.5,402c-3.2,1.9-5.2,5.3-5.2,9.1c0,3.7,2,7.2,5.2,9.1
		l411.7,237.8l-49.5,28.6c0,0,0,0,0,0c0,0-0.1,0.1-0.1,0.1c0,0,0,0,0,0.1c0,0.1,0,0.1-0.1,0.2c0,0,0,0,0,0l0.7,124.6l-179.2,103.3
		l0-31.8c0-0.7-0.4-2.2-2-2.5c-1.5-0.3-4-1.2-4-1.2c0,0-0.3-0.2-0.5-0.6c-0.1-0.5,0-1.1,0.4-1.8c1.3-2.3,5.6-7.6,5.7-7.7
		c0.1-0.1,0.7-0.9,0.7-2.7c0-1.6,0-8.8-0.1-10.1c2.8-3,5.3-6.6,7.5-10.6c8.8-16,8.3-32.8-1-38.3c-0.4-0.2-0.8-0.4-1.1-0.6
		c0,0,0,0,0,0l-10.1-6c0,0,0,0,0,0c-0.5-0.3-1.1-0.6-1.7-0.8c-4.1-1.4-9.6-0.2-16.3,3.5l-40.3,22.7c-5.9,3.7-11.6,10.2-15.8,17.8
		c-8.4,15.4-8.6,31.6-0.4,37.5c0,0,0,0,0,0l0.1,0c0.1,0.1,0.2,0.2,0.4,0.3c0,0,0.1,0,0.2,0l11.6,6.8c0,0,0,0,0.1,0
		c0.1,0.1,0.2,0.2,0.4,0.2c0.8,0.4,1.5,0.7,2.4,0.9l0,12.2c0,0.1-0.1,1.6,0.7,2.5c0.4,0.5,0.9,0.7,1.6,0.8c2,0.2,2.6,0.2,2.7,0.2
		c0.5,0,1.6,0.1,1.6,0.5c0,0.7-0.8,2.5-1.3,3.5l-3.4,5.2c-0.3,0.3-1.6,1.8-1.6,4l0,32.5l-173.9,100.3c-3.2,1.9-5.2,5.3-5.2,9
		s2,7.2,5.2,9l512.8,300.4L-401.9,2785c-3.3,1.9-5.3,5.3-5.3,9.1c0,3.7,2,7.2,5.2,9.1l591.8,341.7l-49,28.3
		c-0.1,0.1-0.2,0.2-0.2,0.4c0,0,0,0,0,0.1c0,0,0,0,0,0l0,68.6c0,0.2,0.1,0.3,0.2,0.4l118.8,68.6c0,0,0,0,0,0c0.1,0,0.1,0.1,0.2,0.1
		c0.1,0,0.2,0,0.2-0.1c0,0,0,0,0,0l118.8-68.6c0.2-0.1,0.2-0.3,0.2-0.4v-68.6c0,0,0,0,0,0c0-0.1,0-0.2-0.1-0.2
		c0-0.1-0.1-0.1-0.2-0.2c0,0,0,0,0,0l-46.5-26.9l353.1-203.8c3.2-1.9,5.2-5.4,5.2-9.1c0-3.7-2-7.2-5.3-9.1l-128.3-72.4l0.3-124.3
		c0-0.2-0.1-0.3-0.2-0.4l-77.4-44.7l292-168.3c3.2-1.9,5.2-5.3,5.2-9.1c0-3.7-2-7.2-5.2-9.1l-45.8-26.8l285.3-164.8l80.2,46.3
		c0,0,0,0,0,0c0.1,0,0.1,0.1,0.2,0.1s0.2,0,0.2-0.1c0,0,0,0,0,0l118.8-68.6c0.2-0.1,0.2-0.3,0.2-0.4v-68.6c0,0,0,0,0,0
		c0-0.1,0-0.2-0.1-0.2c0-0.1-0.1-0.1-0.2-0.2c0,0,0,0,0,0l-47.3-27.3l173-100.1c3.2-1.9,5.2-5.3,5.2-9c0-3.7-2-7.2-5.2-9.1
		l-223.4-128.3l108-62.1l108,62.3c0,0,0,0,0,0c0.1,0,0.1,0.1,0.2,0.1c0.1,0,0.1,0,0.2,0c0,0,0,0,0.1,0c0,0,0,0,0,0l237.3-137
		l0.4-0.2c0.2-0.1,0.2-0.3,0.2-0.4L1567.6,1663.9z M1111.9,1939l224.1,128.8c2.9,1.7,4.7,4.8,4.7,8.2c0,3.4-1.8,6.5-4.7,8.2
		l-173.5,100.4l-18.9-10.9l168.1-97.3c0.2-0.1,0.2-0.3,0.2-0.4s-0.1-0.3-0.3-0.4l-223.9-128.7c-2.9-1.7-4.7-4.8-4.7-8.2
		s1.8-6.5,4.6-8.2l172.2-99.3c2.2-1.3,4.7-1.7,7.2-1c2.5,0.6,4.5,2.2,5.8,4.4c2.7,4.5,1.2,10.3-3.3,13l-157.7,90.6
		c-0.2,0.1-0.3,0.3-0.3,0.4S1111.8,1938.9,1111.9,1939z M1210.1,2281.2l-117.8,68v-67.5l117.8-68V2281.2z M378.2,3241.9l-117.8,68
		l0-67.5l117.8-68V3241.9z M-336.9,2098.5l3.5-5.3c0.2-0.3,1.5-2.8,1.5-4c-0.1-1.3-1.7-1.5-2.5-1.5c0,0-0.6-0.1-2.7-0.2
		c-0.4,0-0.7-0.2-0.9-0.4c-0.5-0.6-0.5-1.8-0.5-1.9v-12c1,0.2,2,0.3,3,0.3c0.3,0,0.5,0,0.8,0v8.9c0,0.6,0.2,1.1,0.5,1.4
		c0.3,0.2,0.6,0.3,0.8,0.3c0.5,0.1,4.8,0.6,5.1,3.7c0.3,3.5-1.2,6.2-1.2,6.2c-1,1.5-3.6,5.7-4.2,6.4c-0.9,1-0.8,2.9-0.8,3.1l0,39.7
		c0,0.1-0.1,1.8-1.9,1.9c-0.5,0-0.8-0.1-1.1-0.4c-0.7-0.6-0.7-1.8-0.7-1.8l0-41C-338.2,2099.9-336.9,2098.6-336.9,2098.5
		C-336.9,2098.5-336.9,2098.5-336.9,2098.5z M-353.2,2027.6c4.1-7.4,9.7-13.8,15.4-17.4l40.3-22.7c6.4-3.6,11.6-4.8,15.5-3.5
		c0.5,0.2,1,0.4,1.5,0.7c0.3,0.2,0.5,0.3,0.8,0.5c0.1,0,0.1,0.1,0.2,0.1l6.3,3.7c-3.7-0.3-8.2,1.1-13.6,4.1l-40.3,22.7
		c-5.9,3.7-11.6,10.2-15.8,17.8c-5.8,10.5-7.8,22.1-5.4,30.1c0.6,1.8,1.3,3.4,2.3,4.7l-7.9-4.7
		C-361.5,2058.3-361.2,2042.2-353.2,2027.6z M-347.2,2063.5c-2.4-7.8-0.4-19,5.3-29.3c4.1-7.4,9.7-13.8,15.4-17.4l40.2-22.6
		c4.7-2.6,8.8-4,12.1-4c1.8,0,3.4,0.4,4.8,1.2c8.8,5.2,9.1,21.5,0.6,37c-4.2,7.7-9.9,13.9-16,17.5c-0.2,0.1-21.8,12.8-33.4,19.6
		l-6.8,4c-3.1,1.7-6,2.7-8.8,3c-0.1-0.1-0.2-0.2-0.4-0.2c-0.2,0-0.4,0.1-0.4,0.3c-2.5,0.1-4.8-0.3-6.8-1.3
		C-344.1,2069.7-346.1,2067-347.2,2063.5z M-283.1,2061.9c0.2,0.8,0.9,1.2,1,1.2c0.1,0,2.6,1,4.2,1.3c1.2,0.2,1.2,1.3,1.2,1.5l0,44
		c0,0,0,0.4-0.3,0.8c-0.3,0.3-0.8,0.5-1.6,0.6c-0.7,0-1.2-0.1-1.5-0.4c-0.5-0.4-0.5-1-0.5-1c0,0-0.1-39.6-0.1-40.6
		c0-1-0.7-1.6-1.2-1.8c0,0-3.4-0.9-4.8-3.3c-0.6-1.1-0.8-2.3-0.4-3.7c0.6-2.3,2.1-6,6-10.3c0.1-0.1,0.2-0.2,0.2-0.3
		c0.5-0.6,0.5-1.3,0.5-1.3v-4.9c1.3-1.1,2.6-2.2,3.9-3.5c0,2.4,0,7.7,0,9c0,1.5-0.5,2.1-0.5,2.1c-0.2,0.2-4.4,5.4-5.8,7.8
		C-283.1,2060.3-283.3,2061.2-283.1,2061.9z M-327.2,2087.6c-0.4-4.1-5.8-4.6-6.1-4.6c0,0-0.1,0-0.1,0c0,0-0.1,0-0.1,0
		c0,0-0.2-0.2-0.2-0.6v-9c2.9-0.3,6-1.3,9.2-3.1l6.8-4c16.1-9.4,33.3-19.5,33.4-19.6c1-0.6,2-1.3,3-2l0,4.1c0,0,0,0.4-0.2,0.7
		c0,0-0.1,0.1-0.2,0.2c-4,4.4-5.6,8.3-6.3,10.7c-0.4,1.6-0.2,3.1,0.5,4.5c1.6,2.7,5.3,3.7,5.4,3.7c0,0,0.5,0.2,0.5,0.8
		c0,0.7,0,20,0,31.8l-52,30l0-27.7c0-0.5,0-1.8,0.5-2.4c0.8-0.9,4.2-6.3,4.3-6.5C-328.5,2094.3-326.9,2091.5-327.2,2087.6z
		 M-339.2,2135.6v7.4c0,0.1,0.1,1.6,1.1,2.5c0.5,0.4,1,0.6,1.7,0.6c0.1,0,0.1,0,0.2,0c2.2-0.1,2.8-1.9,2.9-2.9l0-11l52-30
		c0,4.5,0,7.6,0,7.6c0,0,0,1,0.8,1.8c0.5,0.5,1.2,0.7,2,0.7c0.1,0,0.2,0,0.3,0c1-0.1,1.8-0.4,2.3-1c0.6-0.7,0.5-1.4,0.5-1.5l0-11.1
		l233.1-134.4c2.2-1.3,4.7-1.6,7.2-1c2.5,0.6,4.5,2.2,5.8,4.4s1.6,4.7,1,7.2c-0.6,2.4-2.2,4.5-4.4,5.8l-455.4,262.4
		c-0.2,0.1-0.2,0.3-0.3,0.4s0.1,0.3,0.2,0.4L40,2553.5c0,0,0,0.1,0,0.1c0.1,0.2,0.3,0.2,0.4,0.2c0,0,0.1,0,0.1,0l77.5,45.4v10.1
		c0.1,1.6,1,4.7,3.9,4.7c0.1,0,0.1,0,0.2,0c3.4-0.1,4.6-2.7,4.6-5v-4.8l44.7,26.1l0,10.4c0.1,1.4,1,4,3.9,4c0.1,0,0.1,0,0.2,0
		c3.4-0.1,4.6-2.7,4.6-5l0-4.4l29.9,17.4l-9.8,5.7c0,0,0,0,0,0c-0.1,0-0.1,0.1-0.2,0.2c0,0.1-0.1,0.1-0.1,0.2c0,0,0,0,0,0v10
		L21.6,2564.8l1.1-0.6c5-2.9,6.8-9.3,3.9-14.3c-2.9-5-9.3-6.8-14.3-3.9l-11.5,6.7l-513.3-300.7c-2.9-1.7-4.7-4.8-4.7-8.2
		c0-3.4,1.8-6.5,4.7-8.2L-339.2,2135.6z M22.7,2074.8v-136.1l35.7-20.6v136.1L22.7,2074.8z M110.6,1750.7l30.5-17.6l0,0l108.7,62.7
		c0,0,0,0,0,0l9.2,5.3l-29.8,17.2L110.6,1750.7L110.6,1750.7z M-458.5,1602c-2.9-1.7-4.7-4.8-4.7-8.2s1.8-6.5,4.7-8.2l698.3-402.4
		c0,0,0,0,0,0l19.6-11.3c0,0,0,0,0,0l171.9-99.1c4.5-2.6,10.3-1.1,12.9,3.5c1.3,2.2,1.6,4.7,0.9,7.2c-0.7,2.4-2.2,4.5-4.4,5.8
		l-339.3,195.6l-11.8-6.8c-2.4-1.4-5.2-1.8-8-1s-5,2.5-6.4,4.9c-2.9,5-1.2,11.4,3.8,14.3l1.3,0.7l-514.5,296.5
		c-0.2,0.1-0.3,0.3-0.3,0.4s0.1,0.3,0.2,0.4l406.7,235l-19,10.9L-458.5,1602z M144.5,421.7l63.6,36.4l-7.8,4.5c0,0,0,0,0,0
		c0,0-0.1,0.1-0.1,0.1c0,0,0,0,0,0.1c0,0.1-0.1,0.1-0.1,0.2l0,12.3L140,441c-0.2-0.1-0.3-0.1-0.5,0l-572.9,330.5
		c-0.2,0.1-0.2,0.3-0.2,0.4s0.1,0.3,0.2,0.4L258,1171.5l-18.6,10.7l-695.9-402.3c-3.3-1.5-5.4-4.5-5.4-8.1c0-3.4,1.8-6.5,4.7-8.2
		l592.1-341.8C137.9,420,141.5,420,144.5,421.7z M331.2,345.6c0,3.7-5.3,6.7-11.9,6.7s-11.9-3-11.9-6.7s5.3-6.7,11.9-6.7
		S331.2,341.9,331.2,345.6z M307.5,361.6v-13c1.9,2.8,6.5,4.7,11.9,4.7s9.9-1.9,11.9-4.7v12.9c0,3.7-5.3,6.7-11.8,6.7c0,0,0,0-0.1,0
		s0,0-0.1,0C312.9,368.1,307.6,365.2,307.5,361.6C307.5,361.6,307.5,361.6,307.5,361.6z M318.8,379.7v20.1c0,0.3,0.2,0.5,0.5,0.5
		s0.5-0.2,0.5-0.5v-20.1c19.9,0.2,35.9,9.4,35.9,20.8c0,4.2-2.2,8.1-5.9,11.3c0,0,0,0,0,0c-6.5,5.7-17.8,9.5-30.5,9.5
		c-12.7,0-23.8-3.7-30.4-9.3c0,0,0,0,0,0c-0.1-0.1-0.1-0.2-0.2-0.2c-3.7-3.3-5.8-7.1-5.8-11.3C282.9,389.1,299,379.9,318.8,379.7z
		 M319.8,668.1V532l117.6-67.9l0.3,135.9L319.8,668.1z M319.3,463.8c0.3,0,0.5-0.2,0.5-0.5V442c19.9,0.2,35.9,9.4,35.9,20.8
		c0,11.5-16.3,20.8-36.4,20.8s-36.4-9.3-36.4-20.8c0-11.4,16.1-20.7,35.9-20.8v21.3C318.8,463.6,319,463.8,319.3,463.8z
		 M288.5,412.9c6.7,5.6,17.8,9.4,30.3,9.5V441c-20.4,0.2-36.9,9.9-36.9,21.8c0,12,16.8,21.8,37.4,21.8c20.6,0,37.4-9.8,37.4-21.8
		c0-11.9-16.5-21.7-36.9-21.8v-18.7c12.6-0.1,23.7-3.8,30.4-9.5l87,50.2l-117.8,68L201.5,463L288.5,412.9z M318.8,668.1l-107.7-62.2
		l51.6-29.8c5-2.9,6.7-9.4,3.7-14.3c-1.4-2.4-3.7-4.1-6.4-4.8c-2.7-0.7-5.5-0.3-7.9,1.1L201,587.6l0.1-123.7L318.8,532V668.1z
		 M11.6,720.7L284.4,878v9c0.1,1.6,1,4.7,3.9,4.7c0.1,0,0.1,0,0.2,0c3.4-0.1,4.6-2.7,4.6-5V883l44.7,25.8l0,9.3c0.1,1.4,1,4,3.9,4
		c0.1,0,0.1,0,0.2,0c3.4-0.1,4.6-2.7,4.6-5l0-3.3l70.2,40.5l-14.3,8.3c-0.2,0.1-0.3,0.3-0.2,0.4l0,1l-3.3,1.9L-10.9,729.6
		c-0.1-0.1-0.2-0.2-0.3-0.3c-2.2-0.7-4-2.2-5.2-4.2c-2.6-4.5-1.1-10.3,3.4-13l265.7-153.2c2.2-1.3,4.7-1.6,7.2-1
		c2.5,0.6,4.5,2.2,5.8,4.4c2.6,4.5,1.1,10.3-3.4,13L11.6,719.8c-0.2,0.1-0.3,0.3-0.3,0.4S11.4,720.6,11.6,720.7z M288.5,890.8
		c-2.8,0.1-3-3.6-3-3.7l0-86.6c2.3,2.1,4.7,3.2,6.6,2.9c0,0,0,0,0.1,0v83.5C292.1,887.4,291.9,890.6,288.5,890.8z M297.1,794.4
		l3.7,2.1c-0.5,0.7-1,1.1-1,1.1l-3.4,1.8C297,797.6,297.1,795.6,297.1,794.4z M299.8,798.7l0.4-0.2c0,0,0.7-0.5,1.4-1.5l29.2,17.1
		c0.5,9.2,3.7,13.9,6.8,16.3c0,0,0.1,0,0.1,0.1c0,0,0,0,0.1,0.1l0.1,77l-44.7-25.8V803c1.1-0.4,1.9-1.2,2.5-2l0,0L299.8,798.7z
		 M338.8,831.3c2.6,1.6,4.8,1.7,4.9,1.7c0.7-0.1,1.3-0.2,1.9-0.5l-0.1,84.5c0,0.6-0.2,3.8-3.6,4c-2.8,0.1-3-2.9-3-3L338.8,831.3z
		 M503.9,866.7c0,3.2-4.6,5.7-10.2,5.7c-5.6,0-10.2-2.6-10.2-5.7s4.6-5.7,10.2-5.7C499.3,861,503.9,863.5,503.9,866.7z M483.4,880.6
		v-11.1c1.8,2.3,5.7,4,10.2,4c4.6,0,8.5-1.6,10.2-4v11c0,3.2-4.6,5.7-10.2,5.7C488.1,886.2,483.5,883.7,483.4,880.6
		C483.4,880.6,483.4,880.6,483.4,880.6z M493.1,895.9l0,17.2c0,0.3,0.2,0.5,0.5,0.5h0c0.3,0,0.5-0.2,0.5-0.5l0-17.2
		c16.9,0.2,30.6,8,30.6,17.7c0,9.8-14,17.7-31.1,17.7s-31.1-8-31.1-17.7C462.5,903.9,476.2,896,493.1,895.9z M527.7,876.7
		c0-9.7,13.7-17.6,30.6-17.7l0,17.2c0,0.3,0.2,0.5,0.5,0.5h0c0.3,0,0.5-0.2,0.5-0.5l0-17.2c11.1,0.1,21.3,3.6,26.7,9.1
		c2.6,2.6,4,5.6,3.9,8.6c-0.1,4.6-3.1,8.8-8.1,11.9c0,0,0,0,0,0c-1.3,0.8-2.6,1.5-4.1,2.2c-0.1,0-0.2,0-0.2,0.1
		c-5.2,2.2-11.6,3.5-18.6,3.5C541.6,894.3,527.7,886.4,527.7,876.7z M569,829.8c0,3.2-4.6,5.7-10.2,5.7s-10.2-2.6-10.2-5.7
		c0-3.2,4.6-5.7,10.2-5.7S569,826.6,569,829.8z M548.6,843.6v-11.1c1.8,2.3,5.7,4,10.2,4s8.5-1.6,10.2-4v11c0,3.2-4.6,5.7-10.2,5.7
		C553.3,849.3,548.7,846.8,548.6,843.6C548.6,843.7,548.6,843.6,548.6,843.6z M497.1,1182.7l-108.2-62.5l52.3-30.1
		c2.4-1.4,4.2-3.7,4.9-6.4s0.4-5.5-1-8c-2.9-5-9.3-6.7-14.3-3.8l-50.8,29.3l-0.5-98.4l-0.1-24.2l0.1,0.1l117.7,67.9L497.1,1182.7z
		 M378.9,1101.8L259,1170.9l-691.2-399l571.9-329.9l60.3,34.5L200,588.2L-13.6,711.3c-5,2.9-6.7,9.4-3.7,14.3c1.2,2,3,3.6,5.2,4.4
		c0,0,0,0,0,0l409.8,236.3l-19.3,10.9c0,0,0,0,0,0c-0.1,0-0.1,0.1-0.2,0.2c0,0.1-0.1,0.2-0.1,0.2c0,0,0,0,0,0L378.9,1101.8z
		 M379.7,977.7l22.4-12.7l0,10.9c0,0.2,0.1,0.3,0.2,0.4l93.6,54c0,0,0,0,0,0c0.1,0,0.1,0.1,0.2,0.1h0c0.1,0,0.2,0,0.2-0.1
		c0,0,0,0,0,0l149.7-86.4c0.2-0.1,0.3-0.3,0.2-0.4l-0.2-12.7c0,0,0,0,0,0c0-0.1,0-0.2-0.1-0.2c0,0,0,0,0,0c0,0,0,0,0,0
		c0-0.1-0.1-0.1-0.2-0.2c0,0,0,0,0,0l-67.2-39.1c1.2-0.5,2.2-1.1,3.3-1.8l92.8,53.8l-177.4,102.2L379.7,977.7z M403.1,963.8
		l92.7,53.5l-0.1,11.7l-92.6-53.4l0-11.5c0,0,0,0,0,0c0,0,0,0,0,0L403.1,963.8z M496.7,1029.1l0.1-11.7l148.4-85.7l0.2,11.5
		L496.7,1029.1z M675.3,1080.4l-177.2,102.3l0-136.3l177.2-102.2V1080.4z M558.8,930.6c0.3,0,0.5-0.2,0.5-0.5v-17.7
		c16.9,0.2,30.6,8,30.6,17.7c0,9.8-14,17.7-31.1,17.7s-31.1-8-31.1-17.7c0-9.7,13.7-17.6,30.6-17.7v17.7
		C558.3,930.4,558.5,930.6,558.8,930.6z M533.3,888c5.8,4.4,14.8,7.3,25,7.4v16c-17.5,0.2-31.6,8.5-31.6,18.7
		c0,10.3,14.4,18.7,32.1,18.7s32.1-8.4,32.1-18.7c0-10.2-14.1-18.6-31.6-18.7v-16c6.8,0,13.2-1.3,18.4-3.6l67.1,39l-148.4,85.7
		l-92.8-53.6l14.3-8.3c0,0,0,0,0,0l50.7-29.3c0,0,0,0,0,0c5.8,4.2,14.6,6.9,24.5,7v16c-17.5,0.2-31.6,8.5-31.6,18.7
		c0,10.3,14.4,18.7,32.1,18.7c17.7,0,32.1-8.4,32.1-18.7c0-10.2-14.1-18.6-31.6-18.7v-16c17.5-0.2,31.6-8.5,31.6-18.7
		c0-5.8-4.6-11.1-11.8-14.5L533.3,888z M493.6,967.6c0.3,0,0.5-0.2,0.5-0.5v-17.7c16.9,0.2,30.6,8,30.6,17.7
		c0,9.8-14,17.7-31.1,17.7s-31.1-8-31.1-17.7c0-9.7,13.7-17.6,30.6-17.7v17.7C493.1,967.3,493.3,967.6,493.6,967.6z M319.2,1370
		c0.3-0.9,0-1.9-0.6-3c-1.6-2.8-6.6-9-6.8-9.2c0,0-0.6-0.8-0.6-2.6c0-1.7,0.1-12.4,0.1-16.3c1.5,1.9,3.1,3.7,4.8,5.3l0,10.3
		c0,0.1,0,0.9,0.5,1.5c0,0.1,0.1,0.2,0.3,0.3c4.6,5.1,6.4,9.5,7.2,12.3c0.4,1.7,0.3,3.2-0.5,4.5c-1.7,2.9-5.8,3.9-5.9,3.9
		c-0.1,0-1.2,0.6-1.2,2c0,1.1-0.1,40.2-0.1,40.2c0,0,0,0.8-0.6,1.3c-0.4,0.4-1,0.6-1.9,0.5c-0.9-0.1-1.6-0.3-1.9-0.7
		c-0.4-0.5-0.3-1-0.3-1l0-44.3c0-0.2,0.1-1.6,1.5-1.8c2-0.3,4.9-1.5,5-1.6C318.2,1371.4,318.9,1371,319.2,1370z M333.5,1295.6
		l35.9,20.2c5.1,3.2,10.1,8.9,13.7,15.5c7.2,13.1,7.4,27.4,0.6,32.2l-6.9,4c0.8-1.1,1.5-2.5,1.9-4c2.2-7.2,0.4-17.5-4.8-26.9
		c-3.7-6.8-8.8-12.5-14.1-15.9l-35.9-20.2c-4.7-2.6-8.6-3.9-11.9-3.7l5.4-3.2c0.1,0,0.1,0,0.2-0.1c0.2-0.2,0.5-0.3,0.7-0.5
		c0.4-0.2,0.9-0.5,1.3-0.6C323.1,1291.4,327.8,1292.4,333.5,1295.6z M312.7,1297.9c3,0,6.6,1.2,10.8,3.5l35.9,20.2
		c5.1,3.2,10.1,8.9,13.8,15.5c5,9.2,6.8,19.2,4.7,26.1c-1,3.2-2.8,5.5-5.2,6.8c-4,2-9.1,1.5-14.6-1.5l-6.7-3.9
		c-10.1-5.9-29-17-29.2-17.1c-5.4-3.2-10.5-8.8-14.2-15.6c-7.6-13.8-7.3-28.2,0.5-32.9C309.7,1298.3,311.1,1297.9,312.7,1297.9z
		 M368.3,1389.7c-2.4,0.2-3.2,0.3-3.2,0.3c-1.1,0-3,0.3-3.1,1.7c-0.1,1.4,1.6,4.5,1.8,4.9l4.2,6.4c0,0,0,0.1,0.1,0.1
		c0,0,1.6,1.6,1.6,4.2v41.8c0,0-0.1,1.5-0.9,2.3c-0.4,0.3-0.9,0.5-1.5,0.5c-2.3-0.1-2.5-2.4-2.5-2.4l0-40.2c0-0.1,0.2-2.5-0.9-3.8
		c-0.8-0.8-3.7-5.5-5.1-7.8c0,0-1.9-3.3-1.5-7.6c0.4-3.9,5.8-4.6,6.3-4.6c0.2,0,0.6,0,0.9-0.3c0.4-0.3,0.6-0.9,0.6-1.6v-11.2
		c0.8,0.1,1.5,0.2,2.2,0.2c0.9,0,1.8-0.1,2.6-0.3l0,14.8c0,0,0.1,1.5-0.6,2.3C369.2,1389.4,368.8,1389.6,368.3,1389.7z
		 M676.3,1511.7l4.2-6.4c0.2-0.3,1.9-3.4,1.8-4.9c-0.1-1.4-2-1.7-3-1.7c0,0-0.8-0.1-3.3-0.3c-0.5,0-0.9-0.2-1.2-0.6
		c-0.7-0.8-0.6-2.3-0.6-2.3v-14.8c0.9,0.2,1.7,0.3,2.6,0.3c0.7,0,1.5-0.1,2.2-0.2v11.2c0,0.7,0.2,1.3,0.6,1.6
		c0.4,0.3,0.8,0.3,0.9,0.3c0.5,0.1,6,0.7,6.3,4.6c0.4,4.3-1.5,7.6-1.5,7.6c-1.4,2.3-4.4,7-5.1,7.8c-1.1,1.2-0.9,3.7-0.9,3.7l0,40.2
		c0,0.1-0.2,2.3-2.5,2.5c-0.6,0-1.1-0.1-1.5-0.5c-0.9-0.8-0.9-2.3-0.9-2.3l0-41.8C674.6,1513.4,676.2,1511.8,676.3,1511.7
		C676.3,1511.8,676.3,1511.8,676.3,1511.7z M661.2,1440.1c3.6-6.6,8.6-12.3,13.7-15.5l35.9-20.2c5.7-3.2,10.4-4.3,13.7-3.1
		c0.5,0.2,0.9,0.4,1.3,0.6c0.2,0.1,0.5,0.3,0.7,0.5c0.1,0,0.1,0.1,0.2,0.1l5.4,3.2c-3.3-0.2-7.2,1-11.9,3.7l-35.9,20.2
		c-5.3,3.3-10.4,9.1-14.1,15.9c-5.2,9.4-7,19.7-4.8,26.9c0.5,1.5,1.1,2.9,1.9,4l-6.9-4C653.8,1467.5,654.1,1453.2,661.2,1440.1z
		 M666.5,1472.1c-2.1-6.9-0.3-16.9,4.7-26.1c3.6-6.6,8.6-12.3,13.7-15.5l35.9-20.2c4.2-2.4,7.8-3.5,10.8-3.5c1.6,0,3.1,0.4,4.3,1.1
		c7.8,4.7,8.1,19.1,0.5,32.9c-3.7,6.8-8.8,12.4-14.2,15.6c-0.3,0.2-33.6,19.7-35.9,21c-5.4,3-10.6,3.5-14.6,1.5
		C669.3,1477.6,667.5,1475.3,666.5,1472.1z M725.1,1478.8c0.3,1,1,1.4,1.1,1.4c0.1,0,3.1,1.2,5,1.6c1.5,0.3,1.5,1.7,1.5,1.8l0,44.4
		c0,0,0,0.5-0.3,1c-0.4,0.4-1,0.7-1.9,0.7c-0.8,0-1.4-0.1-1.9-0.5c-0.6-0.5-0.6-1.3-0.6-1.3c0,0-0.1-39.1-0.1-40.2
		c0-1.4-1.2-2-1.3-2c0,0-4.1-1-5.8-3.9c-0.8-1.3-0.9-2.8-0.5-4.5c0.7-2.8,2.6-7.2,7.2-12.3c0.1-0.1,0.2-0.2,0.3-0.3
		c0.5-0.7,0.5-1.4,0.5-1.5v-10.3c1.7-1.6,3.3-3.3,4.8-5.3c0,4,0.1,14.7,0.1,16.3c0,1.8-0.6,2.6-0.6,2.6c-0.2,0.3-5.2,6.4-6.8,9.2
		C725.1,1476.9,724.8,1478,725.1,1478.8z M895,1307.4c0-12.8,18-23.3,40.2-23.5v25.3c0,0.3,0.2,0.5,0.5,0.5s0.5-0.2,0.5-0.5v-25.3
		c22.5,0.1,40.7,10.6,40.7,23.5c0,4.4-2.1,8.6-5.9,12.1c0,0,0,0,0,0c-7.2,6.8-20.2,11.4-35.1,11.4
		C913.4,1330.9,895,1320.4,895,1307.4z M949.9,1244.6c0,4.3-6.1,7.7-13.7,7.7c-7.6,0-13.7-3.5-13.7-7.7s6.1-7.7,13.7-7.7
		C943.7,1236.9,949.9,1240.4,949.9,1244.6z M922.5,1263v-15.2c2.1,3.3,7.5,5.6,13.7,5.6c6.2,0,11.6-2.3,13.7-5.6v15.1
		c0,4.3-6.1,7.7-13.7,7.7C928.8,1270.6,922.7,1267.2,922.5,1263C922.5,1263,922.5,1263,922.5,1263z M935.7,1372.1
		c0.3,0,0.5-0.2,0.5-0.5v-23.7c22.2,0.2,40.2,10.7,40.2,23.5c0,13-18.4,23.5-41,23.5s-41-10.5-41-23.5c0-12.9,18.2-23.4,40.7-23.5
		v23.7C935.2,1371.9,935.4,1372.1,935.7,1372.1z M1155.2,1618.8l44.5,26.3v10.5c0.1,1.6,1,4.7,3.9,4.7c0.1,0,0.1,0,0.2,0
		c3.4-0.1,4.6-2.7,4.6-5v-5.1l44.7,26.4l0,10.3c0.1,1.4,1,4,3.9,4c0.1,0,0.1,0,0.2,0c3.4-0.1,4.6-2.7,4.6-5l0-4.2l17.8,10.5
		l-18.8,10.9l-110.7-65.5c-0.2-0.1-0.4-0.1-0.5,0l-116.6,70.5v-10c0,0,0,0,0,0c0-0.1,0-0.2-0.1-0.2c0-0.1-0.1-0.1-0.2-0.2
		c0,0,0,0,0,0l-9.8-5.6l122.9-73.4C1148.6,1617.1,1152.3,1617.1,1155.2,1618.8z M1183.6,1530.5c0-0.1,0.3-5.4,4-6.5
		c3.8-1.2,7.2,0.9,7.3,1l69.2,40c0.1,0,8,5.1,10.8,17.5l0.2,35.2c0,0.1,0.5,6.4-3.7,8.7c0,0-2.7,1.3-7.4-0.6c-0.2-0.1-0.4,0-0.5,0.1
		c-0.1,0.1-0.2,0.3-0.2,0.5c0,0,1,4.1-0.8,6.6c-0.8,1.1-2,1.8-3.6,1.9c-0.2,0-2.5-0.1-5-1.9c-0.1-0.1-0.1-0.1-0.2-0.2
		c-3-2.2-6.2-6.7-6.6-16.1c0-0.2-0.1-0.3-0.2-0.4l-34.8-20.4c-0.1,0-0.2-0.1-0.3-0.1c-0.1,0-0.2,0-0.3,0.1c-0.2,0.1-0.2,0.3-0.2,0.5
		c0,0.1,0.3,4.1-1.2,6.7l-0.1,0.1c-0.2,0.1-0.3,0.3-0.3,0.5c-0.6,0.8-1.4,1.4-2.6,1.5c-1.8,0.3-4.3-1-6.7-3.5
		c-3.4-3.6-6.6-9.9-5.5-15.3c0-0.2,0-0.4-0.2-0.5c-0.1-0.1-10.8-8-11.3-19.6C1182.9,1554.5,1183.6,1530.9,1183.6,1530.5z
		 M1200.1,1521.2l68.2,39.3c12,8,12.5,18.8,12.5,18.9l0.1,35c0.4,5.3-2.7,7.9-2.8,8l-3.5,2c1.7-3,1.4-6.5,1.4-6.7l-0.2-35.3
		c0,0,0-0.1,0-0.1c-2.8-12.9-10.9-18-11.2-18.2l-69.2-40c-0.1-0.1-2.4-1.5-5.5-1.5c3-1.7,5.2-2.4,5.2-2.4l0,0
		C1197.8,1519.9,1200.1,1521.2,1200.1,1521.2z M1263.7,1632.6c0.9-2,0.8-4.3,0.6-5.5c1.8,0.6,3.3,0.8,4.5,0.8
		c-0.4,2.1-1.8,2.9-1.8,3L1263.7,1632.6z M1257.1,1689.9c-2.8,0.1-3-2.9-3-3l-0.1-52.8c2.6,1.6,4.8,1.7,4.9,1.7
		c0.7-0.1,1.3-0.2,1.9-0.5l-0.1,50.6C1260.7,1686.6,1260.5,1689.8,1257.1,1689.9z M1212.3,1597.2l3.7,2.1c-0.5,0.7-1,1.1-1,1.1
		l-3.4,1.8C1212.2,1600.4,1212.3,1598.4,1212.3,1597.2z M1215.4,1601.3c0,0,0.7-0.5,1.4-1.5l29.2,17.1c0.5,9.4,3.8,14.1,6.9,16.4
		l0,42l-44.7-26.4v-43.2c1.1-0.4,1.9-1.2,2.5-2L1215.4,1601.3z M1203.7,1659.2c-2.8,0.1-3-3.6-3-3.7l0-52.3c2.3,2.1,4.7,3.2,6.6,2.9
		c0,0,0,0,0.1,0v49.2C1207.3,1655.9,1207.1,1659.1,1203.7,1659.2z M1091.9,2214c0.3,0,0.5-0.2,0.5-0.5v-25.9
		c24.3,0.2,43.9,11.7,43.9,25.7c0,14.2-20,25.7-44.6,25.7s-44.6-11.5-44.6-25.7c0-14.1,19.9-25.6,44.4-25.7v25.9
		C1091.4,2213.8,1091.6,2214,1091.9,2214z M1092.1,2169.1c-24.6,0-44.6-11.5-44.6-25.7c0-14,19.6-25.4,43.9-25.7v27.7
		c0,0.3,0.2,0.5,0.5,0.5s0.5-0.2,0.5-0.5v-27.7c24.5,0.1,44.4,11.6,44.4,25.7C1136.8,2157.6,1116.7,2169.1,1092.1,2169.1z
		 M539.4,2593.2l0,39.7c0,0.2-0.2,1.8-1.9,1.9c-0.5,0-0.8-0.1-1.1-0.4c-0.7-0.6-0.7-1.8-0.7-1.8v-41c0-2,1.3-3.3,1.3-3.4
		c0,0,0-0.1,0.1-0.1l3.5-5.3c0.2-0.3,1.5-2.8,1.5-4c-0.1-1.3-1.7-1.5-2.5-1.5c0,0-0.6-0.1-2.7-0.2c-0.4,0-0.7-0.2-0.9-0.4
		c-0.5-0.6-0.5-1.8-0.5-1.9v-12c1,0.2,2,0.3,3,0.3c0.3,0,0.5,0,0.8,0v8.9c0,0.6,0.2,1.1,0.5,1.4c0.3,0.2,0.6,0.3,0.8,0.3
		c0.5,0.1,4.8,0.6,5.1,3.7c0.3,3.5-1.2,6.2-1.2,6.2c-1,1.5-3.6,5.7-4.2,6.4C539.3,2591.1,539.4,2593.1,539.4,2593.2z M490.8,2826.4
		c-2.9,5-1.1,11.4,3.9,14.3l52.1,29.3l-108.1,62.4v-136l117.8-68l-0.3,122.9l-51.1-28.8c-2.4-1.4-5.3-1.7-8-1
		C494.5,2822.2,492.2,2824,490.8,2826.4z M436,3071.2c-0.3,0.3-0.8,0.5-1.6,0.6c-0.7,0-1.2-0.1-1.5-0.4c-0.5-0.4-0.5-1-0.5-1
		c0,0-0.1-39.6-0.1-40.6c0-1-0.7-1.6-1.2-1.8c0,0-3.4-0.9-4.8-3.3c-0.6-1.1-0.8-2.3-0.4-3.7c0.6-2.3,2.1-6,6-10.3
		c0.1-0.1,0.2-0.2,0.2-0.3c0.5-0.6,0.5-1.3,0.5-1.3v-4.9c1.3-1.1,2.6-2.2,3.9-3.5c0,2.4,0,7.7,0,9c0,1.5-0.5,2.1-0.5,2.1
		c-0.2,0.2-4.4,5.4-5.8,7.8c-0.6,1-0.8,1.9-0.5,2.6c0.2,0.8,0.9,1.2,1,1.2c0.1,0,2.6,1,4.2,1.3c1.2,0.2,1.2,1.3,1.2,1.5l0,44
		C436.3,3070.4,436.3,3070.9,436,3071.2z M378.5,3063.9l0,39.7c0,0.2-0.2,1.8-1.9,1.9c-0.5,0-0.8-0.1-1.1-0.4
		c-0.7-0.6-0.7-1.8-0.7-1.8l0-41c0-2,1.3-3.3,1.3-3.4c0,0,0-0.1,0.1-0.1l3.5-5.3c0.2-0.3,1.5-2.8,1.5-4c-0.1-1.3-1.7-1.5-2.5-1.5
		c0,0-0.6-0.1-2.7-0.2c-0.4,0-0.7-0.2-0.9-0.4c-0.5-0.6-0.5-1.8-0.5-1.9v-12c1,0.2,2,0.3,3,0.3c0.3,0,0.5,0,0.8,0v8.9
		c0,0.6,0.2,1.1,0.5,1.4c0.3,0.2,0.6,0.3,0.8,0.3c0.5,0.1,4.8,0.6,5.1,3.7c0.3,3.5-1.2,6.2-1.2,6.2c-1,1.5-3.6,5.7-4.2,6.4
		C378.3,3061.8,378.4,3063.7,378.5,3063.9z M259.9,3174.6c0.3,0,0.5-0.2,0.5-0.5v-25.9c24.3,0.2,43.9,11.7,43.9,25.7
		c0,14.2-20,25.7-44.6,25.7S215,3188,215,3173.8c0-14.1,19.9-25.6,44.4-25.7v25.9C259.4,3174.3,259.7,3174.6,259.9,3174.6z
		 M260.2,3129.7c-24.6,0-44.6-11.5-44.6-25.7c0-14,19.6-25.4,43.9-25.7v27.7c0,0.3,0.2,0.5,0.5,0.5s0.5-0.2,0.5-0.5v-27.7
		c24.5,0.1,44.4,11.6,44.4,25.7C304.8,3118.1,284.8,3129.7,260.2,3129.7z M175.5,2643.7c-2.8,0.1-3-2.9-3-3l-0.1-52.8
		c2.6,1.6,4.8,1.7,4.9,1.7c0.7-0.1,1.3-0.2,1.9-0.5l-0.1,50.6C179.1,2640.4,178.9,2643.6,175.5,2643.7z M177.3,2588.6
		c-0.2,0-2.5-0.1-5-1.9c-0.1-0.1-0.1-0.1-0.2-0.2c-3-2.2-6.2-6.7-6.6-16.1c0-0.2-0.1-0.3-0.2-0.4l-34.8-20.4c-0.1,0-0.2-0.1-0.3-0.1
		c-0.1,0-0.2,0-0.3,0.1c-0.2,0.1-0.2,0.3-0.2,0.5c0,0.1,0.3,4.1-1.2,6.7l-0.1,0.1c-0.2,0.1-0.3,0.3-0.3,0.5
		c-0.6,0.8-1.4,1.4-2.6,1.5c-1.8,0.3-4.3-1-6.7-3.5c-3.4-3.6-6.6-9.9-5.5-15.3c0-0.2,0-0.4-0.2-0.5c-0.1-0.1-10.8-8-11.3-19.6
		c-0.5-11.7,0.2-35.3,0.2-35.8c0-0.1,0.3-5.4,4-6.5c3.8-1.2,7.2,0.9,7.3,1l69.2,40c0.1,0,8.1,5.1,10.8,17.5l0.2,35.2
		c0,0.1,0.5,6.4-3.7,8.7c0,0-2.7,1.3-7.4-0.6c-0.2-0.1-0.4,0-0.5,0.1c-0.1,0.1-0.2,0.3-0.2,0.5c0,0,1,4.1-0.8,6.6
		C180.1,2587.8,178.8,2588.5,177.3,2588.6z M130.7,2551l3.7,2.1c-0.5,0.7-1,1.1-1,1.1l-3.4,1.8
		C130.7,2554.2,130.8,2552.1,130.7,2551z M133.9,2555.1c0,0,0.7-0.5,1.4-1.5l29.2,17.1c0.5,9.4,3.8,14.1,6.9,16.4l0,42l-44.7-26.1
		v-43.5c1.1-0.4,1.9-1.2,2.5-2L133.9,2555.1z M122.1,2613c-2.8,0.1-3-3.6-3-3.7l0-52.3c2.3,2.1,4.7,3.2,6.6,2.9c0,0,0,0,0.1,0v49.2
		C125.7,2609.7,125.6,2612.9,122.1,2613z M259.4,1813l-0.1,125.2l-29.7,17.2v-136.1l29.8-17.2l0,10.6
		C259.3,1812.7,259.3,1812.9,259.4,1813z M831.7,1950.8v-136.1l168.9-97.5l0.3,135.9L831.7,1950.8z M1001.6,1716.6l30.3-17.5v9.9
		c0,0.1,0,0.2,0,0.2v125.9l-30,17.3L1001.6,1716.6z M434.3,2143c4.6,0,8.5-1.6,10.2-4v11c0,3.2-4.6,5.7-10.2,5.7
		c-5.5,0-10.1-2.5-10.2-5.6c0,0,0,0,0-0.1v-11.1C425.9,2141.4,429.8,2143,434.3,2143z M424.1,2136.3c0-3.2,4.6-5.7,10.2-5.7
		c5.6,0,10.2,2.6,10.2,5.7c0,3.2-4.6,5.7-10.2,5.7C428.7,2142,424.1,2139.5,424.1,2136.3z M499.5,2106.1c4.6,0,8.5-1.6,10.2-4v11
		c0,3.2-4.6,5.7-10.2,5.7c-5.5,0-10.1-2.5-10.2-5.6c0,0,0,0,0-0.1v-11.1C491,2104.5,495,2106.1,499.5,2106.1z M489.3,2099.4
		c0-3.2,4.6-5.7,10.2-5.7c5.6,0,10.2,2.6,10.2,5.7c0,3.2-4.6,5.7-10.2,5.7C493.9,2105.1,489.3,2102.5,489.3,2099.4z M182.8,2580.8
		c1.8,0.6,3.3,0.8,4.5,0.8c-0.4,2.1-1.8,2.9-1.8,3l-3.3,1.7C183.1,2584.4,183,2582.1,182.8,2580.8z M194.4,2571.4l-0.2-35.3
		c0,0,0-0.1,0-0.1c-2.8-12.9-10.9-18-11.2-18.2l-69.2-40c-0.1-0.1-2.4-1.5-5.5-1.5c3-1.7,5.2-2.4,5.2-2.4c2.7-0.3,5,1,5,1l28.5,16.4
		c0,0.1,0,0.2,0.1,0.3c0.1,0.2,0.3,0.2,0.4,0.2c0.1,0,0.2,0,0.2-0.1l0,0l38.9,22.4c12,8,12.5,18.8,12.5,18.9l0.1,35
		c0.4,5.3-2.7,7.9-2.8,8l-3.5,2C194.7,2575.2,194.4,2571.6,194.4,2571.4z M100.9,2519c0,0.4,0,0.7,0,1.1c0.5,11,9.7,18.8,11.4,20.1
		c-1,5.6,2.1,12,5.8,15.8v42l-76.5-44.8L100.9,2519z M742.2,1865.3c-2.9-5-9.3-6.7-14.3-3.8l-51,29.5l-0.1-123.1l117.4,67.9l0,136.1
		l-107.7-62.2l51.9-30C743.4,1876.8,745.1,1870.3,742.2,1865.3z M728.4,1862.4c4.5-2.6,10.3-1.1,12.9,3.5c2.6,4.5,1.1,10.3-3.5,12.9
		l-488.2,282.1c-0.2,0.1-0.2,0.3-0.2,0.4s0.1,0.3,0.2,0.4l107.6,62.1l-14.3,8.3c-0.2,0.1-0.3,0.3-0.2,0.4l0,0.5l-3.6,2.1
		l-113.7-65.8c-2.9-1.7-4.8-4.8-4.8-8.2c0-3.4,1.8-6.5,4.7-8.2L728.4,1862.4z M434.9,2165.5c16.9,0.2,30.6,8,30.6,17.7
		c0,9.8-14,17.7-31.1,17.7s-31.1-8-31.1-17.7c0-9.7,13.7-17.6,30.6-17.7l0,17.2c0,0.3,0.2,0.5,0.5,0.5h0c0.3,0,0.5-0.2,0.5-0.5
		L434.9,2165.5z M434.3,2237.2c0.3,0,0.5-0.2,0.5-0.5v-17.7c16.9,0.2,30.6,8,30.6,17.7c0,9.8-14,17.7-31.1,17.7s-31.1-8-31.1-17.7
		c0-9.7,13.7-17.6,30.6-17.7v17.7C433.8,2236.9,434.1,2237.2,434.3,2237.2z M409.3,2194.9c5.8,4.2,14.6,6.9,24.5,7v16
		c-17.5,0.2-31.6,8.5-31.6,18.7c0,10.3,14.4,18.7,32.1,18.7c17.7,0,32.1-8.4,32.1-18.7c0-10.2-14.1-18.6-31.6-18.7v-16
		c17.5-0.2,31.6-8.5,31.6-18.7c0-5.8-4.6-11.1-11.8-14.5l19.3-11.2c5.8,4.4,14.8,7.3,25,7.4v16c-17.5,0.2-31.6,8.5-31.6,18.7
		c0,10.3,14.4,18.7,32.1,18.7c17.7,0,32.1-8.4,32.1-18.7c0-10.2-14.1-18.6-31.6-18.7v-16c6.8,0,13.2-1.3,18.4-3.6l67.1,39
		l-148.4,85.7l-92.8-53.6L409.3,2194.9C409.3,2194.9,409.3,2194.9,409.3,2194.9z M500,2128.6c11.1,0.1,21.3,3.6,26.7,9.1
		c2.6,2.6,4,5.6,3.9,8.6c-0.1,5.8-4.9,10.9-12.3,14.1c-0.1,0-0.1,0-0.2,0.1c-5.1,2.2-11.5,3.5-18.4,3.5c-0.1,0-0.2,0-0.2,0
		c-17.2-0.1-31.1-8-31.1-17.7c0-9.7,13.7-17.6,30.6-17.7l0,17.2c0,0.3,0.2,0.5,0.5,0.5h0c0.3,0,0.5-0.2,0.5-0.5L500,2128.6z
		 M438.2,2315.2l-117.8-68l22.5-13l0,11.4c0,0.2,0.1,0.3,0.2,0.4l93.6,54c0,0,0,0,0,0c0.1,0,0.1,0.1,0.2,0.1h0c0.1,0,0.2,0,0.2-0.1
		c0,0,0,0,0,0l149.7-86.4c0.2-0.1,0.3-0.3,0.2-0.4l-0.2-12.7c0,0,0,0,0,0c0-0.1,0-0.2-0.1-0.2c0,0,0,0,0,0c0,0,0,0,0,0
		c0-0.1-0.1-0.1-0.2-0.2c0,0,0,0,0,0l-67.2-39.1c1.2-0.5,2.2-1.1,3.3-1.8l92.5,53.8L438.2,2315.2z M615.5,2214l0.5,135.7
		l-177.4,102.5l0-136.1L615.5,2214z M386.3,2342.2c2.6,4.5,1,10.3-3.5,12.9l-234.9,135.6l-19-10.9l244.5-141.2
		C377.9,2336.1,383.7,2337.7,386.3,2342.2z M383.3,2356c5-2.9,6.8-9.3,3.9-14.3c-2.9-5-9.3-6.8-14.3-3.9l-52.3,30.2l-0.6-119.8
		l117.6,67.9l0,136.3l-110.3-64.1L383.3,2356z M343.8,2233.6c0,0,0-0.1,0-0.2l92.8,53.6l-0.1,11.7l-92.6-53.4l0-11.5
		C343.8,2233.7,343.8,2233.6,343.8,2233.6z M437.4,2298.7l0.1-11.7l148.4-85.7l0.2,11.5L437.4,2298.7z M499.5,2200.2
		c0.3,0,0.5-0.2,0.5-0.5V2182c16.9,0.2,30.6,8,30.6,17.7c0,9.8-14,17.7-31.1,17.7s-31.1-8-31.1-17.7c0-9.7,13.7-17.6,30.6-17.7v17.7
		C499,2200,499.2,2200.2,499.5,2200.2z M830.7,1951.3l-35.5,20.5l0-136.1l35.6-20.5V1951.3z M794.7,1834.9l-117.8-68.1l34.6-20
		l118.7,67.6L794.7,1834.9z M260.1,1938.9c0.2-0.1,0.2-0.3,0.2-0.4l0.1-125.4L557,1641.6l166.7,97.1l-47.7,27.5
		c-0.2,0.1-0.2,0.3-0.2,0.4l0.1,125L225,2152c-3.2,1.9-5.2,5.4-5.2,9.1s2,7.2,5.3,9.1l113.2,65.5l-18.9,10.9
		c-0.2,0.1-0.3,0.3-0.2,0.4l0.6,121.5l-191.8,110.7l-8.8-5.1c-0.1-0.1-2.6-1.5-5.7-1.1c-0.1,0-3.5,1-7.4,3.8c-0.1,0-0.1,0-0.2,0
		c-4.4,1.3-4.7,7.2-4.7,7.4c0,0,0,0,0,0c0,0.1-0.1,4.6-0.2,10.6l-80.1,46.2L-487,2243.7l400-230.5l109,62.9c0,0,0,0,0,0
		c0.1,0,0.1,0.1,0.2,0.1s0.2,0,0.2-0.1c0,0,0,0,0,0L260.1,1938.9z M21.8,2541.6l79-45.6c-0.1,6.9-0.2,15.6,0,21.9l-60.2,34.8
		L21.8,2541.6z M211.3,2653.3C211.3,2653.3,211.3,2653.3,211.3,2653.3l108.1-62.4l30.9,17.8l-118.3,67.8l-30.4-17.6L211.3,2653.3z
		 M232.4,2677.9l169.3,97.8l-0.4,135.8l-169.2-97.6L232.4,2677.9z M231.4,2677.4l-0.2,136l-30.3-17.5v-136.1L231.4,2677.4z
		 M402.4,2912.1l0.4-135.8l34.9,20.2v136L402.4,2912.1z M435.2,3023.9c-1.5-0.3-4-1.2-4-1.2c0,0-0.3-0.2-0.5-0.6
		c-0.1-0.5,0-1.1,0.4-1.8c1.3-2.3,5.6-7.6,5.7-7.7c0.1-0.1,0.7-0.9,0.7-2.7c0-1.6,0-8.8-0.1-10.1c2.8-3,5.3-6.6,7.5-10.6
		c8.8-16,8.3-32.8-1-38.3c-0.4-0.2-0.8-0.4-1.1-0.6c0,0,0,0,0,0l-10.1-6c0,0,0,0,0,0c-0.5-0.3-1.1-0.6-1.7-0.8
		c-4.1-1.4-9.6-0.2-16.3,3.5l-40.3,22.7c-5.9,3.7-11.6,10.2-15.8,17.8c-8.4,15.4-8.6,31.6-0.4,37.5c0,0,0,0,0,0l0.1,0
		c0.1,0.1,0.2,0.2,0.4,0.3c0,0,0.1,0,0.2,0l11.6,6.8c0,0,0,0,0.1,0c0.1,0.1,0.2,0.2,0.4,0.2c0.8,0.4,1.5,0.7,2.4,0.9l0,12.2
		c0,0.1-0.1,1.6,0.7,2.5c0.4,0.5,0.9,0.7,1.6,0.8c2,0.2,2.6,0.2,2.7,0.2c0.5,0,1.6,0.1,1.6,0.5c0,0.7-0.8,2.5-1.3,3.5l-3.4,5.2
		c-0.3,0.3-1.6,1.8-1.6,4l0,35.9c0,0,0,0,0,0l-62.2,35.9l-19.3-11.2c8.4-4.8,13.7-11.6,13.7-19c0-14.7-20.3-26.6-45.4-26.7v-12.5
		c8.8,0,16-4.3,16-9.5v-19.5c0,0,0-0.1,0-0.1c0-0.1,0-0.2,0-0.3c0-5.2-7.2-9.5-16-9.5c-8.8,0-16,4.3-16,9.5c0,0.1,0,0.2,0,0.3
		c0,0,0,0.1,0,0.1c0,0.1,0,0.1,0,0.2c0,0,0,0,0,0v19.5c0,0,0,0.1,0,0.1c0.3,4.9,6.8,8.8,14.9,9.1v12.5
		c-24.8,0.2-44.9,12.1-44.9,26.7c0,7.4,5.1,14,13.4,18.9l-17.1,9.9l-586.5-338.5l396.3-228.8L200,2670.1v126.1
		c0,0.2,0.1,0.3,0.2,0.4l237.7,137.2c0.1,0,0.2,0.1,0.2,0.1s0.2,0,0.2-0.1l109.4-63.2l111.5,62.8l-222,128.2l0-35.2
		C437.3,3025.7,436.8,3024.2,435.2,3023.9z M380,3061.4c0.8-0.9,4.2-6.3,4.3-6.5c0.1-0.1,1.7-3,1.4-6.8c-0.4-4.1-5.8-4.6-6.1-4.6
		c0,0-0.1,0-0.1,0c0,0-0.1,0-0.1,0c0,0-0.2-0.2-0.2-0.6v-9c2.9-0.3,6-1.3,9.2-3.1l9.1-5.3c15.7-9.2,31-18.2,31.1-18.2
		c1-0.6,2-1.3,3-2l0,4.1c0,0,0,0.4-0.2,0.7c0,0-0.1,0.1-0.2,0.2c-4,4.4-5.6,8.3-6.3,10.7c-0.4,1.6-0.2,3.1,0.5,4.5
		c1.6,2.7,5.3,3.7,5.4,3.7c0,0,0.5,0.2,0.5,0.8c0,0.7,0,24.2,0,35.1l-52,30l0-31.1C379.4,3063.3,379.4,3062,380,3061.4z
		 M428.2,3006.2c-0.2,0.1-19.6,11.5-31.1,18.2l-9.1,5.3c-6.1,3.4-12,4-16.4,1.7c-2.7-1.4-4.8-4-5.9-7.6c-2.4-7.8-0.4-19,5.3-29.3
		c4.1-7.4,9.7-13.8,15.4-17.4l40.2-22.6c4.7-2.6,8.8-4,12.1-4c1.8,0,3.4,0.4,4.8,1.2c8.8,5.2,9.1,21.5,0.6,37
		C439.9,2996.4,434.3,3002.6,428.2,3006.2z M439.7,2949.5c-3.7-0.3-8.2,1.1-13.6,4.1l-40.3,22.7c-5.9,3.7-11.6,10.2-15.8,17.8
		c-5.8,10.5-7.8,22.1-5.4,30.1c0.6,1.8,1.3,3.4,2.3,4.7l-7.9-4.7c-7.6-5.4-7.4-21.5,0.7-36.2c4.1-7.4,9.7-13.8,15.4-17.4l40.3-22.7
		c6.4-3.6,11.6-4.8,15.5-3.5c0.5,0.2,1,0.4,1.5,0.7c0.3,0.2,0.5,0.3,0.8,0.5c0.1,0,0.1,0.1,0.2,0.1L439.7,2949.5z M260.4,3045
		c6.9,0,12.7-2.6,15-6.2v16.6c0,4.7-6.7,8.5-15,8.5c-8,0-14.7-3.7-15-8.3c0,0,0-0.1,0-0.1v-16.7C247.7,3042.4,253.6,3045,260.4,3045
		z M245.5,3035.5c0-4.7,6.7-8.5,15-8.5c8.2,0,15,3.8,15,8.5s-6.7,8.5-15,8.5C252.2,3044,245.5,3040.2,245.5,3035.5z M438.2,2795.6
		l-35-20.2l118.3-67.8l34.5,19.9L438.2,2795.6z M402.2,2774.8l-169.3-97.7l118.3-67.8l107.5,62.1c0,0,0,0,0,0l20,11.5c0,0,0,0,0,0
		l41.8,24.2L402.2,2774.8z M540.9,2590.8c0.8-0.9,4.2-6.3,4.3-6.5c0.1-0.1,1.7-3,1.4-6.8c-0.4-4.1-5.8-4.6-6.1-4.6c0,0-0.1,0-0.1,0
		c0,0-0.1,0-0.1,0c0,0-0.2-0.2-0.2-0.6v-9c2.9-0.3,6-1.3,9.2-3.1l8.8-5.2c15.9-9.3,31.3-18.4,31.4-18.4c1-0.6,2-1.3,3-2l0,4.1
		c0,0,0,0.4-0.2,0.7c0,0-0.1,0.1-0.2,0.2c-4,4.4-5.6,8.3-6.3,10.7c-0.4,1.6-0.2,3.1,0.5,4.5c1.6,2.7,5.3,3.7,5.4,3.7
		c0,0,0.5,0.2,0.5,0.8c0,0.7,0,23,0,34.2l-52,30l0-30.1C540.4,2592.7,540.4,2591.4,540.9,2590.8z M589.2,2535.6
		c-0.2,0.1-19.8,11.6-31.4,18.4l-8.8,5.2c-3.1,1.7-6,2.7-8.8,3c-0.1-0.1-0.2-0.2-0.4-0.2c-0.2,0-0.4,0.1-0.4,0.3
		c-2.5,0.1-4.8-0.3-6.8-1.3c-2.7-1.4-4.8-4-5.9-7.6c-2.4-7.8-0.4-19,5.3-29.3c4.1-7.4,9.7-13.8,15.4-17.4l40.2-22.6
		c4.7-2.6,8.8-4,12.1-4c1.8,0,3.4,0.4,4.8,1.2c8.8,5.2,9.1,21.5,0.6,37C600.9,2525.7,595.3,2532,589.2,2535.6z M528,2558.2l-7.9-4.7
		c-7.6-5.4-7.4-21.5,0.7-36.2c4.1-7.4,9.7-13.8,15.4-17.4l40.3-22.7c6.4-3.6,11.6-4.8,15.5-3.5c0.5,0.2,1,0.4,1.5,0.7
		c0.3,0.2,0.5,0.3,0.8,0.5c0.1,0,0.1,0.1,0.2,0.1l6.3,3.7c-3.7-0.3-8.2,1.1-13.6,4.1l-40.3,22.7c-5.9,3.7-11.6,10.2-15.8,17.8
		c-5.8,10.5-7.8,22.1-5.4,30.1C526.2,2555.4,527,2556.9,528,2558.2z M592.2,2557.4c0,0-3.4-0.9-4.8-3.3c-0.6-1.1-0.8-2.3-0.4-3.7
		c0.6-2.3,2.1-6,6-10.3c0.1-0.1,0.2-0.2,0.2-0.3c0.5-0.6,0.5-1.3,0.5-1.3v-4.9c1.3-1.1,2.6-2.2,3.9-3.5c0,2.4,0,7.7,0,9
		c0,1.5-0.5,2.1-0.5,2.1c-0.2,0.2-4.4,5.4-5.8,7.8c-0.6,1-0.8,1.9-0.5,2.6c0.2,0.8,0.9,1.2,1,1.2c0.1,0,2.6,1,4.2,1.3
		c1.2,0.2,1.2,1.3,1.2,1.5l0,44c0,0,0,0.4-0.3,0.8c-0.3,0.3-0.8,0.5-1.6,0.6c-0.7,0-1.2-0.1-1.5-0.4c-0.5-0.4-0.5-1-0.5-1
		c0,0-0.1-39.6-0.1-40.6C593.4,2558.2,592.7,2557.6,592.2,2557.4z M1092.4,2084.4c6.9,0,12.7-2.6,15-6.2v16.6c0,4.7-6.7,8.5-15,8.5
		c-8,0-14.7-3.7-15-8.3c0,0,0-0.1,0-0.1v-16.7C1079.7,2081.8,1085.5,2084.4,1092.4,2084.4z M1077.4,2075c0-4.7,6.7-8.5,15-8.5
		c8.2,0,15,3.8,15,8.5s-6.7,8.5-15,8.5C1084.1,2083.4,1077.4,2079.6,1077.4,2075z M1210.6,1732.1c-0.1,0-0.1,0.1-0.2,0.2
		c0,0,0,0,0,0c0,0.1-0.1,0.1-0.1,0.2c0,0,0,0,0,0l-0.2,126.2l-122.9,70.8c-3.2,1.9-5.1,5.3-5.1,9s2,7.1,5.2,9l223.2,128.2
		l-167.9,97.2l-18.4-10.6c8.4-4.8,13.6-11.6,13.6-19c0-14.7-20.3-26.6-45.4-26.7v-12.5c8.8,0,16-4.3,16-9.5v-19.5c0,0,0-0.1,0-0.1
		c0-0.1,0-0.2,0-0.3c0-5.2-7.2-9.5-16-9.5c-8.8,0-16,4.3-16,9.5c0,0.1,0,0.2,0,0.3c0,0,0,0.1,0,0.1c0,0.1,0,0.1,0,0.2c0,0,0,0,0,0
		v19.5c0,0,0,0.1,0,0.1c0.3,4.9,6.8,8.8,14.9,9.1v12.5c-24.8,0.2-44.9,12.1-44.9,26.7c0,7.3,5.1,13.9,13.2,18.8l-87,50.2
		c0,0,0,0,0,0c-0.1,0-0.1,0.1-0.2,0.2s-0.1,0.1-0.1,0.2c0,0,0,0,0,0v68.6c0,0.2,0.1,0.3,0.2,0.4l17.8,10.3l-290.6,168.3
		c-3.2,1.9-5.2,5.3-5.2,9.1s2,7.2,5.2,9.1l45.8,26.4l-147.4,85l0-34.2c0-0.7-0.4-2.2-2-2.5c-1.5-0.3-4-1.2-4-1.2
		c0,0-0.3-0.2-0.5-0.6c-0.1-0.5,0-1.1,0.4-1.8c1.3-2.3,5.6-7.6,5.7-7.7c0.1-0.1,0.7-0.9,0.7-2.8c0-1.6,0-8.8-0.1-10.1
		c2.8-3,5.3-6.6,7.5-10.6c8.8-16,8.3-32.8-1-38.3c-0.4-0.2-0.8-0.4-1.1-0.6c0,0,0,0,0,0l-10.1-6c0,0,0,0,0,0
		c-0.5-0.3-1.1-0.6-1.7-0.8c-4.1-1.4-9.6-0.2-16.3,3.5l-40.3,22.7c-5.9,3.7-11.6,10.2-15.8,17.8c-8.4,15.4-8.6,31.6-0.4,37.5
		c0,0,0,0,0,0l0.1,0c0.1,0.1,0.2,0.2,0.4,0.3c0,0,0.1,0,0.2,0l11.6,6.8c0,0,0,0,0.1,0c0.1,0.1,0.2,0.2,0.4,0.2
		c0.8,0.4,1.5,0.7,2.4,0.9l0,12.2c0,0.1-0.1,1.6,0.7,2.5c0.4,0.5,0.9,0.7,1.6,0.8c2,0.2,2.6,0.2,2.7,0.2c0.5,0,1.6,0.1,1.6,0.5
		c0,0.7-0.8,2.5-1.3,3.5l-3.4,5.2c-0.3,0.3-1.6,1.8-1.6,4l0,35l-75.7,43.7l-139.3-80.5c-0.2-0.1-0.3-0.1-0.5,0L211,2652.3l-30.9-18
		l0.1-45.6c0.3-0.2,0.5-0.3,0.7-0.5c0,0,0,0,0.1,0l5-2.7c0.1,0,1.9-1.2,2.3-3.9c1.1-0.1,1.8-0.5,1.8-0.5c0.4-0.2,0.8-0.5,1.2-0.8
		c0,0,0.1,0,0.1,0l5.6-3.2c0.1-0.1,3.6-3,3.2-8.8l-0.1-34.9c0-0.5-0.4-11.4-12.9-19.8l-38.4-22.2l177.5-102.5l111.4,64.7
		c0.1,0,0.2,0.1,0.3,0.1c0.1,0,0.2,0,0.2-0.1l178.6-103.2c0.2-0.1,0.3-0.3,0.2-0.4l-0.5-137.2c0-0.2-0.1-0.3-0.2-0.4l-92.6-53.8
		c4.9-3.3,7.9-7.6,7.9-12.3c0-3.3-1.4-6.5-4.2-9.4c-5.6-5.7-16.1-9.3-27.4-9.4l0-7.7c6-0.2,10.7-3.1,10.7-6.7v-13.5c0,0,0-0.1,0-0.1
		c0-0.1,0-0.1,0-0.2c0-3.7-5-6.7-11.2-6.7s-11.2,3-11.2,6.7c0,0.1,0,0.2,0,0.3c0,0,0,0.1,0,0.1v13.5c0,0,0,0.1,0,0.1
		c0.2,3.5,4.9,6.3,10.7,6.4l0,7.7c-17.5,0.2-31.6,8.5-31.6,18.7c0,3.9,2.1,7.6,5.8,10.6l-19.6,11.3c-5.2-2.3-11.7-3.7-18.7-3.7
		l0-7.7c6-0.2,10.7-3.1,10.7-6.7v-13.5c0,0,0-0.1,0-0.1c0-0.1,0-0.1,0-0.2c0-3.7-5-6.7-11.2-6.7s-11.2,3-11.2,6.7c0,0.1,0,0.2,0,0.3
		c0,0,0,0.1,0,0.1v13.5c0,0,0,0.1,0,0.1c0.2,3.5,4.9,6.3,10.7,6.4l0,7.7c-17.5,0.2-31.6,8.5-31.6,18.7c0,4.1,2.3,8,6.2,11.1
		l-50.1,29L251,2161.3l434.5-251.1l108.9,62.9c0.1,0,0.2,0.1,0.2,0.1s0.2,0,0.2-0.1l237.7-137.2c0.2-0.1,0.2-0.3,0.2-0.4v-126.1
		l116.9-70.7l109.9,65L1210.6,1732.1C1210.6,1732.1,1210.6,1732.1,1210.6,1732.1z M1031.4,1698.2l-30.3,17.5l-118.3-67.8l30.7-17.8
		L1031.4,1698.2z M745,1727.6c0-0.1,0-0.1,0.1-0.2l136.7-78.9l118.3,67.8l-168.9,97.5l-118.7-67.6l12.2-7.1c0,0,0.1,0,0.1,0
		c0.2,0,0.3-0.1,0.4-0.2c0,0,0-0.1,0-0.1l19.2-11.1C744.7,1727.9,744.9,1727.8,745,1727.6z M724.7,1738.1l-169.7-98.8
		c-4.5-2.6-6.1-8.4-3.5-12.9c1.3-2.2,3.3-3.8,5.7-4.4c2.4-0.7,5-0.3,7.2,0.9l179,104.5L724.7,1738.1z M864.4,1463.7l24.9-14.4
		c2.4-1.4,4.1-3.7,4.8-6.4c0.7-2.7,0.3-5.5-1.1-7.9c-1.4-2.4-3.7-4.1-6.4-4.8c-2.7-0.7-5.5-0.3-7.9,1.1l-35.3,20.4l-19.7-11.7
		l0-67.5l118.3,68.4l0.7,67.8L864.4,1463.7z M688,1498.6c-0.5-4.9-7-5.5-7.3-5.5c0,0-0.1,0-0.1,0c0,0-0.1,0-0.2-0.1
		c-0.1-0.1-0.2-0.3-0.2-0.9v-11.4c2.1-0.4,4.3-1.3,6.6-2.5c0.4-0.2,35.8-20.9,35.9-21c1.6-0.9,3.1-2.1,4.6-3.4l0,9.4
		c0,0,0,0.5-0.3,0.8c0,0-0.1,0.1-0.2,0.3c-4.8,5.2-6.6,9.8-7.4,12.7c-0.5,1.9-0.3,3.7,0.6,5.2c1.9,3.2,6.2,4.3,6.3,4.3
		c0.1,0,0.7,0.3,0.7,1.1c0,0.8,0,19.7,0,31.4l-46.5,26.9l0-28.1c-0.1-0.6,0-2.2,0.6-3c1-1.1,5.1-7.7,5.2-8
		C686.5,1506.7,688.5,1503.2,688,1498.6z M673.6,1557.8c0,0.1,0.1,1.9,1.3,3c0.5,0.5,1.2,0.7,2,0.7c0.1,0,0.2,0,0.2,0
		c2.6-0.2,3.3-2.3,3.4-3.4l0-11l46.5-26.9c0,4.6,0,7.7,0,7.7c0,0,0,1.2,0.9,2c0.6,0.5,1.3,0.8,2.3,0.8c0.1,0,0.2,0,0.3,0
		c1.2-0.1,2.1-0.4,2.6-1.1c0.7-0.8,0.6-1.7,0.6-1.7l0-11.7l145.5-84.1c2.2-1.3,4.7-1.6,7.2-1c2.4,0.6,4.5,2.2,5.8,4.4
		c1.3,2.2,1.6,4.7,1,7.2c-0.6,2.4-2.2,4.5-4.4,5.8l-312,180.4l-11.9-7c-2.4-1.4-5.2-1.8-8-1c-2.7,0.7-5,2.5-6.4,4.9
		c-2.9,5-1.2,11.4,3.9,14.3l1.5,0.9l-295.6,170.9l0-10.7c0,0,0,0,0,0c0-0.1,0-0.2-0.1-0.2c0-0.1-0.1-0.1-0.2-0.2c0,0,0,0,0,0
		l-9.2-5.3L673.6,1551V1557.8z M596.7,1594.4l-517.1-299c-4.5-2.6-6.1-8.4-3.5-12.9c1.3-2.2,3.3-3.8,5.8-4.4s5-0.3,7.2,0.9
		L310.6,1407l0,12.1c0,0-0.1,0.9,0.6,1.7c0.6,0.7,1.4,1,2.6,1.1c0.1,0,0.2,0,0.3,0c1,0,1.7-0.3,2.3-0.8c0.9-0.8,0.9-2,0.9-2
		c0,0,0-3.4,0-8.2l46.5,26.9v11.5c0.1,1.1,0.8,3.2,3.4,3.4c0.1,0,0.2,0,0.2,0c0.8,0,1.4-0.2,2-0.7c1.2-1.1,1.3-2.9,1.3-3v-7.2
		l244.9,141.7L596.7,1594.4z M325,1368.2c-0.8-2.9-2.6-7.5-7.4-12.7c-0.1-0.1-0.2-0.2-0.2-0.3c-0.3-0.4-0.3-0.8-0.3-0.9v-9.4
		c1.5,1.3,3,2.4,4.6,3.4c0.1,0.1,15.1,8.9,29.2,17.1l6.7,3.9c2.3,1.2,4.5,2.1,6.6,2.5v11.4c0,0.6-0.1,0.8-0.2,0.9
		c-0.1,0.1-0.2,0.1-0.2,0.1c0,0-0.1,0-0.1,0c-0.3,0-6.8,0.6-7.3,5.5c-0.5,4.6,1.6,8.1,1.7,8.2c0.2,0.3,4.2,6.8,5.2,8
		c0.7,0.8,0.7,2.4,0.6,3.1l0,27.6l-46.5-26.9c0-11.6,0-30.1,0-30.8c0-0.8,0.6-1.1,0.6-1.1c0.2,0,4.5-1.1,6.4-4.4
		C325.3,1371.9,325.5,1370.1,325,1368.2z M-432.9,1593.8l514.2-296.3l514.4,297.4L250,1794.9l-108.7-62.8c-0.2-0.1-0.3-0.1-0.5,0
		l-167.2,96.6L-432.9,1593.8z M59.4,2053.6v-136.1l169.2-97.7v136.1L59.4,2053.6z M12.7,2546.9c4.5-2.6,10.3-1,12.9,3.5
		c1.3,2.2,1.6,4.8,0.9,7.2s-2.3,4.5-4.5,5.7L-377,2793.7c-0.2,0.1-0.2,0.3-0.2,0.4s0.1,0.3,0.2,0.4l586.7,338.7l-18.9,10.9
		l-592.3-341.9c-2.9-1.7-4.7-4.9-4.7-8.2c0-3.4,1.8-6.5,4.8-8.2L12.7,2546.9z M141.6,3174.4l117.8,68l0,67.5l-117.8-68L141.6,3174.4
		z M142,3173.6l86.9-50.2c8,4.4,18.7,7.1,30.5,7.3v16.5c-25.1,0.1-45.4,12-45.4,26.7c0,14.7,20.5,26.7,45.6,26.7
		c25.2,0,45.6-12,45.6-26.7c0-14.6-20.1-26.4-44.9-26.7v-16.5c11.8,0,22.6-2.7,30.7-7.1l86.6,50l-117.8,68L142,3173.6z
		 M331.4,3145.7l-19-10.9l61.2-35.3v4c0,0.1,0.1,1.6,1.1,2.5c0.5,0.4,1,0.6,1.7,0.6c0.1,0,0.1,0,0.2,0c2.2-0.1,2.8-1.9,2.9-2.9
		l0-7.6l52-30c0,2.6,0,4.3,0,4.3c0,0,0,1,0.8,1.8c0.5,0.5,1.2,0.7,2,0.7c0.1,0,0.2,0,0.3,0c1-0.1,1.8-0.4,2.3-1
		c0.6-0.7,0.5-1.4,0.5-1.5l0-7.7c0,0,0,0,0.1,0l223.2-128.9c0.2-0.1,0.3-0.3,0.2-0.4c0-0.2-0.1-0.3-0.3-0.4l-165.4-93.1
		c-4.5-2.6-6.1-8.4-3.5-12.9c1.3-2.2,3.3-3.8,5.7-4.4c2.4-0.7,5-0.3,7.2,0.9L685,2925.1c2.9,1.7,4.8,4.8,4.8,8.2
		c0,3.4-1.8,6.5-4.7,8.2L331.4,3145.7z M478.9,2681.8l-19-10.9l74.7-43.1v5c0,0.1,0.1,1.6,1.1,2.5c0.5,0.4,1,0.6,1.7,0.6
		c0.1,0,0.1,0,0.2,0c2.2-0.1,2.8-1.9,2.9-2.9l0-8.5l52-30c0,3.2,0,5.2,0,5.2c0,0,0,1,0.8,1.8c0.5,0.5,1.2,0.7,2,0.7
		c0.1,0,0.2,0,0.3,0c1-0.1,1.8-0.4,2.3-1c0.6-0.7,0.5-1.4,0.5-1.5l0-8.6l148.7-85.7c0.2-0.1,0.3-0.3,0.3-0.4s-0.1-0.3-0.3-0.4
		l-46.6-26.8c-2.9-1.7-4.7-4.8-4.7-8.2s1.8-6.5,4.7-8.2l324.7-188c4.5-2.6,10.3-1.1,12.9,3.5c2.6,4.5,1.1,10.3-3.5,12.9
		l-309.7,178.9c-0.2,0.1-0.2,0.3-0.2,0.4s0.1,0.3,0.2,0.4l46.6,27.3c2.9,1.7,4.7,4.8,4.7,8.2c0,3.4-1.8,6.5-4.7,8.2L478.9,2681.8z
		 M1035,2290.6c5-2.9,6.7-9.3,3.8-14.3c-2.9-5-9.3-6.7-14.3-3.8l-33.1,19.2l-18-10.4v-67.5l117.8,68v67.5l-78.9-45.6L1035,2290.6z
		 M973.9,2212.9l86.8-50.1c8,4.5,18.8,7.2,30.6,7.3v16.5c-25.1,0.1-45.4,12-45.4,26.7c0,14.7,20.5,26.7,45.6,26.7
		c25.2,0,45.6-12,45.6-26.7c0-14.6-20.1-26.4-44.9-26.7v-16.5c11.9,0,22.7-2.7,30.8-7.2l86.5,49.9l-117.8,68L973.9,2212.9z
		 M1270.2,1848.4c5-2.9,6.6-9.4,3.7-14.4c-1.4-2.4-3.7-4.1-6.4-4.8c-2.7-0.7-5.5-0.3-7.9,1.1l-48.1,27.7l-0.2,0.1l0-29.7l0.1-95.1
		l117.6,68.1l0,136.1l-106.7-61.6L1270.2,1848.4z M1280.7,1692.7C1280.7,1692.7,1280.7,1692.7,1280.7,1692.7l135.7-78.4c0,0,0,0,0,0
		l118.9,67.4l-170.3,98.4l-117.8-68L1280.7,1692.7z M1061.5,1440.7l-117.8,68l-0.7-67.8l118.6-67.7L1061.5,1440.7z M1061.1,1372.3
		L1061.1,1372.3L942.5,1440l-118.3-68.4l82.3-46.8c7.4,4.3,17.5,6.9,28.7,7.1v15c-23,0.1-41.7,11-41.7,24.5
		c0,13.5,18.8,24.5,42,24.5s42-11,42-24.5c0-13.4-18.4-24.3-41.2-24.5v-15c14.8-0.1,27.8-4.6,35.2-11.4l76.2,44L1061.1,1372.3z
		 M349.1,824.2c1.8,0.6,3.3,0.8,4.5,0.8c-0.4,2.1-1.8,2.9-1.8,3l-3.3,1.7C349.5,827.8,349.3,825.5,349.1,824.2z M279.9,717.4
		L279.9,717.4c2.7-0.3,5,1,5,1l0,0l68.2,39.3c12,8,12.5,18.8,12.5,18.9l0.1,35c0.4,5.3-2.7,7.9-2.8,8l-3.5,2c1.7-3,1.4-6.5,1.4-6.7
		l-0.2-35.3c0,0,0-0.1,0-0.1c-2.8-12.9-10.9-18-11.2-18.2l-69.2-40c-0.1-0.1-2.4-1.5-5.5-1.5c2.1-1.3,3.9-2,4.7-2.3
		C279.7,717.5,279.9,717.4,279.9,717.4z M272.4,721.2C272.4,721.2,272.4,721.2,272.4,721.2c3.9-1.1,7.2,0.9,7.3,1l69.2,40
		c0.1,0,8.1,5.1,10.8,17.5l0.2,35.2c0,0.1,0.5,6.4-3.7,8.7c0,0-2.7,1.3-7.4-0.6c-0.2-0.1-0.4,0-0.5,0.1c-0.1,0.1-0.2,0.3-0.2,0.5
		c0,0,1,4.1-0.8,6.6c-0.8,1.1-2,1.7-3.6,1.9c-0.2,0-2.5-0.1-5-1.9c-0.1-0.1-0.1-0.1-0.2-0.2c-3-2.2-6.2-6.7-6.6-16.1
		c0-0.2-0.1-0.3-0.2-0.4l-34.8-20.4c-0.1,0-0.2-0.1-0.3-0.1c-0.1,0-0.2,0-0.3,0.1c-0.2,0.1-0.2,0.3-0.2,0.5c0,0.1,0.3,4.1-1.2,6.7
		l-0.1,0.1c-0.2,0.1-0.3,0.3-0.3,0.5c-0.6,0.8-1.4,1.4-2.6,1.5c-1.8,0.3-4.3-1-6.7-3.5c-3.4-3.6-6.6-9.9-5.5-15.3
		c0-0.2,0-0.4-0.2-0.5c-0.1-0.1-10.8-8-11.3-19.6c-0.5-11.7,0.2-35.3,0.2-35.8c0-0.1,0.3-5.2,3.9-6.4
		C272.3,721.2,272.4,721.2,272.4,721.2z M-46.1,1841.2C-46.1,1841.2-46.1,1841.2-46.1,1841.2l0.2-0.1l19.7-11.4c0,0,0,0,0,0l0.2-0.1
		l135.5-78.3l0,0l118.4,67.7l-169.2,97.7L-59.7,1849l0,0L-46.1,1841.2z M-60.7,1849.6L-60.7,1849.6l118.6,67.6l-35.7,20.6l-117.8-68
		l0,0L-60.7,1849.6z M-95.9,1870.8l117.6,67.9v136.1L-86,2012.6l53.6-30.9c2.4-1.4,4.1-3.7,4.8-6.4c0.7-2.7,0.3-5.5-1.1-7.9
		c-1.4-2.4-3.7-4.1-6.4-4.8c-2.7-0.7-5.5-0.3-7.9,1.1l-52.4,30.2l-0.5-90.2l-0.2-33L-95.9,1870.8z M1329.5,1800.6l-117.6-68.1
		l34.3-19.8l117.8,68L1329.5,1800.6z M1365.6,1916.9l-35.7,20.6l0-136.1l35-20.2l0.6,0.4V1916.9z M1535.8,1818.7l-169.2,97.7v-135.1
		c0,0,0,0,0-0.1c0,0,0-0.1,0-0.1c0,0,0-0.1,0-0.1c0,0,0-0.1-0.1-0.1c0,0,0,0-0.1-0.1c0,0,0,0,0,0l-0.4-0.2l169.8-98.1V1818.7z
		 M1417.4,1613.7l30.9-17.9l117.8,68l-29.8,17.2L1417.4,1613.7z M1536.8,1818.1V1682l29.8-17.2l0,136.1L1536.8,1818.1z"/>
	<path class="st1" d="M1484.4,1817.6c0.1,0,0.2,0,0.2-0.1l34.5-19.9c0.2-0.1,0.2-0.3,0.2-0.4v-50.9c0-0.2-0.1-0.3-0.2-0.4
		c-0.2-0.1-0.3-0.1-0.5,0l-34.5,19.9c-0.2,0.1-0.2,0.3-0.2,0.4v50.9c0,0.2,0.1,0.3,0.2,0.4
		C1484.3,1817.6,1484.3,1817.6,1484.4,1817.6z M1484.9,1766.5l33.5-19.3v49.7l-33.5,19.3V1766.5z"/>
	<path class="st1" d="M1378.5,1878.8c0.1,0,0.2,0,0.2-0.1l89.8-51.8c0.2-0.1,0.2-0.3,0.2-0.4v-50.9c0-0.2-0.1-0.3-0.2-0.4
		c-0.2-0.1-0.3-0.1-0.5,0l-89.8,51.8c-0.2,0.1-0.2,0.3-0.2,0.4v50.9c0,0.2,0.1,0.3,0.2,0.4
		C1378.3,1878.7,1378.4,1878.8,1378.5,1878.8z M1379,1827.7l88.8-51.2v49.7l-88.8,51.2V1827.7z"/>
</g>
</svg>
