<svg width="24" height="230" viewBox="0 0 24 230" fill="none" xmlns="http://www.w3.org/2000/svg">
<path d="M11.141 140C9.559 140 8.754 140.169 8.013 140.565C7.39502 140.89 6.89015 141.395 6.565 142.013C6.169 142.753 6 143.559 6 145.14V150.858C6 152.44 6.169 153.245 6.565 153.986C6.902 154.616 7.383 155.097 8.013 155.434C8.753 155.83 9.559 155.999 11.141 155.999H12.859C14.441 155.999 15.246 155.83 15.987 155.434C16.605 155.109 17.1098 154.604 17.435 153.986C17.831 153.246 18 152.44 18 150.858V145.14C18 143.558 17.831 142.753 17.435 142.012C17.1098 141.394 16.605 140.889 15.987 140.564C15.247 140.169 14.441 140 12.86 140H11.14H11.141ZM11.141 138H12.859C14.873 138 15.953 138.278 16.931 138.801C17.8973 139.312 18.6875 140.103 19.199 141.069C19.722 142.047 20 143.127 20 145.141V150.859C20 152.873 19.722 153.953 19.199 154.931C18.6875 155.897 17.8973 156.688 16.931 157.199C15.953 157.722 14.873 158 12.859 158H11.14C9.126 158 8.046 157.722 7.068 157.199C6.10169 156.688 5.31149 155.897 4.8 154.931C4.278 153.953 4 152.873 4 150.859V145.14C4 143.126 4.278 142.046 4.801 141.068C5.31292 140.102 6.10347 139.312 7.07 138.801C8.047 138.278 9.127 138 11.141 138ZM11 142H13V147H11V142Z" fill="white"/>
<line x1="11" y1="115" x2="11" y2="4.37114e-08" stroke="white" stroke-opacity="0.8" stroke-width="2"/>
<line x1="11" y1="230" x2="11" y2="180" stroke="white" stroke-opacity="0.8" stroke-width="2"/>
</svg>
