<svg xmlns="http://www.w3.org/2000/svg" viewBox="0 0 20 20">
        <g id="Layer_2" data-name="Layer 2">
          <g id="Layer_1-2" data-name="Layer 1">
            <path
              className="arrow"
              d="M19,0H1A1,1,0,0,0,0,1V19a1,1,0,0,0,1,1H19a1,1,0,0,0,1-1V1A1,1,0,0,0,19,0ZM18,18H2V2H18Z"
              fill="#0063a3"
            />
            <path
              className="arrow"
              d="M5,11h7.59L9.34,14.24a1,1,0,0,0,0,1.42,1,1,0,0,0,1.42,0l5-4.95a1,1,0,0,0,0-1.42l-5-4.95A1,1,0,0,0,9.34,5.76L12.59,9H5a1,1,0,0,0,0,2Z"
              fill="#0063a3"
            />
          </g>
        </g>
      </svg>